<?xml version="1.0" standalone="no"?>
<!DOCTYPE svg PUBLIC "-//W3C//DTD SVG 1.1//EN"
        "http://www.w3.org/Graphics/SVG/1.1/DTD/svg11.dtd">
<svg
        xmlns="http://www.w3.org/2000/svg"
        version="1.1"
        width="68.4530mm" height="49.4284mm" viewBox="0.0000 0.0000 68.4530 49.4284">
    <title>SVG Image created as radar-mk4-F_Silkscreen.svg date 2023/05/15 17:54:38</title>
    <desc>Image generated by PCBNEW</desc>
    <g style="fill:#000000; fill-opacity:1.0000;stroke:#000000; stroke-opacity:1.0000;
stroke-linecap:round; stroke-linejoin:round;"
       transform="translate(0 0) scale(1 1)">
    </g>
    <g style="fill:#000000; fill-opacity:0.0;
stroke:#000000; stroke-width:0.0000; stroke-opacity:1; 
stroke-linecap:round; stroke-linejoin:round;">
    </g>
    <g style="fill:#000000; fill-opacity:0.0;
stroke:#000000; stroke-width:0.1500; stroke-opacity:1; 
stroke-linecap:round; stroke-linejoin:round;">
        <path d="M34.2304 19.8000
L34.2304 20.3000
"/>
        <path d="M32.2304 20.0500
L36.2304 20.0500
"/>
        <text x="19.8929" y="25.2250"
              textLength="3.5464" font-size="1.0000" lengthAdjust="spacingAndGlyphs"
              text-anchor="start" opacity="0">Power
        </text>
        <g class="stroked-text">
            <desc>Power</desc>
            <path d="M20.0714 25.1970
L20.0714 24.4470
"/>
            <path d="M20.0714 24.4470
L20.3571 24.4470
"/>
            <path d="M20.3571 24.4470
L20.4286 24.4827
"/>
            <path d="M20.4286 24.4827
L20.4643 24.5184
"/>
            <path d="M20.4643 24.5184
L20.5000 24.5898
"/>
            <path d="M20.5000 24.5898
L20.5000 24.6970
"/>
            <path d="M20.5000 24.6970
L20.4643 24.7684
"/>
            <path d="M20.4643 24.7684
L20.4286 24.8041
"/>
            <path d="M20.4286 24.8041
L20.3571 24.8398
"/>
            <path d="M20.3571 24.8398
L20.0714 24.8398
"/>
            <path d="M20.9286 25.1970
L20.8571 25.1612
"/>
            <path d="M20.8571 25.1612
L20.8214 25.1255
"/>
            <path d="M20.8214 25.1255
L20.7857 25.0541
"/>
            <path d="M20.7857 25.0541
L20.7857 24.8398
"/>
            <path d="M20.7857 24.8398
L20.8214 24.7684
"/>
            <path d="M20.8214 24.7684
L20.8571 24.7327
"/>
            <path d="M20.8571 24.7327
L20.9286 24.6970
"/>
            <path d="M20.9286 24.6970
L21.0357 24.6970
"/>
            <path d="M21.0357 24.6970
L21.1071 24.7327
"/>
            <path d="M21.1071 24.7327
L21.1429 24.7684
"/>
            <path d="M21.1429 24.7684
L21.1786 24.8398
"/>
            <path d="M21.1786 24.8398
L21.1786 25.0541
"/>
            <path d="M21.1786 25.0541
L21.1429 25.1255
"/>
            <path d="M21.1429 25.1255
L21.1071 25.1612
"/>
            <path d="M21.1071 25.1612
L21.0357 25.1970
"/>
            <path d="M21.0357 25.1970
L20.9286 25.1970
"/>
            <path d="M21.4286 24.6970
L21.5714 25.1970
"/>
            <path d="M21.5714 25.1970
L21.7143 24.8398
"/>
            <path d="M21.7143 24.8398
L21.8571 25.1970
"/>
            <path d="M21.8571 25.1970
L22.0000 24.6970
"/>
            <path d="M22.5714 25.1612
L22.5000 25.1970
"/>
            <path d="M22.5000 25.1970
L22.3571 25.1970
"/>
            <path d="M22.3571 25.1970
L22.2857 25.1612
"/>
            <path d="M22.2857 25.1612
L22.2500 25.0898
"/>
            <path d="M22.2500 25.0898
L22.2500 24.8041
"/>
            <path d="M22.2500 24.8041
L22.2857 24.7327
"/>
            <path d="M22.2857 24.7327
L22.3571 24.6970
"/>
            <path d="M22.3571 24.6970
L22.5000 24.6970
"/>
            <path d="M22.5000 24.6970
L22.5714 24.7327
"/>
            <path d="M22.5714 24.7327
L22.6071 24.8041
"/>
            <path d="M22.6071 24.8041
L22.6071 24.8755
"/>
            <path d="M22.6071 24.8755
L22.2500 24.9470
"/>
            <path d="M22.9286 25.1970
L22.9286 24.6970
"/>
            <path d="M22.9286 24.8398
L22.9643 24.7684
"/>
            <path d="M22.9643 24.7684
L23.0000 24.7327
"/>
            <path d="M23.0000 24.7327
L23.0714 24.6970
"/>
            <path d="M23.0714 24.6970
L23.1429 24.6970
"/>
        </g>
    </g>
    <g style="fill:#000000; fill-opacity:0.0;
stroke:#000000; stroke-width:0.2500; stroke-opacity:1; 
stroke-linecap:round; stroke-linejoin:round;">
        <text x="15.8929" y="10.0625"
              textLength="7.9679" font-size="2.0000" lengthAdjust="spacingAndGlyphs"
              text-anchor="middle" opacity="0">vRadar
        </text>
        <g class="stroked-text">
            <desc>vRadar</desc>
            <path d="M12.2857 9.0064
L12.6429 10.0064
"/>
            <path d="M12.6429 10.0064
L13.0000 9.0064
"/>
            <path d="M14.4286 10.0064
L13.9286 9.2921
"/>
            <path d="M13.5714 10.0064
L13.5714 8.5064
"/>
            <path d="M13.5714 8.5064
L14.1429 8.5064
"/>
            <path d="M14.1429 8.5064
L14.2857 8.5779
"/>
            <path d="M14.2857 8.5779
L14.3571 8.6493
"/>
            <path d="M14.3571 8.6493
L14.4286 8.7921
"/>
            <path d="M14.4286 8.7921
L14.4286 9.0064
"/>
            <path d="M14.4286 9.0064
L14.3571 9.1493
"/>
            <path d="M14.3571 9.1493
L14.2857 9.2207
"/>
            <path d="M14.2857 9.2207
L14.1429 9.2921
"/>
            <path d="M14.1429 9.2921
L13.5714 9.2921
"/>
            <path d="M15.7143 10.0064
L15.7143 9.2207
"/>
            <path d="M15.7143 9.2207
L15.6429 9.0779
"/>
            <path d="M15.6429 9.0779
L15.5000 9.0064
"/>
            <path d="M15.5000 9.0064
L15.2143 9.0064
"/>
            <path d="M15.2143 9.0064
L15.0714 9.0779
"/>
            <path d="M15.7143 9.9350
L15.5714 10.0064
"/>
            <path d="M15.5714 10.0064
L15.2143 10.0064
"/>
            <path d="M15.2143 10.0064
L15.0714 9.9350
"/>
            <path d="M15.0714 9.9350
L15.0000 9.7921
"/>
            <path d="M15.0000 9.7921
L15.0000 9.6493
"/>
            <path d="M15.0000 9.6493
L15.0714 9.5064
"/>
            <path d="M15.0714 9.5064
L15.2143 9.4350
"/>
            <path d="M15.2143 9.4350
L15.5714 9.4350
"/>
            <path d="M15.5714 9.4350
L15.7143 9.3636
"/>
            <path d="M17.0714 10.0064
L17.0714 8.5064
"/>
            <path d="M17.0714 9.9350
L16.9286 10.0064
"/>
            <path d="M16.9286 10.0064
L16.6429 10.0064
"/>
            <path d="M16.6429 10.0064
L16.5000 9.9350
"/>
            <path d="M16.5000 9.9350
L16.4286 9.8636
"/>
            <path d="M16.4286 9.8636
L16.3571 9.7207
"/>
            <path d="M16.3571 9.7207
L16.3571 9.2921
"/>
            <path d="M16.3571 9.2921
L16.4286 9.1493
"/>
            <path d="M16.4286 9.1493
L16.5000 9.0779
"/>
            <path d="M16.5000 9.0779
L16.6429 9.0064
"/>
            <path d="M16.6429 9.0064
L16.9286 9.0064
"/>
            <path d="M16.9286 9.0064
L17.0714 9.0779
"/>
            <path d="M18.4286 10.0064
L18.4286 9.2207
"/>
            <path d="M18.4286 9.2207
L18.3571 9.0779
"/>
            <path d="M18.3571 9.0779
L18.2143 9.0064
"/>
            <path d="M18.2143 9.0064
L17.9286 9.0064
"/>
            <path d="M17.9286 9.0064
L17.7857 9.0779
"/>
            <path d="M18.4286 9.9350
L18.2857 10.0064
"/>
            <path d="M18.2857 10.0064
L17.9286 10.0064
"/>
            <path d="M17.9286 10.0064
L17.7857 9.9350
"/>
            <path d="M17.7857 9.9350
L17.7143 9.7921
"/>
            <path d="M17.7143 9.7921
L17.7143 9.6493
"/>
            <path d="M17.7143 9.6493
L17.7857 9.5064
"/>
            <path d="M17.7857 9.5064
L17.9286 9.4350
"/>
            <path d="M17.9286 9.4350
L18.2857 9.4350
"/>
            <path d="M18.2857 9.4350
L18.4286 9.3636
"/>
            <path d="M19.1429 10.0064
L19.1429 9.0064
"/>
            <path d="M19.1429 9.2921
L19.2143 9.1493
"/>
            <path d="M19.2143 9.1493
L19.2857 9.0779
"/>
            <path d="M19.2857 9.0779
L19.4286 9.0064
"/>
            <path d="M19.4286 9.0064
L19.5714 9.0064
"/>
        </g>
    </g>
    <g style="fill:#000000; fill-opacity:0.0;
stroke:#000000; stroke-width:0.1500; stroke-opacity:1; 
stroke-linecap:round; stroke-linejoin:round;">
        <text x="53.3679" y="18.2500"
              textLength="2.5107" font-size="1.0000" lengthAdjust="spacingAndGlyphs"
              text-anchor="middle" opacity="0">GND
        </text>
        <g class="stroked-text">
            <desc>GND</desc>
            <path d="M52.7964 17.5077
L52.7250 17.4720
"/>
            <path d="M52.7250 17.4720
L52.6179 17.4720
"/>
            <path d="M52.6179 17.4720
L52.5107 17.5077
"/>
            <path d="M52.5107 17.5077
L52.4393 17.5791
"/>
            <path d="M52.4393 17.5791
L52.4036 17.6505
"/>
            <path d="M52.4036 17.6505
L52.3679 17.7934
"/>
            <path d="M52.3679 17.7934
L52.3679 17.9005
"/>
            <path d="M52.3679 17.9005
L52.4036 18.0434
"/>
            <path d="M52.4036 18.0434
L52.4393 18.1148
"/>
            <path d="M52.4393 18.1148
L52.5107 18.1862
"/>
            <path d="M52.5107 18.1862
L52.6179 18.2220
"/>
            <path d="M52.6179 18.2220
L52.6893 18.2220
"/>
            <path d="M52.6893 18.2220
L52.7964 18.1862
"/>
            <path d="M52.7964 18.1862
L52.8321 18.1505
"/>
            <path d="M52.8321 18.1505
L52.8321 17.9005
"/>
            <path d="M52.8321 17.9005
L52.6893 17.9005
"/>
            <path d="M53.1536 18.2220
L53.1536 17.4720
"/>
            <path d="M53.1536 17.4720
L53.5821 18.2220
"/>
            <path d="M53.5821 18.2220
L53.5821 17.4720
"/>
            <path d="M53.9393 18.2220
L53.9393 17.4720
"/>
            <path d="M53.9393 17.4720
L54.1179 17.4720
"/>
            <path d="M54.1179 17.4720
L54.2250 17.5077
"/>
            <path d="M54.2250 17.5077
L54.2964 17.5791
"/>
            <path d="M54.2964 17.5791
L54.3321 17.6505
"/>
            <path d="M54.3321 17.6505
L54.3679 17.7934
"/>
            <path d="M54.3679 17.7934
L54.3679 17.9005
"/>
            <path d="M54.3679 17.9005
L54.3321 18.0434
"/>
            <path d="M54.3321 18.0434
L54.2964 18.1148
"/>
            <path d="M54.2964 18.1148
L54.2250 18.1862
"/>
            <path d="M54.2250 18.1862
L54.1179 18.2220
"/>
            <path d="M54.1179 18.2220
L53.9393 18.2220
"/>
        </g>
        <text x="52.7179" y="13.1500"
              textLength="1.2964" font-size="1.0000" lengthAdjust="spacingAndGlyphs"
              text-anchor="middle" opacity="0">I1
        </text>
        <g class="stroked-text">
            <desc>I1</desc>
            <path d="M52.3607 13.1220
L52.3607 12.3720
"/>
            <path d="M53.1107 13.1220
L52.6821 13.1220
"/>
            <path d="M52.8964 13.1220
L52.8964 12.3720
"/>
            <path d="M52.8964 12.3720
L52.8250 12.4791
"/>
            <path d="M52.8250 12.4791
L52.7536 12.5505
"/>
            <path d="M52.7536 12.5505
L52.6821 12.5862
"/>
        </g>
        <text x="52.9804" y="20.7750"
              textLength="1.7250" font-size="1.0000" lengthAdjust="spacingAndGlyphs"
              text-anchor="middle" opacity="0">Q2
        </text>
        <g class="stroked-text">
            <desc>Q2</desc>
            <path d="M52.9089 20.8155
L52.8375 20.7822
"/>
            <path d="M52.8375 20.7822
L52.7661 20.7155
"/>
            <path d="M52.7661 20.7155
L52.6589 20.6155
"/>
            <path d="M52.6589 20.6155
L52.5875 20.5822
"/>
            <path d="M52.5875 20.5822
L52.5161 20.5822
"/>
            <path d="M52.5518 20.7488
L52.4804 20.7155
"/>
            <path d="M52.4804 20.7155
L52.4089 20.6488
"/>
            <path d="M52.4089 20.6488
L52.3732 20.5155
"/>
            <path d="M52.3732 20.5155
L52.3732 20.2822
"/>
            <path d="M52.3732 20.2822
L52.4089 20.1488
"/>
            <path d="M52.4089 20.1488
L52.4804 20.0822
"/>
            <path d="M52.4804 20.0822
L52.5518 20.0488
"/>
            <path d="M52.5518 20.0488
L52.6946 20.0488
"/>
            <path d="M52.6946 20.0488
L52.7661 20.0822
"/>
            <path d="M52.7661 20.0822
L52.8375 20.1488
"/>
            <path d="M52.8375 20.1488
L52.8732 20.2822
"/>
            <path d="M52.8732 20.2822
L52.8732 20.5155
"/>
            <path d="M52.8732 20.5155
L52.8375 20.6488
"/>
            <path d="M52.8375 20.6488
L52.7661 20.7155
"/>
            <path d="M52.7661 20.7155
L52.6946 20.7488
"/>
            <path d="M52.6946 20.7488
L52.5518 20.7488
"/>
            <path d="M53.1589 20.1155
L53.1946 20.0822
"/>
            <path d="M53.1946 20.0822
L53.2661 20.0488
"/>
            <path d="M53.2661 20.0488
L53.4446 20.0488
"/>
            <path d="M53.4446 20.0488
L53.5161 20.0822
"/>
            <path d="M53.5161 20.0822
L53.5518 20.1155
"/>
            <path d="M53.5518 20.1155
L53.5875 20.1822
"/>
            <path d="M53.5875 20.1822
L53.5875 20.2488
"/>
            <path d="M53.5875 20.2488
L53.5518 20.3488
"/>
            <path d="M53.5518 20.3488
L53.1232 20.7488
"/>
            <path d="M53.1232 20.7488
L53.5875 20.7488
"/>
        </g>
    </g>
    <g style="fill:#000000; fill-opacity:0.0;
stroke:#000000; stroke-width:0.2500; stroke-opacity:1; 
stroke-linecap:round; stroke-linejoin:round;">
        <text x="50.5304" y="10.3000"
              textLength="5.4250" font-size="1.3333" lengthAdjust="spacingAndGlyphs"
              text-anchor="middle" opacity="0">K-LC7
        </text>
        <g class="stroked-text">
            <desc>K-LC7</desc>
            <path d="M48.2685 10.2626
L48.2685 9.2626
"/>
            <path d="M48.8399 10.2626
L48.4113 9.6912
"/>
            <path d="M48.8399 9.2626
L48.2685 9.8340
"/>
            <path d="M49.2685 9.8817
L50.0304 9.8817
"/>
            <path d="M50.9827 10.2626
L50.5065 10.2626
"/>
            <path d="M50.5065 10.2626
L50.5065 9.2626
"/>
            <path d="M51.8875 10.1674
L51.8399 10.2150
"/>
            <path d="M51.8399 10.2150
L51.6970 10.2626
"/>
            <path d="M51.6970 10.2626
L51.6018 10.2626
"/>
            <path d="M51.6018 10.2626
L51.4589 10.2150
"/>
            <path d="M51.4589 10.2150
L51.3637 10.1198
"/>
            <path d="M51.3637 10.1198
L51.3161 10.0245
"/>
            <path d="M51.3161 10.0245
L51.2685 9.8340
"/>
            <path d="M51.2685 9.8340
L51.2685 9.6912
"/>
            <path d="M51.2685 9.6912
L51.3161 9.5007
"/>
            <path d="M51.3161 9.5007
L51.3637 9.4055
"/>
            <path d="M51.3637 9.4055
L51.4589 9.3102
"/>
            <path d="M51.4589 9.3102
L51.6018 9.2626
"/>
            <path d="M51.6018 9.2626
L51.6970 9.2626
"/>
            <path d="M51.6970 9.2626
L51.8399 9.3102
"/>
            <path d="M51.8399 9.3102
L51.8875 9.3579
"/>
            <path d="M52.2208 9.2626
L52.8875 9.2626
"/>
            <path d="M52.8875 9.2626
L52.4589 10.2626
"/>
        </g>
    </g>
    <g style="fill:#000000; fill-opacity:0.0;
stroke:#000000; stroke-width:0.1500; stroke-opacity:1; 
stroke-linecap:round; stroke-linejoin:round;">
        <text x="15.6929" y="22.0125"
              textLength="1.5821" font-size="1.0000" lengthAdjust="spacingAndGlyphs"
              text-anchor="middle" opacity="0">5V
        </text>
        <g class="stroked-text">
            <desc>5V</desc>
            <path d="M15.5500 21.2345
L15.1929 21.2345
"/>
            <path d="M15.1929 21.2345
L15.1571 21.5916
"/>
            <path d="M15.1571 21.5916
L15.1929 21.5559
"/>
            <path d="M15.1929 21.5559
L15.2643 21.5202
"/>
            <path d="M15.2643 21.5202
L15.4429 21.5202
"/>
            <path d="M15.4429 21.5202
L15.5143 21.5559
"/>
            <path d="M15.5143 21.5559
L15.5500 21.5916
"/>
            <path d="M15.5500 21.5916
L15.5857 21.6630
"/>
            <path d="M15.5857 21.6630
L15.5857 21.8416
"/>
            <path d="M15.5857 21.8416
L15.5500 21.9130
"/>
            <path d="M15.5500 21.9130
L15.5143 21.9488
"/>
            <path d="M15.5143 21.9488
L15.4429 21.9845
"/>
            <path d="M15.4429 21.9845
L15.2643 21.9845
"/>
            <path d="M15.2643 21.9845
L15.1929 21.9488
"/>
            <path d="M15.1929 21.9488
L15.1571 21.9130
"/>
            <path d="M15.8000 21.2345
L16.0500 21.9845
"/>
            <path d="M16.0500 21.9845
L16.3000 21.2345
"/>
        </g>
    </g>
    <g style="fill:#000000; fill-opacity:0.0;
stroke:#000000; stroke-width:0.1250; stroke-opacity:1; 
stroke-linecap:round; stroke-linejoin:round;">
        <text x="32.5429" y="8.4250"
              textLength="3.7363" font-size="0.6667" lengthAdjust="spacingAndGlyphs"
              text-anchor="start" opacity="0">Y +15MM
        </text>
        <g class="stroked-text">
            <desc>Y +15MM</desc>
            <path d="M32.7571 8.1257
L32.7571 8.3638
"/>
            <path d="M32.5905 7.8638
L32.7571 8.1257
"/>
            <path d="M32.7571 8.1257
L32.9238 7.8638
"/>
            <path d="M33.4714 8.1733
L33.8524 8.1733
"/>
            <path d="M33.6619 8.3638
L33.6619 7.9829
"/>
            <path d="M34.3524 8.3638
L34.0667 8.3638
"/>
            <path d="M34.2095 8.3638
L34.2095 7.8638
"/>
            <path d="M34.2095 7.8638
L34.1619 7.9352
"/>
            <path d="M34.1619 7.9352
L34.1143 7.9829
"/>
            <path d="M34.1143 7.9829
L34.0667 8.0067
"/>
            <path d="M34.8048 7.8638
L34.5667 7.8638
"/>
            <path d="M34.5667 7.8638
L34.5429 8.1019
"/>
            <path d="M34.5429 8.1019
L34.5667 8.0781
"/>
            <path d="M34.5667 8.0781
L34.6143 8.0543
"/>
            <path d="M34.6143 8.0543
L34.7333 8.0543
"/>
            <path d="M34.7333 8.0543
L34.7810 8.0781
"/>
            <path d="M34.7810 8.0781
L34.8048 8.1019
"/>
            <path d="M34.8048 8.1019
L34.8286 8.1495
"/>
            <path d="M34.8286 8.1495
L34.8286 8.2686
"/>
            <path d="M34.8286 8.2686
L34.8048 8.3162
"/>
            <path d="M34.8048 8.3162
L34.7810 8.3400
"/>
            <path d="M34.7810 8.3400
L34.7333 8.3638
"/>
            <path d="M34.7333 8.3638
L34.6143 8.3638
"/>
            <path d="M34.6143 8.3638
L34.5667 8.3400
"/>
            <path d="M34.5667 8.3400
L34.5429 8.3162
"/>
            <path d="M35.0429 8.3638
L35.0429 7.8638
"/>
            <path d="M35.0429 7.8638
L35.2095 8.2210
"/>
            <path d="M35.2095 8.2210
L35.3762 7.8638
"/>
            <path d="M35.3762 7.8638
L35.3762 8.3638
"/>
            <path d="M35.6143 8.3638
L35.6143 7.8638
"/>
            <path d="M35.6143 7.8638
L35.7810 8.2210
"/>
            <path d="M35.7810 8.2210
L35.9476 7.8638
"/>
            <path d="M35.9476 7.8638
L35.9476 8.3638
"/>
        </g>
    </g>
    <g style="fill:#000000; fill-opacity:0.0;
stroke:#000000; stroke-width:0.1500; stroke-opacity:1; 
stroke-linecap:round; stroke-linejoin:round;">
        <text x="52.9804" y="15.7500"
              textLength="1.7250" font-size="1.0000" lengthAdjust="spacingAndGlyphs"
              text-anchor="middle" opacity="0">Q1
        </text>
        <g class="stroked-text">
            <desc>Q1</desc>
            <path d="M52.9089 15.7934
L52.8375 15.7577
"/>
            <path d="M52.8375 15.7577
L52.7661 15.6862
"/>
            <path d="M52.7661 15.6862
L52.6589 15.5791
"/>
            <path d="M52.6589 15.5791
L52.5875 15.5434
"/>
            <path d="M52.5875 15.5434
L52.5161 15.5434
"/>
            <path d="M52.5518 15.7220
L52.4804 15.6862
"/>
            <path d="M52.4804 15.6862
L52.4089 15.6148
"/>
            <path d="M52.4089 15.6148
L52.3732 15.4720
"/>
            <path d="M52.3732 15.4720
L52.3732 15.2220
"/>
            <path d="M52.3732 15.2220
L52.4089 15.0791
"/>
            <path d="M52.4089 15.0791
L52.4804 15.0077
"/>
            <path d="M52.4804 15.0077
L52.5518 14.9720
"/>
            <path d="M52.5518 14.9720
L52.6946 14.9720
"/>
            <path d="M52.6946 14.9720
L52.7661 15.0077
"/>
            <path d="M52.7661 15.0077
L52.8375 15.0791
"/>
            <path d="M52.8375 15.0791
L52.8732 15.2220
"/>
            <path d="M52.8732 15.2220
L52.8732 15.4720
"/>
            <path d="M52.8732 15.4720
L52.8375 15.6148
"/>
            <path d="M52.8375 15.6148
L52.7661 15.6862
"/>
            <path d="M52.7661 15.6862
L52.6946 15.7220
"/>
            <path d="M52.6946 15.7220
L52.5518 15.7220
"/>
            <path d="M53.5875 15.7220
L53.1589 15.7220
"/>
            <path d="M53.3732 15.7220
L53.3732 14.9720
"/>
            <path d="M53.3732 14.9720
L53.3018 15.0791
"/>
            <path d="M53.3018 15.0791
L53.2304 15.1505
"/>
            <path d="M53.2304 15.1505
L53.1589 15.1862
"/>
        </g>
        <text x="15.3554" y="16.9375"
              textLength="2.4036" font-size="1.0000" lengthAdjust="spacingAndGlyphs"
              text-anchor="middle" opacity="0">FDO
        </text>
        <g class="stroked-text">
            <desc>FDO</desc>
            <path d="M14.6946 16.5166
L14.4446 16.5166
"/>
            <path d="M14.4446 16.9095
L14.4446 16.1595
"/>
            <path d="M14.4446 16.1595
L14.8018 16.1595
"/>
            <path d="M15.0875 16.9095
L15.0875 16.1595
"/>
            <path d="M15.0875 16.1595
L15.2661 16.1595
"/>
            <path d="M15.2661 16.1595
L15.3732 16.1952
"/>
            <path d="M15.3732 16.1952
L15.4446 16.2666
"/>
            <path d="M15.4446 16.2666
L15.4804 16.3380
"/>
            <path d="M15.4804 16.3380
L15.5161 16.4809
"/>
            <path d="M15.5161 16.4809
L15.5161 16.5880
"/>
            <path d="M15.5161 16.5880
L15.4804 16.7309
"/>
            <path d="M15.4804 16.7309
L15.4446 16.8023
"/>
            <path d="M15.4446 16.8023
L15.3732 16.8737
"/>
            <path d="M15.3732 16.8737
L15.2661 16.9095
"/>
            <path d="M15.2661 16.9095
L15.0875 16.9095
"/>
            <path d="M15.9804 16.1595
L16.1232 16.1595
"/>
            <path d="M16.1232 16.1595
L16.1946 16.1952
"/>
            <path d="M16.1946 16.1952
L16.2661 16.2666
"/>
            <path d="M16.2661 16.2666
L16.3018 16.4095
"/>
            <path d="M16.3018 16.4095
L16.3018 16.6595
"/>
            <path d="M16.3018 16.6595
L16.2661 16.8023
"/>
            <path d="M16.2661 16.8023
L16.1946 16.8737
"/>
            <path d="M16.1946 16.8737
L16.1232 16.9095
"/>
            <path d="M16.1232 16.9095
L15.9804 16.9095
"/>
            <path d="M15.9804 16.9095
L15.9089 16.8737
"/>
            <path d="M15.9089 16.8737
L15.8375 16.8023
"/>
            <path d="M15.8375 16.8023
L15.8018 16.6595
"/>
            <path d="M15.8018 16.6595
L15.8018 16.4095
"/>
            <path d="M15.8018 16.4095
L15.8375 16.2666
"/>
            <path d="M15.8375 16.2666
L15.9089 16.1952
"/>
            <path d="M15.9089 16.1952
L15.9804 16.1595
"/>
        </g>
        <text x="19.8929" y="26.9250"
              textLength="2.4750" font-size="1.0000" lengthAdjust="spacingAndGlyphs"
              text-anchor="start" opacity="0">Link
        </text>
        <g class="stroked-text">
            <desc>Link</desc>
            <path d="M20.4286 26.8970
L20.0714 26.8970
"/>
            <path d="M20.0714 26.8970
L20.0714 26.1470
"/>
            <path d="M20.6786 26.8970
L20.6786 26.3970
"/>
            <path d="M20.6786 26.1470
L20.6429 26.1827
"/>
            <path d="M20.6429 26.1827
L20.6786 26.2184
"/>
            <path d="M20.6786 26.2184
L20.7143 26.1827
"/>
            <path d="M20.7143 26.1827
L20.6786 26.1470
"/>
            <path d="M20.6786 26.1470
L20.6786 26.2184
"/>
            <path d="M21.0357 26.3970
L21.0357 26.8970
"/>
            <path d="M21.0357 26.4684
L21.0714 26.4327
"/>
            <path d="M21.0714 26.4327
L21.1429 26.3970
"/>
            <path d="M21.1429 26.3970
L21.2500 26.3970
"/>
            <path d="M21.2500 26.3970
L21.3214 26.4327
"/>
            <path d="M21.3214 26.4327
L21.3571 26.5041
"/>
            <path d="M21.3571 26.5041
L21.3571 26.8970
"/>
            <path d="M21.7143 26.8970
L21.7143 26.1470
"/>
            <path d="M21.7857 26.6112
L22.0000 26.8970
"/>
            <path d="M22.0000 26.3970
L21.7143 26.6827
"/>
        </g>
    </g>
    <g style="fill:#000000; fill-opacity:0.0;
stroke:#000000; stroke-width:0.1250; stroke-opacity:1; 
stroke-linecap:round; stroke-linejoin:round;">
        <text x="32.5179" y="7.6500"
              textLength="3.7839" font-size="0.6667" lengthAdjust="spacingAndGlyphs"
              text-anchor="start" opacity="0">X +00MM
        </text>
        <g class="stroked-text">
            <desc>X +00MM</desc>
            <path d="M32.5893 7.0888
L32.9226 7.5888
"/>
            <path d="M32.9226 7.0888
L32.5893 7.5888
"/>
            <path d="M33.4940 7.3983
L33.8750 7.3983
"/>
            <path d="M33.6845 7.5888
L33.6845 7.2079
"/>
            <path d="M34.2083 7.0888
L34.2560 7.0888
"/>
            <path d="M34.2560 7.0888
L34.3036 7.1126
"/>
            <path d="M34.3036 7.1126
L34.3274 7.1364
"/>
            <path d="M34.3274 7.1364
L34.3512 7.1840
"/>
            <path d="M34.3512 7.1840
L34.3750 7.2793
"/>
            <path d="M34.3750 7.2793
L34.3750 7.3983
"/>
            <path d="M34.3750 7.3983
L34.3512 7.4936
"/>
            <path d="M34.3512 7.4936
L34.3274 7.5412
"/>
            <path d="M34.3274 7.5412
L34.3036 7.5650
"/>
            <path d="M34.3036 7.5650
L34.2560 7.5888
"/>
            <path d="M34.2560 7.5888
L34.2083 7.5888
"/>
            <path d="M34.2083 7.5888
L34.1607 7.5650
"/>
            <path d="M34.1607 7.5650
L34.1369 7.5412
"/>
            <path d="M34.1369 7.5412
L34.1131 7.4936
"/>
            <path d="M34.1131 7.4936
L34.0893 7.3983
"/>
            <path d="M34.0893 7.3983
L34.0893 7.2793
"/>
            <path d="M34.0893 7.2793
L34.1131 7.1840
"/>
            <path d="M34.1131 7.1840
L34.1369 7.1364
"/>
            <path d="M34.1369 7.1364
L34.1607 7.1126
"/>
            <path d="M34.1607 7.1126
L34.2083 7.0888
"/>
            <path d="M34.6845 7.0888
L34.7321 7.0888
"/>
            <path d="M34.7321 7.0888
L34.7798 7.1126
"/>
            <path d="M34.7798 7.1126
L34.8036 7.1364
"/>
            <path d="M34.8036 7.1364
L34.8274 7.1840
"/>
            <path d="M34.8274 7.1840
L34.8512 7.2793
"/>
            <path d="M34.8512 7.2793
L34.8512 7.3983
"/>
            <path d="M34.8512 7.3983
L34.8274 7.4936
"/>
            <path d="M34.8274 7.4936
L34.8036 7.5412
"/>
            <path d="M34.8036 7.5412
L34.7798 7.5650
"/>
            <path d="M34.7798 7.5650
L34.7321 7.5888
"/>
            <path d="M34.7321 7.5888
L34.6845 7.5888
"/>
            <path d="M34.6845 7.5888
L34.6369 7.5650
"/>
            <path d="M34.6369 7.5650
L34.6131 7.5412
"/>
            <path d="M34.6131 7.5412
L34.5893 7.4936
"/>
            <path d="M34.5893 7.4936
L34.5655 7.3983
"/>
            <path d="M34.5655 7.3983
L34.5655 7.2793
"/>
            <path d="M34.5655 7.2793
L34.5893 7.1840
"/>
            <path d="M34.5893 7.1840
L34.6131 7.1364
"/>
            <path d="M34.6131 7.1364
L34.6369 7.1126
"/>
            <path d="M34.6369 7.1126
L34.6845 7.0888
"/>
            <path d="M35.0655 7.5888
L35.0655 7.0888
"/>
            <path d="M35.0655 7.0888
L35.2321 7.4460
"/>
            <path d="M35.2321 7.4460
L35.3988 7.0888
"/>
            <path d="M35.3988 7.0888
L35.3988 7.5888
"/>
            <path d="M35.6369 7.5888
L35.6369 7.0888
"/>
            <path d="M35.6369 7.0888
L35.8036 7.4460
"/>
            <path d="M35.8036 7.4460
L35.9702 7.0888
"/>
            <path d="M35.9702 7.0888
L35.9702 7.5888
"/>
        </g>
    </g>
    <g style="fill:#000000; fill-opacity:0.0;
stroke:#000000; stroke-width:0.1500; stroke-opacity:1; 
stroke-linecap:round; stroke-linejoin:round;">
        <text x="19.9429" y="28.7250"
              textLength="3.0464" font-size="1.0000" lengthAdjust="spacingAndGlyphs"
              text-anchor="start" opacity="0">Fault
        </text>
        <g class="stroked-text">
            <desc>Fault</desc>
            <path d="M20.3714 28.3041
L20.1214 28.3041
"/>
            <path d="M20.1214 28.6970
L20.1214 27.9470
"/>
            <path d="M20.1214 27.9470
L20.4786 27.9470
"/>
            <path d="M21.0857 28.6970
L21.0857 28.3041
"/>
            <path d="M21.0857 28.3041
L21.0500 28.2327
"/>
            <path d="M21.0500 28.2327
L20.9786 28.1970
"/>
            <path d="M20.9786 28.1970
L20.8357 28.1970
"/>
            <path d="M20.8357 28.1970
L20.7643 28.2327
"/>
            <path d="M21.0857 28.6612
L21.0143 28.6970
"/>
            <path d="M21.0143 28.6970
L20.8357 28.6970
"/>
            <path d="M20.8357 28.6970
L20.7643 28.6612
"/>
            <path d="M20.7643 28.6612
L20.7286 28.5898
"/>
            <path d="M20.7286 28.5898
L20.7286 28.5184
"/>
            <path d="M20.7286 28.5184
L20.7643 28.4470
"/>
            <path d="M20.7643 28.4470
L20.8357 28.4112
"/>
            <path d="M20.8357 28.4112
L21.0143 28.4112
"/>
            <path d="M21.0143 28.4112
L21.0857 28.3755
"/>
            <path d="M21.7643 28.1970
L21.7643 28.6970
"/>
            <path d="M21.4429 28.1970
L21.4429 28.5898
"/>
            <path d="M21.4429 28.5898
L21.4786 28.6612
"/>
            <path d="M21.4786 28.6612
L21.5500 28.6970
"/>
            <path d="M21.5500 28.6970
L21.6571 28.6970
"/>
            <path d="M21.6571 28.6970
L21.7286 28.6612
"/>
            <path d="M21.7286 28.6612
L21.7643 28.6255
"/>
            <path d="M22.2286 28.6970
L22.1571 28.6612
"/>
            <path d="M22.1571 28.6612
L22.1214 28.5898
"/>
            <path d="M22.1214 28.5898
L22.1214 27.9470
"/>
            <path d="M22.4071 28.1970
L22.6929 28.1970
"/>
            <path d="M22.5143 27.9470
L22.5143 28.5898
"/>
            <path d="M22.5143 28.5898
L22.5500 28.6612
"/>
            <path d="M22.5500 28.6612
L22.6214 28.6970
"/>
            <path d="M22.6214 28.6970
L22.6929 28.6970
"/>
        </g>
        <text x="14.5929" y="12.3125"
              textLength="5.1893" font-size="1.0000" lengthAdjust="spacingAndGlyphs"
              text-anchor="middle" opacity="0">BN 2023
        </text>
        <g class="stroked-text">
            <desc>BN 2023</desc>
            <path d="M12.5393 11.8916
L12.6464 11.9273
"/>
            <path d="M12.6464 11.9273
L12.6821 11.9630
"/>
            <path d="M12.6821 11.9630
L12.7179 12.0345
"/>
            <path d="M12.7179 12.0345
L12.7179 12.1416
"/>
            <path d="M12.7179 12.1416
L12.6821 12.2130
"/>
            <path d="M12.6821 12.2130
L12.6464 12.2487
"/>
            <path d="M12.6464 12.2487
L12.5750 12.2845
"/>
            <path d="M12.5750 12.2845
L12.2893 12.2845
"/>
            <path d="M12.2893 12.2845
L12.2893 11.5345
"/>
            <path d="M12.2893 11.5345
L12.5393 11.5345
"/>
            <path d="M12.5393 11.5345
L12.6107 11.5702
"/>
            <path d="M12.6107 11.5702
L12.6464 11.6059
"/>
            <path d="M12.6464 11.6059
L12.6821 11.6773
"/>
            <path d="M12.6821 11.6773
L12.6821 11.7487
"/>
            <path d="M12.6821 11.7487
L12.6464 11.8202
"/>
            <path d="M12.6464 11.8202
L12.6107 11.8559
"/>
            <path d="M12.6107 11.8559
L12.5393 11.8916
"/>
            <path d="M12.5393 11.8916
L12.2893 11.8916
"/>
            <path d="M13.0393 12.2845
L13.0393 11.5345
"/>
            <path d="M13.0393 11.5345
L13.4679 12.2845
"/>
            <path d="M13.4679 12.2845
L13.4679 11.5345
"/>
            <path d="M14.3607 11.6059
L14.3964 11.5702
"/>
            <path d="M14.3964 11.5702
L14.4679 11.5345
"/>
            <path d="M14.4679 11.5345
L14.6464 11.5345
"/>
            <path d="M14.6464 11.5345
L14.7179 11.5702
"/>
            <path d="M14.7179 11.5702
L14.7536 11.6059
"/>
            <path d="M14.7536 11.6059
L14.7893 11.6773
"/>
            <path d="M14.7893 11.6773
L14.7893 11.7487
"/>
            <path d="M14.7893 11.7487
L14.7536 11.8559
"/>
            <path d="M14.7536 11.8559
L14.3250 12.2845
"/>
            <path d="M14.3250 12.2845
L14.7893 12.2845
"/>
            <path d="M15.2536 11.5345
L15.3250 11.5345
"/>
            <path d="M15.3250 11.5345
L15.3964 11.5702
"/>
            <path d="M15.3964 11.5702
L15.4321 11.6059
"/>
            <path d="M15.4321 11.6059
L15.4679 11.6773
"/>
            <path d="M15.4679 11.6773
L15.5036 11.8202
"/>
            <path d="M15.5036 11.8202
L15.5036 11.9987
"/>
            <path d="M15.5036 11.9987
L15.4679 12.1416
"/>
            <path d="M15.4679 12.1416
L15.4321 12.2130
"/>
            <path d="M15.4321 12.2130
L15.3964 12.2487
"/>
            <path d="M15.3964 12.2487
L15.3250 12.2845
"/>
            <path d="M15.3250 12.2845
L15.2536 12.2845
"/>
            <path d="M15.2536 12.2845
L15.1821 12.2487
"/>
            <path d="M15.1821 12.2487
L15.1464 12.2130
"/>
            <path d="M15.1464 12.2130
L15.1107 12.1416
"/>
            <path d="M15.1107 12.1416
L15.0750 11.9987
"/>
            <path d="M15.0750 11.9987
L15.0750 11.8202
"/>
            <path d="M15.0750 11.8202
L15.1107 11.6773
"/>
            <path d="M15.1107 11.6773
L15.1464 11.6059
"/>
            <path d="M15.1464 11.6059
L15.1821 11.5702
"/>
            <path d="M15.1821 11.5702
L15.2536 11.5345
"/>
            <path d="M15.7893 11.6059
L15.8250 11.5702
"/>
            <path d="M15.8250 11.5702
L15.8964 11.5345
"/>
            <path d="M15.8964 11.5345
L16.0750 11.5345
"/>
            <path d="M16.0750 11.5345
L16.1464 11.5702
"/>
            <path d="M16.1464 11.5702
L16.1821 11.6059
"/>
            <path d="M16.1821 11.6059
L16.2179 11.6773
"/>
            <path d="M16.2179 11.6773
L16.2179 11.7487
"/>
            <path d="M16.2179 11.7487
L16.1821 11.8559
"/>
            <path d="M16.1821 11.8559
L15.7536 12.2845
"/>
            <path d="M15.7536 12.2845
L16.2179 12.2845
"/>
            <path d="M16.4679 11.5345
L16.9321 11.5345
"/>
            <path d="M16.9321 11.5345
L16.6821 11.8202
"/>
            <path d="M16.6821 11.8202
L16.7893 11.8202
"/>
            <path d="M16.7893 11.8202
L16.8607 11.8559
"/>
            <path d="M16.8607 11.8559
L16.8964 11.8916
"/>
            <path d="M16.8964 11.8916
L16.9321 11.9630
"/>
            <path d="M16.9321 11.9630
L16.9321 12.1416
"/>
            <path d="M16.9321 12.1416
L16.8964 12.2130
"/>
            <path d="M16.8964 12.2130
L16.8607 12.2487
"/>
            <path d="M16.8607 12.2487
L16.7893 12.2845
"/>
            <path d="M16.7893 12.2845
L16.5750 12.2845
"/>
            <path d="M16.5750 12.2845
L16.5036 12.2487
"/>
            <path d="M16.5036 12.2487
L16.4679 12.2130
"/>
        </g>
        <text x="13.9179" y="11.1625"
              textLength="3.8321" font-size="1.0000" lengthAdjust="spacingAndGlyphs"
              text-anchor="middle" opacity="0">Rev. 4
        </text>
        <g class="stroked-text">
            <desc>Rev. 4</desc>
            <path d="M12.7214 11.1345
L12.4714 10.7773
"/>
            <path d="M12.2929 11.1345
L12.2929 10.3845
"/>
            <path d="M12.2929 10.3845
L12.5786 10.3845
"/>
            <path d="M12.5786 10.3845
L12.6500 10.4202
"/>
            <path d="M12.6500 10.4202
L12.6857 10.4559
"/>
            <path d="M12.6857 10.4559
L12.7214 10.5273
"/>
            <path d="M12.7214 10.5273
L12.7214 10.6345
"/>
            <path d="M12.7214 10.6345
L12.6857 10.7059
"/>
            <path d="M12.6857 10.7059
L12.6500 10.7416
"/>
            <path d="M12.6500 10.7416
L12.5786 10.7773
"/>
            <path d="M12.5786 10.7773
L12.2929 10.7773
"/>
            <path d="M13.3286 11.0987
L13.2571 11.1345
"/>
            <path d="M13.2571 11.1345
L13.1143 11.1345
"/>
            <path d="M13.1143 11.1345
L13.0429 11.0987
"/>
            <path d="M13.0429 11.0987
L13.0071 11.0273
"/>
            <path d="M13.0071 11.0273
L13.0071 10.7416
"/>
            <path d="M13.0071 10.7416
L13.0429 10.6702
"/>
            <path d="M13.0429 10.6702
L13.1143 10.6345
"/>
            <path d="M13.1143 10.6345
L13.2571 10.6345
"/>
            <path d="M13.2571 10.6345
L13.3286 10.6702
"/>
            <path d="M13.3286 10.6702
L13.3643 10.7416
"/>
            <path d="M13.3643 10.7416
L13.3643 10.8130
"/>
            <path d="M13.3643 10.8130
L13.0071 10.8845
"/>
            <path d="M13.6143 10.6345
L13.7929 11.1345
"/>
            <path d="M13.7929 11.1345
L13.9714 10.6345
"/>
            <path d="M14.2571 11.0630
L14.2929 11.0987
"/>
            <path d="M14.2929 11.0987
L14.2571 11.1345
"/>
            <path d="M14.2571 11.1345
L14.2214 11.0987
"/>
            <path d="M14.2214 11.0987
L14.2571 11.0630
"/>
            <path d="M14.2571 11.0630
L14.2571 11.1345
"/>
            <path d="M15.5071 10.6345
L15.5071 11.1345
"/>
            <path d="M15.3286 10.3487
L15.1500 10.8845
"/>
            <path d="M15.1500 10.8845
L15.6143 10.8845
"/>
        </g>
        <text x="52.7429" y="23.3500"
              textLength="1.2964" font-size="1.0000" lengthAdjust="spacingAndGlyphs"
              text-anchor="middle" opacity="0">I2
        </text>
        <g class="stroked-text">
            <desc>I2</desc>
            <path d="M52.3857 23.3238
L52.3857 22.6238
"/>
            <path d="M52.7071 22.6905
L52.7429 22.6572
"/>
            <path d="M52.7429 22.6572
L52.8143 22.6238
"/>
            <path d="M52.8143 22.6238
L52.9929 22.6238
"/>
            <path d="M52.9929 22.6238
L53.0643 22.6572
"/>
            <path d="M53.0643 22.6572
L53.1000 22.6905
"/>
            <path d="M53.1000 22.6905
L53.1357 22.7572
"/>
            <path d="M53.1357 22.7572
L53.1357 22.8238
"/>
            <path d="M53.1357 22.8238
L53.1000 22.9238
"/>
            <path d="M53.1000 22.9238
L52.6714 23.3238
"/>
            <path d="M52.6714 23.3238
L53.1357 23.3238
"/>
        </g>
        <text x="53.3929" y="25.8625"
              textLength="2.4036" font-size="1.0000" lengthAdjust="spacingAndGlyphs"
              text-anchor="middle" opacity="0">VCO
        </text>
        <g class="stroked-text">
            <desc>VCO</desc>
            <path d="M52.3750 25.1363
L52.6250 25.8363
"/>
            <path d="M52.6250 25.8363
L52.8750 25.1363
"/>
            <path d="M53.5536 25.7697
L53.5179 25.8030
"/>
            <path d="M53.5179 25.8030
L53.4107 25.8363
"/>
            <path d="M53.4107 25.8363
L53.3393 25.8363
"/>
            <path d="M53.3393 25.8363
L53.2321 25.8030
"/>
            <path d="M53.2321 25.8030
L53.1607 25.7363
"/>
            <path d="M53.1607 25.7363
L53.1250 25.6697
"/>
            <path d="M53.1250 25.6697
L53.0893 25.5363
"/>
            <path d="M53.0893 25.5363
L53.0893 25.4363
"/>
            <path d="M53.0893 25.4363
L53.1250 25.3030
"/>
            <path d="M53.1250 25.3030
L53.1607 25.2363
"/>
            <path d="M53.1607 25.2363
L53.2321 25.1697
"/>
            <path d="M53.2321 25.1697
L53.3393 25.1363
"/>
            <path d="M53.3393 25.1363
L53.4107 25.1363
"/>
            <path d="M53.4107 25.1363
L53.5179 25.1697
"/>
            <path d="M53.5179 25.1697
L53.5536 25.2030
"/>
            <path d="M54.0179 25.1363
L54.1607 25.1363
"/>
            <path d="M54.1607 25.1363
L54.2321 25.1697
"/>
            <path d="M54.2321 25.1697
L54.3036 25.2363
"/>
            <path d="M54.3036 25.2363
L54.3393 25.3697
"/>
            <path d="M54.3393 25.3697
L54.3393 25.6030
"/>
            <path d="M54.3393 25.6030
L54.3036 25.7363
"/>
            <path d="M54.3036 25.7363
L54.2321 25.8030
"/>
            <path d="M54.2321 25.8030
L54.1607 25.8363
"/>
            <path d="M54.1607 25.8363
L54.0179 25.8363
"/>
            <path d="M54.0179 25.8363
L53.9464 25.8030
"/>
            <path d="M53.9464 25.8030
L53.8750 25.7363
"/>
            <path d="M53.8750 25.7363
L53.8393 25.6030
"/>
            <path d="M53.8393 25.6030
L53.8393 25.3697
"/>
            <path d="M53.8393 25.3697
L53.8750 25.2363
"/>
            <path d="M53.8750 25.2363
L53.9464 25.1697
"/>
            <path d="M53.9464 25.1697
L54.0179 25.1363
"/>
        </g>
        <text x="15.2929" y="19.4500"
              textLength="2.5107" font-size="1.0000" lengthAdjust="spacingAndGlyphs"
              text-anchor="middle" opacity="0">GND
        </text>
        <g class="stroked-text">
            <desc>GND</desc>
            <path d="M14.7214 18.7077
L14.6500 18.6720
"/>
            <path d="M14.6500 18.6720
L14.5429 18.6720
"/>
            <path d="M14.5429 18.6720
L14.4357 18.7077
"/>
            <path d="M14.4357 18.7077
L14.3643 18.7791
"/>
            <path d="M14.3643 18.7791
L14.3286 18.8505
"/>
            <path d="M14.3286 18.8505
L14.2929 18.9934
"/>
            <path d="M14.2929 18.9934
L14.2929 19.1005
"/>
            <path d="M14.2929 19.1005
L14.3286 19.2434
"/>
            <path d="M14.3286 19.2434
L14.3643 19.3148
"/>
            <path d="M14.3643 19.3148
L14.4357 19.3863
"/>
            <path d="M14.4357 19.3863
L14.5429 19.4220
"/>
            <path d="M14.5429 19.4220
L14.6143 19.4220
"/>
            <path d="M14.6143 19.4220
L14.7214 19.3863
"/>
            <path d="M14.7214 19.3863
L14.7571 19.3505
"/>
            <path d="M14.7571 19.3505
L14.7571 19.1005
"/>
            <path d="M14.7571 19.1005
L14.6143 19.1005
"/>
            <path d="M15.0786 19.4220
L15.0786 18.6720
"/>
            <path d="M15.0786 18.6720
L15.5071 19.4220
"/>
            <path d="M15.5071 19.4220
L15.5071 18.6720
"/>
            <path d="M15.8643 19.4220
L15.8643 18.6720
"/>
            <path d="M15.8643 18.6720
L16.0429 18.6720
"/>
            <path d="M16.0429 18.6720
L16.1500 18.7077
"/>
            <path d="M16.1500 18.7077
L16.2214 18.7791
"/>
            <path d="M16.2214 18.7791
L16.2571 18.8505
"/>
            <path d="M16.2571 18.8505
L16.2929 18.9934
"/>
            <path d="M16.2929 18.9934
L16.2929 19.1005
"/>
            <path d="M16.2929 19.1005
L16.2571 19.2434
"/>
            <path d="M16.2571 19.2434
L16.2214 19.3148
"/>
            <path d="M16.2214 19.3148
L16.1500 19.3863
"/>
            <path d="M16.1500 19.3863
L16.0429 19.4220
"/>
            <path d="M16.0429 19.4220
L15.8643 19.4220
"/>
        </g>
        <text x="26.6429" y="38.0750"
              textLength="2.4036" font-size="1.0000" lengthAdjust="spacingAndGlyphs"
              text-anchor="middle" opacity="0">C15
        </text>
        <g class="stroked-text">
            <desc>C15</desc>
            <path d="M26.1607 37.9755
L26.1250 38.0112
"/>
            <path d="M26.1250 38.0112
L26.0179 38.0470
"/>
            <path d="M26.0179 38.0470
L25.9464 38.0470
"/>
            <path d="M25.9464 38.0470
L25.8393 38.0112
"/>
            <path d="M25.8393 38.0112
L25.7679 37.9398
"/>
            <path d="M25.7679 37.9398
L25.7321 37.8684
"/>
            <path d="M25.7321 37.8684
L25.6964 37.7255
"/>
            <path d="M25.6964 37.7255
L25.6964 37.6184
"/>
            <path d="M25.6964 37.6184
L25.7321 37.4755
"/>
            <path d="M25.7321 37.4755
L25.7679 37.4041
"/>
            <path d="M25.7679 37.4041
L25.8393 37.3327
"/>
            <path d="M25.8393 37.3327
L25.9464 37.2970
"/>
            <path d="M25.9464 37.2970
L26.0179 37.2970
"/>
            <path d="M26.0179 37.2970
L26.1250 37.3327
"/>
            <path d="M26.1250 37.3327
L26.1607 37.3684
"/>
            <path d="M26.8750 38.0470
L26.4464 38.0470
"/>
            <path d="M26.6607 38.0470
L26.6607 37.2970
"/>
            <path d="M26.6607 37.2970
L26.5893 37.4041
"/>
            <path d="M26.5893 37.4041
L26.5179 37.4755
"/>
            <path d="M26.5179 37.4755
L26.4464 37.5112
"/>
            <path d="M27.5536 37.2970
L27.1964 37.2970
"/>
            <path d="M27.1964 37.2970
L27.1607 37.6541
"/>
            <path d="M27.1607 37.6541
L27.1964 37.6184
"/>
            <path d="M27.1964 37.6184
L27.2679 37.5827
"/>
            <path d="M27.2679 37.5827
L27.4464 37.5827
"/>
            <path d="M27.4464 37.5827
L27.5179 37.6184
"/>
            <path d="M27.5179 37.6184
L27.5536 37.6541
"/>
            <path d="M27.5536 37.6541
L27.5893 37.7255
"/>
            <path d="M27.5893 37.7255
L27.5893 37.9041
"/>
            <path d="M27.5893 37.9041
L27.5536 37.9755
"/>
            <path d="M27.5536 37.9755
L27.5179 38.0112
"/>
            <path d="M27.5179 38.0112
L27.4464 38.0470
"/>
            <path d="M27.4464 38.0470
L27.2679 38.0470
"/>
            <path d="M27.2679 38.0470
L27.1964 38.0112
"/>
            <path d="M27.1964 38.0112
L27.1607 37.9755
"/>
        </g>
        <text x="36.9429" y="3.5500"
              textLength="2.4036" font-size="1.0000" lengthAdjust="spacingAndGlyphs"
              text-anchor="middle" opacity="0">C27
        </text>
        <g class="stroked-text">
            <desc>C27</desc>
            <path d="M36.4607 3.4505
L36.4250 3.4862
"/>
            <path d="M36.4250 3.4862
L36.3179 3.5220
"/>
            <path d="M36.3179 3.5220
L36.2464 3.5220
"/>
            <path d="M36.2464 3.5220
L36.1393 3.4862
"/>
            <path d="M36.1393 3.4862
L36.0679 3.4148
"/>
            <path d="M36.0679 3.4148
L36.0321 3.3434
"/>
            <path d="M36.0321 3.3434
L35.9964 3.2005
"/>
            <path d="M35.9964 3.2005
L35.9964 3.0934
"/>
            <path d="M35.9964 3.0934
L36.0321 2.9505
"/>
            <path d="M36.0321 2.9505
L36.0679 2.8791
"/>
            <path d="M36.0679 2.8791
L36.1393 2.8077
"/>
            <path d="M36.1393 2.8077
L36.2464 2.7720
"/>
            <path d="M36.2464 2.7720
L36.3179 2.7720
"/>
            <path d="M36.3179 2.7720
L36.4250 2.8077
"/>
            <path d="M36.4250 2.8077
L36.4607 2.8434
"/>
            <path d="M36.7464 2.8434
L36.7821 2.8077
"/>
            <path d="M36.7821 2.8077
L36.8536 2.7720
"/>
            <path d="M36.8536 2.7720
L37.0321 2.7720
"/>
            <path d="M37.0321 2.7720
L37.1036 2.8077
"/>
            <path d="M37.1036 2.8077
L37.1393 2.8434
"/>
            <path d="M37.1393 2.8434
L37.1750 2.9148
"/>
            <path d="M37.1750 2.9148
L37.1750 2.9863
"/>
            <path d="M37.1750 2.9863
L37.1393 3.0934
"/>
            <path d="M37.1393 3.0934
L36.7107 3.5220
"/>
            <path d="M36.7107 3.5220
L37.1750 3.5220
"/>
            <path d="M37.4250 2.7720
L37.9250 2.7720
"/>
            <path d="M37.9250 2.7720
L37.6036 3.5220
"/>
        </g>
        <text x="38.4179" y="7.5250"
              textLength="2.4036" font-size="1.0000" lengthAdjust="spacingAndGlyphs"
              text-anchor="middle" opacity="0">R20
        </text>
        <g class="stroked-text">
            <desc>R20</desc>
            <path d="M37.9357 7.4970
L37.6857 7.1398
"/>
            <path d="M37.5071 7.4970
L37.5071 6.7470
"/>
            <path d="M37.5071 6.7470
L37.7929 6.7470
"/>
            <path d="M37.7929 6.7470
L37.8643 6.7827
"/>
            <path d="M37.8643 6.7827
L37.9000 6.8184
"/>
            <path d="M37.9000 6.8184
L37.9357 6.8898
"/>
            <path d="M37.9357 6.8898
L37.9357 6.9970
"/>
            <path d="M37.9357 6.9970
L37.9000 7.0684
"/>
            <path d="M37.9000 7.0684
L37.8643 7.1041
"/>
            <path d="M37.8643 7.1041
L37.7929 7.1398
"/>
            <path d="M37.7929 7.1398
L37.5071 7.1398
"/>
            <path d="M38.2214 6.8184
L38.2571 6.7827
"/>
            <path d="M38.2571 6.7827
L38.3286 6.7470
"/>
            <path d="M38.3286 6.7470
L38.5071 6.7470
"/>
            <path d="M38.5071 6.7470
L38.5786 6.7827
"/>
            <path d="M38.5786 6.7827
L38.6143 6.8184
"/>
            <path d="M38.6143 6.8184
L38.6500 6.8898
"/>
            <path d="M38.6500 6.8898
L38.6500 6.9612
"/>
            <path d="M38.6500 6.9612
L38.6143 7.0684
"/>
            <path d="M38.6143 7.0684
L38.1857 7.4970
"/>
            <path d="M38.1857 7.4970
L38.6500 7.4970
"/>
            <path d="M39.1143 6.7470
L39.1857 6.7470
"/>
            <path d="M39.1857 6.7470
L39.2571 6.7827
"/>
            <path d="M39.2571 6.7827
L39.2929 6.8184
"/>
            <path d="M39.2929 6.8184
L39.3286 6.8898
"/>
            <path d="M39.3286 6.8898
L39.3643 7.0327
"/>
            <path d="M39.3643 7.0327
L39.3643 7.2112
"/>
            <path d="M39.3643 7.2112
L39.3286 7.3541
"/>
            <path d="M39.3286 7.3541
L39.2929 7.4255
"/>
            <path d="M39.2929 7.4255
L39.2571 7.4612
"/>
            <path d="M39.2571 7.4612
L39.1857 7.4970
"/>
            <path d="M39.1857 7.4970
L39.1143 7.4970
"/>
            <path d="M39.1143 7.4970
L39.0429 7.4612
"/>
            <path d="M39.0429 7.4612
L39.0071 7.4255
"/>
            <path d="M39.0071 7.4255
L38.9714 7.3541
"/>
            <path d="M38.9714 7.3541
L38.9357 7.2112
"/>
            <path d="M38.9357 7.2112
L38.9357 7.0327
"/>
            <path d="M38.9357 7.0327
L38.9714 6.8898
"/>
            <path d="M38.9714 6.8898
L39.0071 6.8184
"/>
            <path d="M39.0071 6.8184
L39.0429 6.7827
"/>
            <path d="M39.0429 6.7827
L39.1143 6.7470
"/>
        </g>
        <text x="31.5429" y="3.5500"
              textLength="2.4036" font-size="1.0000" lengthAdjust="spacingAndGlyphs"
              text-anchor="middle" opacity="0">C24
        </text>
        <g class="stroked-text">
            <desc>C24</desc>
            <path d="M31.0607 3.4505
L31.0250 3.4862
"/>
            <path d="M31.0250 3.4862
L30.9179 3.5220
"/>
            <path d="M30.9179 3.5220
L30.8464 3.5220
"/>
            <path d="M30.8464 3.5220
L30.7393 3.4862
"/>
            <path d="M30.7393 3.4862
L30.6679 3.4148
"/>
            <path d="M30.6679 3.4148
L30.6321 3.3434
"/>
            <path d="M30.6321 3.3434
L30.5964 3.2005
"/>
            <path d="M30.5964 3.2005
L30.5964 3.0934
"/>
            <path d="M30.5964 3.0934
L30.6321 2.9505
"/>
            <path d="M30.6321 2.9505
L30.6679 2.8791
"/>
            <path d="M30.6679 2.8791
L30.7393 2.8077
"/>
            <path d="M30.7393 2.8077
L30.8464 2.7720
"/>
            <path d="M30.8464 2.7720
L30.9179 2.7720
"/>
            <path d="M30.9179 2.7720
L31.0250 2.8077
"/>
            <path d="M31.0250 2.8077
L31.0607 2.8434
"/>
            <path d="M31.3464 2.8434
L31.3821 2.8077
"/>
            <path d="M31.3821 2.8077
L31.4536 2.7720
"/>
            <path d="M31.4536 2.7720
L31.6321 2.7720
"/>
            <path d="M31.6321 2.7720
L31.7036 2.8077
"/>
            <path d="M31.7036 2.8077
L31.7393 2.8434
"/>
            <path d="M31.7393 2.8434
L31.7750 2.9148
"/>
            <path d="M31.7750 2.9148
L31.7750 2.9863
"/>
            <path d="M31.7750 2.9863
L31.7393 3.0934
"/>
            <path d="M31.7393 3.0934
L31.3107 3.5220
"/>
            <path d="M31.3107 3.5220
L31.7750 3.5220
"/>
            <path d="M32.4179 3.0220
L32.4179 3.5220
"/>
            <path d="M32.2393 2.7363
L32.0607 3.2720
"/>
            <path d="M32.0607 3.2720
L32.5250 3.2720
"/>
        </g>
        <text x="17.4929" y="35.1750"
              textLength="2.4036" font-size="1.0000" lengthAdjust="spacingAndGlyphs"
              text-anchor="middle" opacity="0">C12
        </text>
        <g class="stroked-text">
            <desc>C12</desc>
            <path d="M17.0107 35.0755
L16.9750 35.1112
"/>
            <path d="M16.9750 35.1112
L16.8679 35.1470
"/>
            <path d="M16.8679 35.1470
L16.7964 35.1470
"/>
            <path d="M16.7964 35.1470
L16.6893 35.1112
"/>
            <path d="M16.6893 35.1112
L16.6179 35.0398
"/>
            <path d="M16.6179 35.0398
L16.5821 34.9684
"/>
            <path d="M16.5821 34.9684
L16.5464 34.8255
"/>
            <path d="M16.5464 34.8255
L16.5464 34.7184
"/>
            <path d="M16.5464 34.7184
L16.5821 34.5755
"/>
            <path d="M16.5821 34.5755
L16.6179 34.5041
"/>
            <path d="M16.6179 34.5041
L16.6893 34.4327
"/>
            <path d="M16.6893 34.4327
L16.7964 34.3970
"/>
            <path d="M16.7964 34.3970
L16.8679 34.3970
"/>
            <path d="M16.8679 34.3970
L16.9750 34.4327
"/>
            <path d="M16.9750 34.4327
L17.0107 34.4684
"/>
            <path d="M17.7250 35.1470
L17.2964 35.1470
"/>
            <path d="M17.5107 35.1470
L17.5107 34.3970
"/>
            <path d="M17.5107 34.3970
L17.4393 34.5041
"/>
            <path d="M17.4393 34.5041
L17.3679 34.5755
"/>
            <path d="M17.3679 34.5755
L17.2964 34.6112
"/>
            <path d="M18.0107 34.4684
L18.0464 34.4327
"/>
            <path d="M18.0464 34.4327
L18.1179 34.3970
"/>
            <path d="M18.1179 34.3970
L18.2964 34.3970
"/>
            <path d="M18.2964 34.3970
L18.3679 34.4327
"/>
            <path d="M18.3679 34.4327
L18.4036 34.4684
"/>
            <path d="M18.4036 34.4684
L18.4393 34.5398
"/>
            <path d="M18.4393 34.5398
L18.4393 34.6112
"/>
            <path d="M18.4393 34.6112
L18.4036 34.7184
"/>
            <path d="M18.4036 34.7184
L17.9750 35.1470
"/>
            <path d="M17.9750 35.1470
L18.4393 35.1470
"/>
        </g>
        <text x="34.2429" y="37.5750"
              textLength="1.5107" font-size="1.0000" lengthAdjust="spacingAndGlyphs"
              text-anchor="middle" opacity="0">J3
        </text>
        <g class="stroked-text">
            <desc>J3</desc>
            <path d="M33.9929 36.7970
L33.9929 37.3327
"/>
            <path d="M33.9929 37.3327
L33.9571 37.4398
"/>
            <path d="M33.9571 37.4398
L33.8857 37.5112
"/>
            <path d="M33.8857 37.5112
L33.7786 37.5470
"/>
            <path d="M33.7786 37.5470
L33.7071 37.5470
"/>
            <path d="M34.2786 36.7970
L34.7429 36.7970
"/>
            <path d="M34.7429 36.7970
L34.4929 37.0827
"/>
            <path d="M34.4929 37.0827
L34.6000 37.0827
"/>
            <path d="M34.6000 37.0827
L34.6714 37.1184
"/>
            <path d="M34.6714 37.1184
L34.7071 37.1541
"/>
            <path d="M34.7071 37.1541
L34.7429 37.2255
"/>
            <path d="M34.7429 37.2255
L34.7429 37.4041
"/>
            <path d="M34.7429 37.4041
L34.7071 37.4755
"/>
            <path d="M34.7071 37.4755
L34.6714 37.5112
"/>
            <path d="M34.6714 37.5112
L34.6000 37.5470
"/>
            <path d="M34.6000 37.5470
L34.3857 37.5470
"/>
            <path d="M34.3857 37.5470
L34.3143 37.5112
"/>
            <path d="M34.3143 37.5112
L34.2786 37.4755
"/>
        </g>
        <text x="55.7304" y="0.7250"
              textLength="0.3750" font-size="1.0000" lengthAdjust="spacingAndGlyphs"
              text-anchor="middle" opacity="0"></text>
        <g class="stroked-text">
            <desc></desc>
        </g>
        <text x="21.7929" y="35.2000"
              textLength="1.7250" font-size="1.0000" lengthAdjust="spacingAndGlyphs"
              text-anchor="middle" opacity="0">U4
        </text>
        <g class="stroked-text">
            <desc>U4</desc>
            <path d="M21.2214 34.4220
L21.2214 35.0291
"/>
            <path d="M21.2214 35.0291
L21.2571 35.1005
"/>
            <path d="M21.2571 35.1005
L21.2929 35.1362
"/>
            <path d="M21.2929 35.1362
L21.3643 35.1720
"/>
            <path d="M21.3643 35.1720
L21.5071 35.1720
"/>
            <path d="M21.5071 35.1720
L21.5786 35.1362
"/>
            <path d="M21.5786 35.1362
L21.6143 35.1005
"/>
            <path d="M21.6143 35.1005
L21.6500 35.0291
"/>
            <path d="M21.6500 35.0291
L21.6500 34.4220
"/>
            <path d="M22.3286 34.6720
L22.3286 35.1720
"/>
            <path d="M22.1500 34.3862
L21.9714 34.9220
"/>
            <path d="M21.9714 34.9220
L22.4357 34.9220
"/>
        </g>
        <text x="50.9429" y="38.2250"
              textLength="2.4036" font-size="1.0000" lengthAdjust="spacingAndGlyphs"
              text-anchor="middle" opacity="0">C11
        </text>
        <g class="stroked-text">
            <desc>C11</desc>
            <path d="M50.4607 38.1255
L50.4250 38.1612
"/>
            <path d="M50.4250 38.1612
L50.3179 38.1970
"/>
            <path d="M50.3179 38.1970
L50.2464 38.1970
"/>
            <path d="M50.2464 38.1970
L50.1393 38.1612
"/>
            <path d="M50.1393 38.1612
L50.0679 38.0898
"/>
            <path d="M50.0679 38.0898
L50.0321 38.0184
"/>
            <path d="M50.0321 38.0184
L49.9964 37.8755
"/>
            <path d="M49.9964 37.8755
L49.9964 37.7684
"/>
            <path d="M49.9964 37.7684
L50.0321 37.6255
"/>
            <path d="M50.0321 37.6255
L50.0679 37.5541
"/>
            <path d="M50.0679 37.5541
L50.1393 37.4827
"/>
            <path d="M50.1393 37.4827
L50.2464 37.4470
"/>
            <path d="M50.2464 37.4470
L50.3179 37.4470
"/>
            <path d="M50.3179 37.4470
L50.4250 37.4827
"/>
            <path d="M50.4250 37.4827
L50.4607 37.5184
"/>
            <path d="M51.1750 38.1970
L50.7464 38.1970
"/>
            <path d="M50.9607 38.1970
L50.9607 37.4470
"/>
            <path d="M50.9607 37.4470
L50.8893 37.5541
"/>
            <path d="M50.8893 37.5541
L50.8179 37.6255
"/>
            <path d="M50.8179 37.6255
L50.7464 37.6612
"/>
            <path d="M51.8893 38.1970
L51.4607 38.1970
"/>
            <path d="M51.6750 38.1970
L51.6750 37.4470
"/>
            <path d="M51.6750 37.4470
L51.6036 37.5541
"/>
            <path d="M51.6036 37.5541
L51.5321 37.6255
"/>
            <path d="M51.5321 37.6255
L51.4607 37.6612
"/>
        </g>
        <text x="12.7304" y="33.7250"
              textLength="0.3750" font-size="1.0000" lengthAdjust="spacingAndGlyphs"
              text-anchor="middle" opacity="0"></text>
        <g class="stroked-text">
            <desc></desc>
        </g>
        <text x="30.0679" y="7.5250"
              textLength="2.4036" font-size="1.0000" lengthAdjust="spacingAndGlyphs"
              text-anchor="middle" opacity="0">R21
        </text>
        <g class="stroked-text">
            <desc>R21</desc>
            <path d="M29.5857 7.4970
L29.3357 7.1398
"/>
            <path d="M29.1571 7.4970
L29.1571 6.7470
"/>
            <path d="M29.1571 6.7470
L29.4429 6.7470
"/>
            <path d="M29.4429 6.7470
L29.5143 6.7827
"/>
            <path d="M29.5143 6.7827
L29.5500 6.8184
"/>
            <path d="M29.5500 6.8184
L29.5857 6.8898
"/>
            <path d="M29.5857 6.8898
L29.5857 6.9970
"/>
            <path d="M29.5857 6.9970
L29.5500 7.0684
"/>
            <path d="M29.5500 7.0684
L29.5143 7.1041
"/>
            <path d="M29.5143 7.1041
L29.4429 7.1398
"/>
            <path d="M29.4429 7.1398
L29.1571 7.1398
"/>
            <path d="M29.8714 6.8184
L29.9071 6.7827
"/>
            <path d="M29.9071 6.7827
L29.9786 6.7470
"/>
            <path d="M29.9786 6.7470
L30.1571 6.7470
"/>
            <path d="M30.1571 6.7470
L30.2286 6.7827
"/>
            <path d="M30.2286 6.7827
L30.2643 6.8184
"/>
            <path d="M30.2643 6.8184
L30.3000 6.8898
"/>
            <path d="M30.3000 6.8898
L30.3000 6.9612
"/>
            <path d="M30.3000 6.9612
L30.2643 7.0684
"/>
            <path d="M30.2643 7.0684
L29.8357 7.4970
"/>
            <path d="M29.8357 7.4970
L30.3000 7.4970
"/>
            <path d="M31.0143 7.4970
L30.5857 7.4970
"/>
            <path d="M30.8000 7.4970
L30.8000 6.7470
"/>
            <path d="M30.8000 6.7470
L30.7286 6.8541
"/>
            <path d="M30.7286 6.8541
L30.6571 6.9255
"/>
            <path d="M30.6571 6.9255
L30.5857 6.9612
"/>
        </g>
        <text x="34.2429" y="2.3250"
              textLength="1.7250" font-size="1.0000" lengthAdjust="spacingAndGlyphs"
              text-anchor="middle" opacity="0">U8
        </text>
        <g class="stroked-text">
            <desc>U8</desc>
            <path d="M33.6714 1.5470
L33.6714 2.1541
"/>
            <path d="M33.6714 2.1541
L33.7071 2.2255
"/>
            <path d="M33.7071 2.2255
L33.7429 2.2612
"/>
            <path d="M33.7429 2.2612
L33.8143 2.2970
"/>
            <path d="M33.8143 2.2970
L33.9571 2.2970
"/>
            <path d="M33.9571 2.2970
L34.0286 2.2612
"/>
            <path d="M34.0286 2.2612
L34.0643 2.2255
"/>
            <path d="M34.0643 2.2255
L34.1000 2.1541
"/>
            <path d="M34.1000 2.1541
L34.1000 1.5470
"/>
            <path d="M34.5643 1.8684
L34.4929 1.8327
"/>
            <path d="M34.4929 1.8327
L34.4571 1.7970
"/>
            <path d="M34.4571 1.7970
L34.4214 1.7255
"/>
            <path d="M34.4214 1.7255
L34.4214 1.6898
"/>
            <path d="M34.4214 1.6898
L34.4571 1.6184
"/>
            <path d="M34.4571 1.6184
L34.4929 1.5827
"/>
            <path d="M34.4929 1.5827
L34.5643 1.5470
"/>
            <path d="M34.5643 1.5470
L34.7071 1.5470
"/>
            <path d="M34.7071 1.5470
L34.7786 1.5827
"/>
            <path d="M34.7786 1.5827
L34.8143 1.6184
"/>
            <path d="M34.8143 1.6184
L34.8500 1.6898
"/>
            <path d="M34.8500 1.6898
L34.8500 1.7255
"/>
            <path d="M34.8500 1.7255
L34.8143 1.7970
"/>
            <path d="M34.8143 1.7970
L34.7786 1.8327
"/>
            <path d="M34.7786 1.8327
L34.7071 1.8684
"/>
            <path d="M34.7071 1.8684
L34.5643 1.8684
"/>
            <path d="M34.5643 1.8684
L34.4929 1.9041
"/>
            <path d="M34.4929 1.9041
L34.4571 1.9398
"/>
            <path d="M34.4571 1.9398
L34.4214 2.0112
"/>
            <path d="M34.4214 2.0112
L34.4214 2.1541
"/>
            <path d="M34.4214 2.1541
L34.4571 2.2255
"/>
            <path d="M34.4571 2.2255
L34.4929 2.2612
"/>
            <path d="M34.4929 2.2612
L34.5643 2.2970
"/>
            <path d="M34.5643 2.2970
L34.7071 2.2970
"/>
            <path d="M34.7071 2.2970
L34.7786 2.2612
"/>
            <path d="M34.7786 2.2612
L34.8143 2.2255
"/>
            <path d="M34.8143 2.2255
L34.8500 2.1541
"/>
            <path d="M34.8500 2.1541
L34.8500 2.0112
"/>
            <path d="M34.8500 2.0112
L34.8143 1.9398
"/>
            <path d="M34.8143 1.9398
L34.7786 1.9041
"/>
            <path d="M34.7786 1.9041
L34.7071 1.8684
"/>
        </g>
        <text x="55.7304" y="33.7250"
              textLength="0.3750" font-size="1.0000" lengthAdjust="spacingAndGlyphs"
              text-anchor="middle" opacity="0"></text>
        <g class="stroked-text">
            <desc></desc>
        </g>
        <text x="42.0429" y="35.2250"
              textLength="2.4036" font-size="1.0000" lengthAdjust="spacingAndGlyphs"
              text-anchor="middle" opacity="0">C10
        </text>
        <g class="stroked-text">
            <desc>C10</desc>
            <path d="M41.5607 35.1255
L41.5250 35.1612
"/>
            <path d="M41.5250 35.1612
L41.4179 35.1970
"/>
            <path d="M41.4179 35.1970
L41.3464 35.1970
"/>
            <path d="M41.3464 35.1970
L41.2393 35.1612
"/>
            <path d="M41.2393 35.1612
L41.1679 35.0898
"/>
            <path d="M41.1679 35.0898
L41.1321 35.0184
"/>
            <path d="M41.1321 35.0184
L41.0964 34.8755
"/>
            <path d="M41.0964 34.8755
L41.0964 34.7684
"/>
            <path d="M41.0964 34.7684
L41.1321 34.6255
"/>
            <path d="M41.1321 34.6255
L41.1679 34.5541
"/>
            <path d="M41.1679 34.5541
L41.2393 34.4827
"/>
            <path d="M41.2393 34.4827
L41.3464 34.4470
"/>
            <path d="M41.3464 34.4470
L41.4179 34.4470
"/>
            <path d="M41.4179 34.4470
L41.5250 34.4827
"/>
            <path d="M41.5250 34.4827
L41.5607 34.5184
"/>
            <path d="M42.2750 35.1970
L41.8464 35.1970
"/>
            <path d="M42.0607 35.1970
L42.0607 34.4470
"/>
            <path d="M42.0607 34.4470
L41.9893 34.5541
"/>
            <path d="M41.9893 34.5541
L41.9179 34.6255
"/>
            <path d="M41.9179 34.6255
L41.8464 34.6612
"/>
            <path d="M42.7393 34.4470
L42.8107 34.4470
"/>
            <path d="M42.8107 34.4470
L42.8821 34.4827
"/>
            <path d="M42.8821 34.4827
L42.9179 34.5184
"/>
            <path d="M42.9179 34.5184
L42.9536 34.5898
"/>
            <path d="M42.9536 34.5898
L42.9893 34.7327
"/>
            <path d="M42.9893 34.7327
L42.9893 34.9112
"/>
            <path d="M42.9893 34.9112
L42.9536 35.0541
"/>
            <path d="M42.9536 35.0541
L42.9179 35.1255
"/>
            <path d="M42.9179 35.1255
L42.8821 35.1612
"/>
            <path d="M42.8821 35.1612
L42.8107 35.1970
"/>
            <path d="M42.8107 35.1970
L42.7393 35.1970
"/>
            <path d="M42.7393 35.1970
L42.6679 35.1612
"/>
            <path d="M42.6679 35.1612
L42.6321 35.1255
"/>
            <path d="M42.6321 35.1255
L42.5964 35.0541
"/>
            <path d="M42.5964 35.0541
L42.5607 34.9112
"/>
            <path d="M42.5607 34.9112
L42.5607 34.7327
"/>
            <path d="M42.5607 34.7327
L42.5964 34.5898
"/>
            <path d="M42.5964 34.5898
L42.6321 34.5184
"/>
            <path d="M42.6321 34.5184
L42.6679 34.4827
"/>
            <path d="M42.6679 34.4827
L42.7393 34.4470
"/>
        </g>
        <text x="46.4429" y="35.2750"
              textLength="1.7250" font-size="1.0000" lengthAdjust="spacingAndGlyphs"
              text-anchor="middle" opacity="0">U3
        </text>
        <g class="stroked-text">
            <desc>U3</desc>
            <path d="M45.8714 34.4970
L45.8714 35.1041
"/>
            <path d="M45.8714 35.1041
L45.9071 35.1755
"/>
            <path d="M45.9071 35.1755
L45.9429 35.2112
"/>
            <path d="M45.9429 35.2112
L46.0143 35.2470
"/>
            <path d="M46.0143 35.2470
L46.1571 35.2470
"/>
            <path d="M46.1571 35.2470
L46.2286 35.2112
"/>
            <path d="M46.2286 35.2112
L46.2643 35.1755
"/>
            <path d="M46.2643 35.1755
L46.3000 35.1041
"/>
            <path d="M46.3000 35.1041
L46.3000 34.4970
"/>
            <path d="M46.5857 34.4970
L47.0500 34.4970
"/>
            <path d="M47.0500 34.4970
L46.8000 34.7827
"/>
            <path d="M46.8000 34.7827
L46.9071 34.7827
"/>
            <path d="M46.9071 34.7827
L46.9786 34.8184
"/>
            <path d="M46.9786 34.8184
L47.0143 34.8541
"/>
            <path d="M47.0143 34.8541
L47.0500 34.9255
"/>
            <path d="M47.0500 34.9255
L47.0500 35.1041
"/>
            <path d="M47.0500 35.1041
L47.0143 35.1755
"/>
            <path d="M47.0143 35.1755
L46.9786 35.2112
"/>
            <path d="M46.9786 35.2112
L46.9071 35.2470
"/>
            <path d="M46.9071 35.2470
L46.6929 35.2470
"/>
            <path d="M46.6929 35.2470
L46.6214 35.2112
"/>
            <path d="M46.6214 35.2112
L46.5857 35.1755
"/>
        </g>
        <text x="12.7304" y="0.7250"
              textLength="0.3750" font-size="1.0000" lengthAdjust="spacingAndGlyphs"
              text-anchor="middle" opacity="0"></text>
        <g class="stroked-text">
            <desc></desc>
        </g>
        <text x="28.7179" y="16.7000"
              textLength="1.7250" font-size="1.0000" lengthAdjust="spacingAndGlyphs"
              text-anchor="middle" opacity="0">U5
        </text>
        <g class="stroked-text">
            <desc>U5</desc>
            <path d="M28.1464 15.9220
L28.1464 16.5291
"/>
            <path d="M28.1464 16.5291
L28.1821 16.6005
"/>
            <path d="M28.1821 16.6005
L28.2179 16.6363
"/>
            <path d="M28.2179 16.6363
L28.2893 16.6720
"/>
            <path d="M28.2893 16.6720
L28.4321 16.6720
"/>
            <path d="M28.4321 16.6720
L28.5036 16.6363
"/>
            <path d="M28.5036 16.6363
L28.5393 16.6005
"/>
            <path d="M28.5393 16.6005
L28.5750 16.5291
"/>
            <path d="M28.5750 16.5291
L28.5750 15.9220
"/>
            <path d="M29.2893 15.9220
L28.9321 15.9220
"/>
            <path d="M28.9321 15.9220
L28.8964 16.2791
"/>
            <path d="M28.8964 16.2791
L28.9321 16.2434
"/>
            <path d="M28.9321 16.2434
L29.0036 16.2077
"/>
            <path d="M29.0036 16.2077
L29.1821 16.2077
"/>
            <path d="M29.1821 16.2077
L29.2536 16.2434
"/>
            <path d="M29.2536 16.2434
L29.2893 16.2791
"/>
            <path d="M29.2893 16.2791
L29.3250 16.3505
"/>
            <path d="M29.3250 16.3505
L29.3250 16.5291
"/>
            <path d="M29.3250 16.5291
L29.2893 16.6005
"/>
            <path d="M29.2893 16.6005
L29.2536 16.6363
"/>
            <path d="M29.2536 16.6363
L29.1821 16.6720
"/>
            <path d="M29.1821 16.6720
L29.0036 16.6720
"/>
            <path d="M29.0036 16.6720
L28.9321 16.6363
"/>
            <path d="M28.9321 16.6363
L28.8964 16.6005
"/>
        </g>
    </g>
    <g style="fill:#000000; fill-opacity:0.0;
stroke:#000000; stroke-width:0.1200; stroke-opacity:1; 
stroke-linecap:round; stroke-linejoin:round;">
        <path d="M26.9029 35.4344
L26.9029 35.7156
"/>
        <path d="M25.8829 35.4344
L25.8829 35.7156
"/>
        <path d="M36.4329 5.2906
L36.4329 5.0094
"/>
        <path d="M37.4529 5.2906
L37.4529 5.0094
"/>
        <path d="M38.9404 4.9127
L38.9404 5.3873
"/>
        <path d="M37.8954 4.9127
L37.8954 5.3873
"/>
        <path d="M32.0529 5.0094
L32.0529 5.2906
"/>
        <path d="M31.0329 5.0094
L31.0329 5.2906
"/>
        <path d="M21.9148 13.4400
L22.1959 13.4400
"/>
        <path d="M21.9148 14.4600
L22.1959 14.4600
"/>
        <path d="M16.9829 32.7406
L16.9829 32.4594
"/>
        <path d="M18.0029 32.7406
L18.0029 32.4594
"/>
        <path d="M29.6479 36.3500
L29.6479 37.2500
"/>
        <path d="M29.6479 39.9500
L29.6479 42.6800
"/>
        <path d="M29.6479 42.6800
L38.8379 42.6800
"/>
        <path d="M29.7679 33.2700
L38.7179 33.2700
"/>
        <path d="M38.8379 36.3500
L38.8379 37.2500
"/>
        <path d="M38.8379 39.9500
L38.8379 42.6800
"/>
        <path d="M21.9148 14.7150
L22.1959 14.7150
"/>
        <path d="M21.9148 15.7350
L22.1959 15.7350
"/>
        <path d="M21.9148 17.2525
L22.1959 17.2525
"/>
        <path d="M21.9148 18.2725
L22.1959 18.2725
"/>
        <path d="M21.9148 15.9900
L22.1959 15.9900
"/>
        <path d="M21.9148 17.0100
L22.1959 17.0100
"/>
        <path d="M51.4529 35.4594
L51.4529 35.7406
"/>
        <path d="M50.4329 35.4594
L50.4329 35.7406
"/>
        <path d="M45.4523 26.1400
L45.7334 26.1400
"/>
        <path d="M45.4523 27.1600
L45.7334 27.1600
"/>
        <path d="M30.5904 4.9127
L30.5904 5.3873
"/>
        <path d="M29.5454 4.9127
L29.5454 5.3873
"/>
        <path d="M35.8529 3.7900
L35.8529 3.9650
"/>
        <path d="M35.1779 6.5100
L35.8529 6.5100
"/>
        <path d="M35.1779 3.7900
L35.8529 3.7900
"/>
        <path d="M33.3079 6.5100
L32.6329 6.5100
"/>
        <path d="M33.3079 3.7900
L32.6329 3.7900
"/>
        <path d="M32.6329 6.5100
L32.6329 6.3350
"/>
        <path d="M32.6329 3.7900
L32.6329 3.9650
"/>
        <path d="M41.5329 32.6906
L41.5329 32.4094
"/>
        <path d="M42.5529 32.6906
L42.5529 32.4094
"/>
        <path d="M22.1959 13.1850
L21.9148 13.1850
"/>
        <path d="M22.1959 12.1650
L21.9148 12.1650
"/>
        <path d="M25.0929 8.8000
L26.1929 8.8000
"/>
        <path d="M25.1429 28.3000
L25.1429 27.3000
"/>
        <path d="M25.1429 28.3000
L26.1429 28.3000
"/>
        <path d="M25.2929 8.9500
L25.2929 9.4500
"/>
        <path d="M25.2929 27.3000
L25.2929 28.1500
"/>
        <path d="M25.2929 28.1500
L26.5929 28.1500
"/>
        <path d="M43.2929 8.9500
L25.2929 8.9500
"/>
        <path d="M43.2929 8.9500
L43.2929 9.4500
"/>
        <path d="M43.2929 27.4000
L43.2929 28.1500
"/>
        <path d="M43.2929 28.1500
L41.9429 28.1500
"/>
        <path d="M43.4429 8.8000
L42.4429 8.8000
"/>
        <path d="M43.4429 9.4500
L43.4429 8.8000
"/>
        <path d="M43.4429 27.4000
L43.4429 28.3000
"/>
        <path d="M43.4429 28.3000
L42.4429 28.3000
"/>
        <g>
        </g>
        <g>
        </g>
        <g>
        </g>
        <g>
        </g>
        <g>
        </g>
        <g>
        </g>
        <g>
        </g>
        <g>
        </g>
        <g>
        </g>
        <g>
        </g>
        <g>
        </g>
        <g>
        </g>
        <g>
        </g>
        <g>
        </g>
        <g>
        </g>
        <g>
        </g>
        <g>
        </g>
        <g>
        </g>
        <g>
        </g>
        <g>
        </g>
        <g>
        </g>
        <g>
        </g>
        <g>
        </g>
        <g>
        </g>
        <g>
        </g>
        <g>
        </g>
        <g>
        </g>
        <g>
        </g>
        <g>
        </g>
        <g>
        </g>
        <g>
        </g>
        <g>
        </g>
        <g>
        </g>
        <g>
        </g>
        <g>
        </g>
        <g>
        </g>
        <g>
        </g>
        <g>
        </g>
        <g>
        </g>
        <g>
        </g>
        <g>
        </g>
        <g>
        </g>
        <g>
        </g>
        <g>
        </g>
        <g>
        </g>
        <g>
        </g>
        <g>
        </g>
        <g>
        </g>
        <g>
        </g>
        <g>
        </g>
        <g>
        </g>
        <g>
        </g>
        <g>
        </g>
        <g>
        </g>
        <g>
        </g>
        <g>
        </g>
        <g>
        </g>
        <g>
        </g>
        <g>
        </g>
        <g>
        </g>
        <g>
        </g>
        <g>
        </g>
        <g>
        </g>
        <g>
        </g>
        <g>
        </g>
        <g>
        </g>
        <g>
        </g>
        <g>
        </g>
        <g>
        </g>
        <g>
        </g>
        <g>
        </g>
        <g>
        </g>
        <g>
        </g>
        <g>
        </g>
        <g>
        </g>
        <g>
        </g>
        <g>
        </g>
        <g>
        </g>
        <g>
        </g>
        <g>
        </g>
        <g>
        </g>
        <g>
        </g>
        <g>
        </g>
        <g>
        </g>
    </g>
    <g style="fill:#000000; fill-opacity:0.0;
stroke:#000000; stroke-width:0.1200; stroke-opacity:1; 
stroke-linecap:round; stroke-linejoin:round;">
    </g>
    <g style="fill:#000000; fill-opacity:0.0;
stroke:#000000; stroke-width:0.1000; stroke-opacity:1; 
stroke-linecap:round; stroke-linejoin:round;">
        <path d="M12.7304 0.0500 A3.5000 3.5000 0.0 0 0 9.2304 3.5500"/>
        <path d="M55.7304 40.0500
L12.7304 40.0500
"/>
        <path d="M59.2304 3.5500
L59.2304 36.5500
"/>
        <path d="M9.2304 36.5500 A3.5000 3.5000 0.0 0 0 12.7304 40.0500"/>
        <path d="M59.2304 3.5500 A3.5000 3.5000 0.0 0 0 55.7304 0.0500"/>
        <path d="M12.7304 0.0500
L55.7304 0.0500
"/>
        <path d="M9.2304 36.5500
L9.2304 3.5500
"/>
        <path d="M55.7304 40.0500 A3.5000 3.5000 0.0 0 0 59.2304 36.5500"/>
        <g>
        </g>
        <g>
        </g>
        <g>
        </g>
        <g>
        </g>
        <g>
        </g>
        <g>
        </g>
        <g>
        </g>
        <g>
        </g>
        <g>
        </g>
        <g>
        </g>
        <g>
        </g>
        <g>
        </g>
        <g>
        </g>
        <g>
        </g>
        <g>
        </g>
        <g>
        </g>
        <g>
        </g>
        <g>
        </g>
        <g>
        </g>
        <g>
        </g>
        <g>
        </g>
        <g>
        </g>
        <g>
        </g>
        <g>
        </g>
        <g>
        </g>
        <g>
        </g>
        <g>
        </g>
        <g>
        </g>
        <g>
        </g>
        <g>
        </g>
        <g>
        </g>
        <g>
        </g>
        <g>
        </g>
        <g>
        </g>
        <g>
        </g>
        <g>
        </g>
        <g>
        </g>
        <g>
        </g>
        <g>
        </g>
        <g>
        </g>
        <g>
        </g>
        <g>
        </g>
        <g>
        </g>
        <g>
        </g>
        <g>
        </g>
        <g>
        </g>
        <g>
        </g>
        <g>
        </g>
        <g>
        </g>
        <g>
        </g>
        <g>
        </g>
        <g>
        </g>
        <g>
        </g>
        <g>
        </g>
        <g>
        </g>
        <g>
        </g>
        <g>
        </g>
        <g>
        </g>
        <g>
        </g>
        <g>
        </g>
        <g>
        </g>
        <g>
        </g>
        <g>
        </g>
        <g>
        </g>
        <g>
        </g>
        <g>
        </g>
        <g>
        </g>
        <g>
        </g>
        <g>
        </g>
        <g>
        </g>
        <g>
        </g>
        <g>
        </g>
        <g>
        </g>
        <g>
        </g>
        <g>
        </g>
        <g>
        </g>
        <g>
        </g>
        <g>
        </g>
        <g>
        </g>
        <g>
        </g>
        <g>
        </g>
        <g>
        </g>
        <g>
        </g>
        <g>
        </g>
    </g>
</svg>
