<?xml version="1.0" standalone="no"?>
<!DOCTYPE svg PUBLIC "-//W3C//DTD SVG 1.1//EN"
        "http://www.w3.org/Graphics/SVG/1.1/DTD/svg11.dtd">
<svg
        xmlns="http://www.w3.org/2000/svg"
        version="1.1"
        width="64.9478mm" height="45.7708mm" viewBox="0.0000 0.0000 64.9478 45.7708">
    <title>SVG Image created as radarMk2-B_Silkscreen.svg date 2023/05/09 18:06:40</title>
    <desc>Image generated by PCBNEW</desc>
    <g style="fill:#000000; fill-opacity:1.0000;stroke:#000000; stroke-opacity:1.0000;
stroke-linecap:round; stroke-linejoin:round;"
       transform="translate(0 0) scale(1 1)">
    </g>
    <g style="fill:#000000; fill-opacity:0.0;
stroke:#000000; stroke-width:0.0000; stroke-opacity:1;
stroke-linecap:round; stroke-linejoin:round;">
    </g>
    <g style="fill:#000000; fill-opacity:0.0;
stroke:#000000; stroke-width:0.1500; stroke-opacity:1;
stroke-linecap:round; stroke-linejoin:round;">
        <path d="M15.5264 5.1665
L49.4147 5.1946
"/>
        <path d="M49.4147 5.1946 A2.8652 2.8652 0.0 0 0 51.5944 7.4525"/>
        <path d="M53.7534 11.6435
L53.7534 7.3255
"/>
        <path d="M13.5484 7.3785
L13.4944 30.0585
"/>
        <path d="M13.4944 30.0585
L51.5944 30.0585
"/>
        <path d="M51.5944 7.4525
L51.5944 30.0585
"/>
        <path d="M53.7534 27.6455
L53.7534 34.7575
"/>
        <path d="M13.5484 7.3785 A2.8398 2.8398 0.0 0 0 15.5264 5.1665"/>
    </g>
    <g style="fill:#000000; fill-opacity:0.0;
stroke:#000000; stroke-width:0.3000; stroke-opacity:1;
stroke-linecap:round; stroke-linejoin:round;">
        <text x="44.6094" y="5.0395"
              transform="scale(-1 1) translate(-89.218714 0)"
              textLength="8.0929" font-size="2.0000" lengthAdjust="spacingAndGlyphs"
              text-anchor="start" opacity="0">vRadar
        </text>
        <g class="stroked-text">
            <desc>vRadar</desc>
            <path d="M44.3951 3.8559
L44.0379 4.8559
"/>
            <path d="M44.0379 4.8559
L43.6808 3.8559
"/>
            <path d="M42.2522 4.8559
L42.7522 4.1416
"/>
            <path d="M43.1094 4.8559
L43.1094 3.3559
"/>
            <path d="M43.1094 3.3559
L42.5379 3.3559
"/>
            <path d="M42.5379 3.3559
L42.3951 3.4274
"/>
            <path d="M42.3951 3.4274
L42.3236 3.4988
"/>
            <path d="M42.3236 3.4988
L42.2522 3.6416
"/>
            <path d="M42.2522 3.6416
L42.2522 3.8559
"/>
            <path d="M42.2522 3.8559
L42.3236 3.9988
"/>
            <path d="M42.3236 3.9988
L42.3951 4.0702
"/>
            <path d="M42.3951 4.0702
L42.5379 4.1416
"/>
            <path d="M42.5379 4.1416
L43.1094 4.1416
"/>
            <path d="M40.9665 4.8559
L40.9665 4.0702
"/>
            <path d="M40.9665 4.0702
L41.0379 3.9274
"/>
            <path d="M41.0379 3.9274
L41.1808 3.8559
"/>
            <path d="M41.1808 3.8559
L41.4665 3.8559
"/>
            <path d="M41.4665 3.8559
L41.6094 3.9274
"/>
            <path d="M40.9665 4.7845
L41.1094 4.8559
"/>
            <path d="M41.1094 4.8559
L41.4665 4.8559
"/>
            <path d="M41.4665 4.8559
L41.6094 4.7845
"/>
            <path d="M41.6094 4.7845
L41.6808 4.6416
"/>
            <path d="M41.6808 4.6416
L41.6808 4.4988
"/>
            <path d="M41.6808 4.4988
L41.6094 4.3559
"/>
            <path d="M41.6094 4.3559
L41.4665 4.2845
"/>
            <path d="M41.4665 4.2845
L41.1094 4.2845
"/>
            <path d="M41.1094 4.2845
L40.9665 4.2131
"/>
            <path d="M39.6094 4.8559
L39.6094 3.3559
"/>
            <path d="M39.6094 4.7845
L39.7522 4.8559
"/>
            <path d="M39.7522 4.8559
L40.0379 4.8559
"/>
            <path d="M40.0379 4.8559
L40.1808 4.7845
"/>
            <path d="M40.1808 4.7845
L40.2522 4.7131
"/>
            <path d="M40.2522 4.7131
L40.3236 4.5702
"/>
            <path d="M40.3236 4.5702
L40.3236 4.1416
"/>
            <path d="M40.3236 4.1416
L40.2522 3.9988
"/>
            <path d="M40.2522 3.9988
L40.1808 3.9274
"/>
            <path d="M40.1808 3.9274
L40.0379 3.8559
"/>
            <path d="M40.0379 3.8559
L39.7522 3.8559
"/>
            <path d="M39.7522 3.8559
L39.6094 3.9274
"/>
            <path d="M38.2522 4.8559
L38.2522 4.0702
"/>
            <path d="M38.2522 4.0702
L38.3236 3.9274
"/>
            <path d="M38.3236 3.9274
L38.4665 3.8559
"/>
            <path d="M38.4665 3.8559
L38.7522 3.8559
"/>
            <path d="M38.7522 3.8559
L38.8951 3.9274
"/>
            <path d="M38.2522 4.7845
L38.3951 4.8559
"/>
            <path d="M38.3951 4.8559
L38.7522 4.8559
"/>
            <path d="M38.7522 4.8559
L38.8951 4.7845
"/>
            <path d="M38.8951 4.7845
L38.9665 4.6416
"/>
            <path d="M38.9665 4.6416
L38.9665 4.4988
"/>
            <path d="M38.9665 4.4988
L38.8951 4.3559
"/>
            <path d="M38.8951 4.3559
L38.7522 4.2845
"/>
            <path d="M38.7522 4.2845
L38.3951 4.2845
"/>
            <path d="M38.3951 4.2845
L38.2522 4.2131
"/>
            <path d="M37.5379 4.8559
L37.5379 3.8559
"/>
            <path d="M37.5379 4.1416
L37.4665 3.9988
"/>
            <path d="M37.4665 3.9988
L37.3951 3.9274
"/>
            <path d="M37.3951 3.9274
L37.2522 3.8559
"/>
            <path d="M37.2522 3.8559
L37.1094 3.8559
"/>
        </g>
    </g>
    <g style="fill:#000000; fill-opacity:0.0;
stroke:#000000; stroke-width:0.1500; stroke-opacity:1;
stroke-linecap:round; stroke-linejoin:round;">
        <text x="24.4164" y="13.8025"
              transform="scale(-1 1) translate(-48.832714 0)"
              textLength="4.3679" font-size="1.0000" lengthAdjust="spacingAndGlyphs"
              text-anchor="start" opacity="0">ENABLE
        </text>
        <g class="stroked-text">
            <desc>ENABLE</desc>
            <path d="M24.2378 13.3179
L23.9878 13.3179
"/>
            <path d="M23.8806 13.7107
L24.2378 13.7107
"/>
            <path d="M24.2378 13.7107
L24.2378 12.9607
"/>
            <path d="M24.2378 12.9607
L23.8806 12.9607
"/>
            <path d="M23.5592 13.7107
L23.5592 12.9607
"/>
            <path d="M23.5592 12.9607
L23.1306 13.7107
"/>
            <path d="M23.1306 13.7107
L23.1306 12.9607
"/>
            <path d="M22.8092 13.4964
L22.4521 13.4964
"/>
            <path d="M22.8806 13.7107
L22.6306 12.9607
"/>
            <path d="M22.6306 12.9607
L22.3806 13.7107
"/>
            <path d="M21.8806 13.3179
L21.7735 13.3536
"/>
            <path d="M21.7735 13.3536
L21.7378 13.3893
"/>
            <path d="M21.7378 13.3893
L21.7021 13.4607
"/>
            <path d="M21.7021 13.4607
L21.7021 13.5679
"/>
            <path d="M21.7021 13.5679
L21.7378 13.6393
"/>
            <path d="M21.7378 13.6393
L21.7735 13.6750
"/>
            <path d="M21.7735 13.6750
L21.8449 13.7107
"/>
            <path d="M21.8449 13.7107
L22.1306 13.7107
"/>
            <path d="M22.1306 13.7107
L22.1306 12.9607
"/>
            <path d="M22.1306 12.9607
L21.8806 12.9607
"/>
            <path d="M21.8806 12.9607
L21.8092 12.9964
"/>
            <path d="M21.8092 12.9964
L21.7735 13.0321
"/>
            <path d="M21.7735 13.0321
L21.7378 13.1036
"/>
            <path d="M21.7378 13.1036
L21.7378 13.1750
"/>
            <path d="M21.7378 13.1750
L21.7735 13.2464
"/>
            <path d="M21.7735 13.2464
L21.8092 13.2821
"/>
            <path d="M21.8092 13.2821
L21.8806 13.3179
"/>
            <path d="M21.8806 13.3179
L22.1306 13.3179
"/>
            <path d="M21.0235 13.7107
L21.3806 13.7107
"/>
            <path d="M21.3806 13.7107
L21.3806 12.9607
"/>
            <path d="M20.7735 13.3179
L20.5235 13.3179
"/>
            <path d="M20.4164 13.7107
L20.7735 13.7107
"/>
            <path d="M20.7735 13.7107
L20.7735 12.9607
"/>
            <path d="M20.7735 12.9607
L20.4164 12.9607
"/>
        </g>
    </g>
    <g style="fill:#000000; fill-opacity:0.0;
stroke:#000000; stroke-width:0.1875; stroke-opacity:1;
stroke-linecap:round; stroke-linejoin:round;">
        <text x="36.6084" y="4.9125"
              transform="scale(-1 1) translate(-73.216714 0)"
              textLength="3.9259" font-size="1.0000" lengthAdjust="spacingAndGlyphs"
              text-anchor="start" opacity="0">Rev. 2
        </text>
        <g class="stroked-text">
            <desc>Rev. 2</desc>
            <path d="M36.0012 4.8207
L36.2512 4.4636
"/>
            <path d="M36.4298 4.8207
L36.4298 4.0707
"/>
            <path d="M36.4298 4.0707
L36.1441 4.0707
"/>
            <path d="M36.1441 4.0707
L36.0726 4.1064
"/>
            <path d="M36.0726 4.1064
L36.0369 4.1421
"/>
            <path d="M36.0369 4.1421
L36.0012 4.2136
"/>
            <path d="M36.0012 4.2136
L36.0012 4.3207
"/>
            <path d="M36.0012 4.3207
L36.0369 4.3921
"/>
            <path d="M36.0369 4.3921
L36.0726 4.4279
"/>
            <path d="M36.0726 4.4279
L36.1441 4.4636
"/>
            <path d="M36.1441 4.4636
L36.4298 4.4636
"/>
            <path d="M35.3941 4.7850
L35.4655 4.8207
"/>
            <path d="M35.4655 4.8207
L35.6084 4.8207
"/>
            <path d="M35.6084 4.8207
L35.6798 4.7850
"/>
            <path d="M35.6798 4.7850
L35.7155 4.7136
"/>
            <path d="M35.7155 4.7136
L35.7155 4.4279
"/>
            <path d="M35.7155 4.4279
L35.6798 4.3564
"/>
            <path d="M35.6798 4.3564
L35.6084 4.3207
"/>
            <path d="M35.6084 4.3207
L35.4655 4.3207
"/>
            <path d="M35.4655 4.3207
L35.3941 4.3564
"/>
            <path d="M35.3941 4.3564
L35.3584 4.4279
"/>
            <path d="M35.3584 4.4279
L35.3584 4.4993
"/>
            <path d="M35.3584 4.4993
L35.7155 4.5707
"/>
            <path d="M35.1084 4.3207
L34.9298 4.8207
"/>
            <path d="M34.9298 4.8207
L34.7512 4.3207
"/>
            <path d="M34.4655 4.7493
L34.4298 4.7850
"/>
            <path d="M34.4298 4.7850
L34.4655 4.8207
"/>
            <path d="M34.4655 4.8207
L34.5012 4.7850
"/>
            <path d="M34.5012 4.7850
L34.4655 4.7493
"/>
            <path d="M34.4655 4.7493
L34.4655 4.8207
"/>
            <path d="M33.5726 4.1421
L33.5369 4.1064
"/>
            <path d="M33.5369 4.1064
L33.4655 4.0707
"/>
            <path d="M33.4655 4.0707
L33.2869 4.0707
"/>
            <path d="M33.2869 4.0707
L33.2155 4.1064
"/>
            <path d="M33.2155 4.1064
L33.1798 4.1421
"/>
            <path d="M33.1798 4.1421
L33.1441 4.2136
"/>
            <path d="M33.1441 4.2136
L33.1441 4.2850
"/>
            <path d="M33.1441 4.2850
L33.1798 4.3921
"/>
            <path d="M33.1798 4.3921
L33.6084 4.8207
"/>
            <path d="M33.6084 4.8207
L33.1441 4.8207
"/>
        </g>
    </g>
    <g style="fill:#000000; fill-opacity:0.0;
stroke:#000000; stroke-width:0.1500; stroke-opacity:1;
stroke-linecap:round; stroke-linejoin:round;">
        <text x="48.9274" y="4.9125"
              transform="scale(-1 1) translate(-97.854714 0)"
              textLength="1.6893" font-size="1.0000" lengthAdjust="spacingAndGlyphs"
              text-anchor="start" opacity="0">R1
        </text>
        <g class="stroked-text">
            <desc>R1</desc>
            <path d="M48.3202 4.8207
L48.5702 4.4636
"/>
            <path d="M48.7488 4.8207
L48.7488 4.0707
"/>
            <path d="M48.7488 4.0707
L48.4631 4.0707
"/>
            <path d="M48.4631 4.0707
L48.3916 4.1064
"/>
            <path d="M48.3916 4.1064
L48.3559 4.1421
"/>
            <path d="M48.3559 4.1421
L48.3202 4.2136
"/>
            <path d="M48.3202 4.2136
L48.3202 4.3207
"/>
            <path d="M48.3202 4.3207
L48.3559 4.3921
"/>
            <path d="M48.3559 4.3921
L48.3916 4.4279
"/>
            <path d="M48.3916 4.4279
L48.4631 4.4636
"/>
            <path d="M48.4631 4.4636
L48.7488 4.4636
"/>
            <path d="M47.6059 4.8207
L48.0345 4.8207
"/>
            <path d="M47.8202 4.8207
L47.8202 4.0707
"/>
            <path d="M47.8202 4.0707
L47.8916 4.1779
"/>
            <path d="M47.8916 4.1779
L47.9631 4.2493
"/>
            <path d="M47.9631 4.2493
L48.0345 4.2850
"/>
        </g>
    </g>
    <g style="fill:#000000; fill-opacity:0.0;
stroke:#000000; stroke-width:0.1875; stroke-opacity:1;
stroke-linecap:round; stroke-linejoin:round;">
        <text x="24.7974" y="4.9125"
              transform="scale(-1 1) translate(-49.594714 0)"
              textLength="5.2830" font-size="1.0000" lengthAdjust="spacingAndGlyphs"
              text-anchor="start" opacity="0">BN 2023
        </text>
        <g class="stroked-text">
            <desc>BN 2023</desc>
            <path d="M24.3688 4.4279
L24.2616 4.4636
"/>
            <path d="M24.2616 4.4636
L24.2259 4.4993
"/>
            <path d="M24.2259 4.4993
L24.1902 4.5707
"/>
            <path d="M24.1902 4.5707
L24.1902 4.6779
"/>
            <path d="M24.1902 4.6779
L24.2259 4.7493
"/>
            <path d="M24.2259 4.7493
L24.2616 4.7850
"/>
            <path d="M24.2616 4.7850
L24.3331 4.8207
"/>
            <path d="M24.3331 4.8207
L24.6188 4.8207
"/>
            <path d="M24.6188 4.8207
L24.6188 4.0707
"/>
            <path d="M24.6188 4.0707
L24.3688 4.0707
"/>
            <path d="M24.3688 4.0707
L24.2974 4.1064
"/>
            <path d="M24.2974 4.1064
L24.2616 4.1421
"/>
            <path d="M24.2616 4.1421
L24.2259 4.2136
"/>
            <path d="M24.2259 4.2136
L24.2259 4.2850
"/>
            <path d="M24.2259 4.2850
L24.2616 4.3564
"/>
            <path d="M24.2616 4.3564
L24.2974 4.3921
"/>
            <path d="M24.2974 4.3921
L24.3688 4.4279
"/>
            <path d="M24.3688 4.4279
L24.6188 4.4279
"/>
            <path d="M23.8688 4.8207
L23.8688 4.0707
"/>
            <path d="M23.8688 4.0707
L23.4402 4.8207
"/>
            <path d="M23.4402 4.8207
L23.4402 4.0707
"/>
            <path d="M22.5474 4.1421
L22.5116 4.1064
"/>
            <path d="M22.5116 4.1064
L22.4402 4.0707
"/>
            <path d="M22.4402 4.0707
L22.2616 4.0707
"/>
            <path d="M22.2616 4.0707
L22.1902 4.1064
"/>
            <path d="M22.1902 4.1064
L22.1545 4.1421
"/>
            <path d="M22.1545 4.1421
L22.1188 4.2136
"/>
            <path d="M22.1188 4.2136
L22.1188 4.2850
"/>
            <path d="M22.1188 4.2850
L22.1545 4.3921
"/>
            <path d="M22.1545 4.3921
L22.5831 4.8207
"/>
            <path d="M22.5831 4.8207
L22.1188 4.8207
"/>
            <path d="M21.6545 4.0707
L21.5831 4.0707
"/>
            <path d="M21.5831 4.0707
L21.5116 4.1064
"/>
            <path d="M21.5116 4.1064
L21.4759 4.1421
"/>
            <path d="M21.4759 4.1421
L21.4402 4.2136
"/>
            <path d="M21.4402 4.2136
L21.4045 4.3564
"/>
            <path d="M21.4045 4.3564
L21.4045 4.5350
"/>
            <path d="M21.4045 4.5350
L21.4402 4.6779
"/>
            <path d="M21.4402 4.6779
L21.4759 4.7493
"/>
            <path d="M21.4759 4.7493
L21.5116 4.7850
"/>
            <path d="M21.5116 4.7850
L21.5831 4.8207
"/>
            <path d="M21.5831 4.8207
L21.6545 4.8207
"/>
            <path d="M21.6545 4.8207
L21.7259 4.7850
"/>
            <path d="M21.7259 4.7850
L21.7616 4.7493
"/>
            <path d="M21.7616 4.7493
L21.7974 4.6779
"/>
            <path d="M21.7974 4.6779
L21.8331 4.5350
"/>
            <path d="M21.8331 4.5350
L21.8331 4.3564
"/>
            <path d="M21.8331 4.3564
L21.7974 4.2136
"/>
            <path d="M21.7974 4.2136
L21.7616 4.1421
"/>
            <path d="M21.7616 4.1421
L21.7259 4.1064
"/>
            <path d="M21.7259 4.1064
L21.6545 4.0707
"/>
            <path d="M21.1188 4.1421
L21.0831 4.1064
"/>
            <path d="M21.0831 4.1064
L21.0116 4.0707
"/>
            <path d="M21.0116 4.0707
L20.8331 4.0707
"/>
            <path d="M20.8331 4.0707
L20.7616 4.1064
"/>
            <path d="M20.7616 4.1064
L20.7259 4.1421
"/>
            <path d="M20.7259 4.1421
L20.6902 4.2136
"/>
            <path d="M20.6902 4.2136
L20.6902 4.2850
"/>
            <path d="M20.6902 4.2850
L20.7259 4.3921
"/>
            <path d="M20.7259 4.3921
L21.1545 4.8207
"/>
            <path d="M21.1545 4.8207
L20.6902 4.8207
"/>
            <path d="M20.4402 4.0707
L19.9759 4.0707
"/>
            <path d="M19.9759 4.0707
L20.2259 4.3564
"/>
            <path d="M20.2259 4.3564
L20.1188 4.3564
"/>
            <path d="M20.1188 4.3564
L20.0474 4.3921
"/>
            <path d="M20.0474 4.3921
L20.0116 4.4279
"/>
            <path d="M20.0116 4.4279
L19.9759 4.4993
"/>
            <path d="M19.9759 4.4993
L19.9759 4.6779
"/>
            <path d="M19.9759 4.6779
L20.0116 4.7493
"/>
            <path d="M20.0116 4.7493
L20.0474 4.7850
"/>
            <path d="M20.0474 4.7850
L20.1188 4.8207
"/>
            <path d="M20.1188 4.8207
L20.3331 4.8207
"/>
            <path d="M20.3331 4.8207
L20.4045 4.7850
"/>
            <path d="M20.4045 4.7850
L20.4402 4.7493
"/>
        </g>
    </g>
    <g style="fill:#000000; fill-opacity:0.0;
stroke:#000000; stroke-width:0.1500; stroke-opacity:1;
stroke-linecap:round; stroke-linejoin:round;">
        <g transform="rotate(90.000000 53.2454 26.5025)">
            <text x="53.2454" y="26.5025"
                  transform="scale(-1 1) translate(-106.490714 0)"
                  textLength="14.5083" font-size="1.3333" lengthAdjust="spacingAndGlyphs"
                  text-anchor="start" opacity="0">46.1mm x 39.5mm
            </text>
        </g>
        <g class="stroked-text">
            <desc>46.1mm x 39.5mm</desc>
            <path d="M54.0344 25.8358
L53.3677 25.8358
"/>
            <path d="M54.4154 26.0739
L53.7011 26.3120
"/>
            <path d="M53.7011 26.3120
L53.7011 25.6930
"/>
            <path d="M54.3677 24.8835
L54.3677 25.0739
"/>
            <path d="M54.3677 25.0739
L54.3201 25.1692
"/>
            <path d="M54.3201 25.1692
L54.2725 25.2168
"/>
            <path d="M54.2725 25.2168
L54.1296 25.3120
"/>
            <path d="M54.1296 25.3120
L53.9392 25.3596
"/>
            <path d="M53.9392 25.3596
L53.5582 25.3596
"/>
            <path d="M53.5582 25.3596
L53.4630 25.3120
"/>
            <path d="M53.4630 25.3120
L53.4154 25.2644
"/>
            <path d="M53.4154 25.2644
L53.3677 25.1692
"/>
            <path d="M53.3677 25.1692
L53.3677 24.9787
"/>
            <path d="M53.3677 24.9787
L53.4154 24.8835
"/>
            <path d="M53.4154 24.8835
L53.4630 24.8358
"/>
            <path d="M53.4630 24.8358
L53.5582 24.7882
"/>
            <path d="M53.5582 24.7882
L53.7963 24.7882
"/>
            <path d="M53.7963 24.7882
L53.8915 24.8358
"/>
            <path d="M53.8915 24.8358
L53.9392 24.8835
"/>
            <path d="M53.9392 24.8835
L53.9868 24.9787
"/>
            <path d="M53.9868 24.9787
L53.9868 25.1692
"/>
            <path d="M53.9868 25.1692
L53.9392 25.2644
"/>
            <path d="M53.9392 25.2644
L53.8915 25.3120
"/>
            <path d="M53.8915 25.3120
L53.7963 25.3596
"/>
            <path d="M53.4630 24.3596
L53.4154 24.3120
"/>
            <path d="M53.4154 24.3120
L53.3677 24.3596
"/>
            <path d="M53.3677 24.3596
L53.4154 24.4073
"/>
            <path d="M53.4154 24.4073
L53.4630 24.3596
"/>
            <path d="M53.4630 24.3596
L53.3677 24.3596
"/>
            <path d="M53.3677 23.3596
L53.3677 23.9311
"/>
            <path d="M53.3677 23.6454
L54.3677 23.6454
"/>
            <path d="M54.3677 23.6454
L54.2249 23.7406
"/>
            <path d="M54.2249 23.7406
L54.1296 23.8358
"/>
            <path d="M54.1296 23.8358
L54.0820 23.9311
"/>
            <path d="M53.3677 22.9311
L54.0344 22.9311
"/>
            <path d="M53.9392 22.9311
L53.9868 22.8835
"/>
            <path d="M53.9868 22.8835
L54.0344 22.7882
"/>
            <path d="M54.0344 22.7882
L54.0344 22.6454
"/>
            <path d="M54.0344 22.6454
L53.9868 22.5501
"/>
            <path d="M53.9868 22.5501
L53.8915 22.5025
"/>
            <path d="M53.8915 22.5025
L53.3677 22.5025
"/>
            <path d="M53.8915 22.5025
L53.9868 22.4549
"/>
            <path d="M53.9868 22.4549
L54.0344 22.3596
"/>
            <path d="M54.0344 22.3596
L54.0344 22.2168
"/>
            <path d="M54.0344 22.2168
L53.9868 22.1215
"/>
            <path d="M53.9868 22.1215
L53.8915 22.0739
"/>
            <path d="M53.8915 22.0739
L53.3677 22.0739
"/>
            <path d="M53.3677 21.5977
L54.0344 21.5977
"/>
            <path d="M53.9392 21.5977
L53.9868 21.5501
"/>
            <path d="M53.9868 21.5501
L54.0344 21.4549
"/>
            <path d="M54.0344 21.4549
L54.0344 21.3120
"/>
            <path d="M54.0344 21.3120
L53.9868 21.2168
"/>
            <path d="M53.9868 21.2168
L53.8915 21.1692
"/>
            <path d="M53.8915 21.1692
L53.3677 21.1692
"/>
            <path d="M53.8915 21.1692
L53.9868 21.1215
"/>
            <path d="M53.9868 21.1215
L54.0344 21.0263
"/>
            <path d="M54.0344 21.0263
L54.0344 20.8835
"/>
            <path d="M54.0344 20.8835
L53.9868 20.7882
"/>
            <path d="M53.9868 20.7882
L53.8915 20.7406
"/>
            <path d="M53.8915 20.7406
L53.3677 20.7406
"/>
            <path d="M53.3677 19.5977
L54.0344 19.0739
"/>
            <path d="M54.0344 19.5977
L53.3677 19.0739
"/>
            <path d="M54.3677 18.0263
L54.3677 17.4073
"/>
            <path d="M54.3677 17.4073
L53.9868 17.7406
"/>
            <path d="M53.9868 17.7406
L53.9868 17.5977
"/>
            <path d="M53.9868 17.5977
L53.9392 17.5025
"/>
            <path d="M53.9392 17.5025
L53.8915 17.4549
"/>
            <path d="M53.8915 17.4549
L53.7963 17.4073
"/>
            <path d="M53.7963 17.4073
L53.5582 17.4073
"/>
            <path d="M53.5582 17.4073
L53.4630 17.4549
"/>
            <path d="M53.4630 17.4549
L53.4154 17.5025
"/>
            <path d="M53.4154 17.5025
L53.3677 17.5977
"/>
            <path d="M53.3677 17.5977
L53.3677 17.8835
"/>
            <path d="M53.3677 17.8835
L53.4154 17.9787
"/>
            <path d="M53.4154 17.9787
L53.4630 18.0263
"/>
            <path d="M53.3677 16.9311
L53.3677 16.7406
"/>
            <path d="M53.3677 16.7406
L53.4154 16.6454
"/>
            <path d="M53.4154 16.6454
L53.4630 16.5977
"/>
            <path d="M53.4630 16.5977
L53.6058 16.5025
"/>
            <path d="M53.6058 16.5025
L53.7963 16.4549
"/>
            <path d="M53.7963 16.4549
L54.1773 16.4549
"/>
            <path d="M54.1773 16.4549
L54.2725 16.5025
"/>
            <path d="M54.2725 16.5025
L54.3201 16.5501
"/>
            <path d="M54.3201 16.5501
L54.3677 16.6454
"/>
            <path d="M54.3677 16.6454
L54.3677 16.8358
"/>
            <path d="M54.3677 16.8358
L54.3201 16.9311
"/>
            <path d="M54.3201 16.9311
L54.2725 16.9787
"/>
            <path d="M54.2725 16.9787
L54.1773 17.0263
"/>
            <path d="M54.1773 17.0263
L53.9392 17.0263
"/>
            <path d="M53.9392 17.0263
L53.8439 16.9787
"/>
            <path d="M53.8439 16.9787
L53.7963 16.9311
"/>
            <path d="M53.7963 16.9311
L53.7487 16.8358
"/>
            <path d="M53.7487 16.8358
L53.7487 16.6454
"/>
            <path d="M53.7487 16.6454
L53.7963 16.5501
"/>
            <path d="M53.7963 16.5501
L53.8439 16.5025
"/>
            <path d="M53.8439 16.5025
L53.9392 16.4549
"/>
            <path d="M53.4630 16.0263
L53.4154 15.9787
"/>
            <path d="M53.4154 15.9787
L53.3677 16.0263
"/>
            <path d="M53.3677 16.0263
L53.4154 16.0739
"/>
            <path d="M53.4154 16.0739
L53.4630 16.0263
"/>
            <path d="M53.4630 16.0263
L53.3677 16.0263
"/>
            <path d="M54.3677 15.0739
L54.3677 15.5501
"/>
            <path d="M54.3677 15.5501
L53.8915 15.5977
"/>
            <path d="M53.8915 15.5977
L53.9392 15.5501
"/>
            <path d="M53.9392 15.5501
L53.9868 15.4549
"/>
            <path d="M53.9868 15.4549
L53.9868 15.2168
"/>
            <path d="M53.9868 15.2168
L53.9392 15.1215
"/>
            <path d="M53.9392 15.1215
L53.8915 15.0739
"/>
            <path d="M53.8915 15.0739
L53.7963 15.0263
"/>
            <path d="M53.7963 15.0263
L53.5582 15.0263
"/>
            <path d="M53.5582 15.0263
L53.4630 15.0739
"/>
            <path d="M53.4630 15.0739
L53.4154 15.1215
"/>
            <path d="M53.4154 15.1215
L53.3677 15.2168
"/>
            <path d="M53.3677 15.2168
L53.3677 15.4549
"/>
            <path d="M53.3677 15.4549
L53.4154 15.5501
"/>
            <path d="M53.4154 15.5501
L53.4630 15.5977
"/>
            <path d="M53.3677 14.5977
L54.0344 14.5977
"/>
            <path d="M53.9392 14.5977
L53.9868 14.5501
"/>
            <path d="M53.9868 14.5501
L54.0344 14.4549
"/>
            <path d="M54.0344 14.4549
L54.0344 14.3120
"/>
            <path d="M54.0344 14.3120
L53.9868 14.2168
"/>
            <path d="M53.9868 14.2168
L53.8915 14.1692
"/>
            <path d="M53.8915 14.1692
L53.3677 14.1692
"/>
            <path d="M53.8915 14.1692
L53.9868 14.1215
"/>
            <path d="M53.9868 14.1215
L54.0344 14.0263
"/>
            <path d="M54.0344 14.0263
L54.0344 13.8835
"/>
            <path d="M54.0344 13.8835
L53.9868 13.7882
"/>
            <path d="M53.9868 13.7882
L53.8915 13.7406
"/>
            <path d="M53.8915 13.7406
L53.3677 13.7406
"/>
            <path d="M53.3677 13.2644
L54.0344 13.2644
"/>
            <path d="M53.9392 13.2644
L53.9868 13.2168
"/>
            <path d="M53.9868 13.2168
L54.0344 13.1215
"/>
            <path d="M54.0344 13.1215
L54.0344 12.9787
"/>
            <path d="M54.0344 12.9787
L53.9868 12.8835
"/>
            <path d="M53.9868 12.8835
L53.8915 12.8358
"/>
            <path d="M53.8915 12.8358
L53.3677 12.8358
"/>
            <path d="M53.8915 12.8358
L53.9868 12.7882
"/>
            <path d="M53.9868 12.7882
L54.0344 12.6930
"/>
            <path d="M54.0344 12.6930
L54.0344 12.5501
"/>
            <path d="M54.0344 12.5501
L53.9868 12.4549
"/>
            <path d="M53.9868 12.4549
L53.8915 12.4073
"/>
            <path d="M53.8915 12.4073
L53.3677 12.4073
"/>
        </g>
        <g transform="rotate(90.000000 47.4034 37.4245)">
            <text x="47.4034" y="37.4245"
                  transform="scale(-1 1) translate(-94.806714 0)"
                  textLength="3.9845" font-size="1.3333" lengthAdjust="spacingAndGlyphs"
                  text-anchor="start" opacity="0">Mode
            </text>
        </g>
        <g class="stroked-text">
            <desc>Mode</desc>
            <path d="M47.5257 37.1864
L48.5257 37.1864
"/>
            <path d="M48.5257 37.1864
L47.8115 36.8531
"/>
            <path d="M47.8115 36.8531
L48.5257 36.5197
"/>
            <path d="M48.5257 36.5197
L47.5257 36.5197
"/>
            <path d="M47.5257 35.9007
L47.5734 35.9959
"/>
            <path d="M47.5734 35.9959
L47.6210 36.0435
"/>
            <path d="M47.6210 36.0435
L47.7162 36.0912
"/>
            <path d="M47.7162 36.0912
L48.0019 36.0912
"/>
            <path d="M48.0019 36.0912
L48.0972 36.0435
"/>
            <path d="M48.0972 36.0435
L48.1448 35.9959
"/>
            <path d="M48.1448 35.9959
L48.1924 35.9007
"/>
            <path d="M48.1924 35.9007
L48.1924 35.7578
"/>
            <path d="M48.1924 35.7578
L48.1448 35.6626
"/>
            <path d="M48.1448 35.6626
L48.0972 35.6150
"/>
            <path d="M48.0972 35.6150
L48.0019 35.5674
"/>
            <path d="M48.0019 35.5674
L47.7162 35.5674
"/>
            <path d="M47.7162 35.5674
L47.6210 35.6150
"/>
            <path d="M47.6210 35.6150
L47.5734 35.6626
"/>
            <path d="M47.5734 35.6626
L47.5257 35.7578
"/>
            <path d="M47.5257 35.7578
L47.5257 35.9007
"/>
            <path d="M47.5257 34.7102
L48.5257 34.7102
"/>
            <path d="M47.5734 34.7102
L47.5257 34.8055
"/>
            <path d="M47.5257 34.8055
L47.5257 34.9959
"/>
            <path d="M47.5257 34.9959
L47.5734 35.0912
"/>
            <path d="M47.5734 35.0912
L47.6210 35.1388
"/>
            <path d="M47.6210 35.1388
L47.7162 35.1864
"/>
            <path d="M47.7162 35.1864
L48.0019 35.1864
"/>
            <path d="M48.0019 35.1864
L48.0972 35.1388
"/>
            <path d="M48.0972 35.1388
L48.1448 35.0912
"/>
            <path d="M48.1448 35.0912
L48.1924 34.9959
"/>
            <path d="M48.1924 34.9959
L48.1924 34.8055
"/>
            <path d="M48.1924 34.8055
L48.1448 34.7102
"/>
            <path d="M47.5734 33.8531
L47.5257 33.9483
"/>
            <path d="M47.5257 33.9483
L47.5257 34.1388
"/>
            <path d="M47.5257 34.1388
L47.5734 34.2340
"/>
            <path d="M47.5734 34.2340
L47.6686 34.2816
"/>
            <path d="M47.6686 34.2816
L48.0495 34.2816
"/>
            <path d="M48.0495 34.2816
L48.1448 34.2340
"/>
            <path d="M48.1448 34.2340
L48.1924 34.1388
"/>
            <path d="M48.1924 34.1388
L48.1924 33.9483
"/>
            <path d="M48.1924 33.9483
L48.1448 33.8531
"/>
            <path d="M48.1448 33.8531
L48.0495 33.8055
"/>
            <path d="M48.0495 33.8055
L47.9543 33.8055
"/>
            <path d="M47.9543 33.8055
L47.8591 34.2816
"/>
        </g>
        <text x="36.4814" y="13.1615"
              transform="scale(-1 1) translate(-72.962714 0)"
              textLength="1.6893" font-size="1.0000" lengthAdjust="spacingAndGlyphs"
              text-anchor="middle" opacity="0">R6
        </text>
        <g class="stroked-text">
            <desc>R6</desc>
            <path d="M36.6064 13.1335
L36.8564 12.7763
"/>
            <path d="M37.0349 13.1335
L37.0349 12.3835
"/>
            <path d="M37.0349 12.3835
L36.7492 12.3835
"/>
            <path d="M36.7492 12.3835
L36.6778 12.4192
"/>
            <path d="M36.6778 12.4192
L36.6421 12.4549
"/>
            <path d="M36.6421 12.4549
L36.6064 12.5263
"/>
            <path d="M36.6064 12.5263
L36.6064 12.6335
"/>
            <path d="M36.6064 12.6335
L36.6421 12.7049
"/>
            <path d="M36.6421 12.7049
L36.6778 12.7406
"/>
            <path d="M36.6778 12.7406
L36.7492 12.7763
"/>
            <path d="M36.7492 12.7763
L37.0349 12.7763
"/>
            <path d="M35.9635 12.3835
L36.1064 12.3835
"/>
            <path d="M36.1064 12.3835
L36.1778 12.4192
"/>
            <path d="M36.1778 12.4192
L36.2135 12.4549
"/>
            <path d="M36.2135 12.4549
L36.2849 12.5620
"/>
            <path d="M36.2849 12.5620
L36.3206 12.7049
"/>
            <path d="M36.3206 12.7049
L36.3206 12.9906
"/>
            <path d="M36.3206 12.9906
L36.2849 13.0620
"/>
            <path d="M36.2849 13.0620
L36.2492 13.0977
"/>
            <path d="M36.2492 13.0977
L36.1778 13.1335
"/>
            <path d="M36.1778 13.1335
L36.0349 13.1335
"/>
            <path d="M36.0349 13.1335
L35.9635 13.0977
"/>
            <path d="M35.9635 13.0977
L35.9278 13.0620
"/>
            <path d="M35.9278 13.0620
L35.8921 12.9906
"/>
            <path d="M35.8921 12.9906
L35.8921 12.8120
"/>
            <path d="M35.8921 12.8120
L35.9278 12.7406
"/>
            <path d="M35.9278 12.7406
L35.9635 12.7049
"/>
            <path d="M35.9635 12.7049
L36.0349 12.6692
"/>
            <path d="M36.0349 12.6692
L36.1778 12.6692
"/>
            <path d="M36.1778 12.6692
L36.2492 12.7049
"/>
            <path d="M36.2492 12.7049
L36.2849 12.7406
"/>
            <path d="M36.2849 12.7406
L36.3206 12.8120
"/>
        </g>
        <text x="30.3854" y="17.9875"
              transform="scale(-1 1) translate(-60.770714 0)"
              textLength="1.7250" font-size="1.0000" lengthAdjust="spacingAndGlyphs"
              text-anchor="middle" opacity="0">U1
        </text>
        <g class="stroked-text">
            <desc>U1</desc>
            <path d="M30.9568 17.2095
L30.9568 17.8166
"/>
            <path d="M30.9568 17.8166
L30.9211 17.8880
"/>
            <path d="M30.9211 17.8880
L30.8854 17.9237
"/>
            <path d="M30.8854 17.9237
L30.8139 17.9595
"/>
            <path d="M30.8139 17.9595
L30.6711 17.9595
"/>
            <path d="M30.6711 17.9595
L30.5996 17.9237
"/>
            <path d="M30.5996 17.9237
L30.5639 17.8880
"/>
            <path d="M30.5639 17.8880
L30.5282 17.8166
"/>
            <path d="M30.5282 17.8166
L30.5282 17.2095
"/>
            <path d="M29.7782 17.9595
L30.2068 17.9595
"/>
            <path d="M29.9925 17.9595
L29.9925 17.2095
"/>
            <path d="M29.9925 17.2095
L30.0639 17.3166
"/>
            <path d="M30.0639 17.3166
L30.1354 17.3880
"/>
            <path d="M30.1354 17.3880
L30.2068 17.4237
"/>
        </g>
        <text x="44.3554" y="17.2255"
              transform="scale(-1 1) translate(-88.710714 0)"
              textLength="1.6893" font-size="1.0000" lengthAdjust="spacingAndGlyphs"
              text-anchor="middle" opacity="0">C1
        </text>
        <g class="stroked-text">
            <desc>C1</desc>
            <path d="M44.4804 17.1260
L44.5161 17.1617
"/>
            <path d="M44.5161 17.1617
L44.6232 17.1975
"/>
            <path d="M44.6232 17.1975
L44.6946 17.1975
"/>
            <path d="M44.6946 17.1975
L44.8018 17.1617
"/>
            <path d="M44.8018 17.1617
L44.8732 17.0903
"/>
            <path d="M44.8732 17.0903
L44.9089 17.0189
"/>
            <path d="M44.9089 17.0189
L44.9446 16.8760
"/>
            <path d="M44.9446 16.8760
L44.9446 16.7689
"/>
            <path d="M44.9446 16.7689
L44.9089 16.6260
"/>
            <path d="M44.9089 16.6260
L44.8732 16.5546
"/>
            <path d="M44.8732 16.5546
L44.8018 16.4832
"/>
            <path d="M44.8018 16.4832
L44.6946 16.4475
"/>
            <path d="M44.6946 16.4475
L44.6232 16.4475
"/>
            <path d="M44.6232 16.4475
L44.5161 16.4832
"/>
            <path d="M44.5161 16.4832
L44.4804 16.5189
"/>
            <path d="M43.7661 17.1975
L44.1946 17.1975
"/>
            <path d="M43.9804 17.1975
L43.9804 16.4475
"/>
            <path d="M43.9804 16.4475
L44.0518 16.5546
"/>
            <path d="M44.0518 16.5546
L44.1232 16.6260
"/>
            <path d="M44.1232 16.6260
L44.1946 16.6617
"/>
        </g>
        <text x="40.5454" y="11.5105"
              transform="scale(-1 1) translate(-81.090714 0)"
              textLength="1.6893" font-size="1.0000" lengthAdjust="spacingAndGlyphs"
              text-anchor="middle" opacity="0">R2
        </text>
        <g class="stroked-text">
            <desc>R2</desc>
            <path d="M40.6704 11.4825
L40.9204 11.1253
"/>
            <path d="M41.0989 11.4825
L41.0989 10.7325
"/>
            <path d="M41.0989 10.7325
L40.8132 10.7325
"/>
            <path d="M40.8132 10.7325
L40.7418 10.7682
"/>
            <path d="M40.7418 10.7682
L40.7061 10.8039
"/>
            <path d="M40.7061 10.8039
L40.6704 10.8753
"/>
            <path d="M40.6704 10.8753
L40.6704 10.9825
"/>
            <path d="M40.6704 10.9825
L40.7061 11.0539
"/>
            <path d="M40.7061 11.0539
L40.7418 11.0896
"/>
            <path d="M40.7418 11.0896
L40.8132 11.1253
"/>
            <path d="M40.8132 11.1253
L41.0989 11.1253
"/>
            <path d="M40.3846 10.8039
L40.3489 10.7682
"/>
            <path d="M40.3489 10.7682
L40.2775 10.7325
"/>
            <path d="M40.2775 10.7325
L40.0989 10.7325
"/>
            <path d="M40.0989 10.7325
L40.0275 10.7682
"/>
            <path d="M40.0275 10.7682
L39.9918 10.8039
"/>
            <path d="M39.9918 10.8039
L39.9561 10.8753
"/>
            <path d="M39.9561 10.8753
L39.9561 10.9467
"/>
            <path d="M39.9561 10.9467
L39.9918 11.0539
"/>
            <path d="M39.9918 11.0539
L40.4204 11.4825
"/>
            <path d="M40.4204 11.4825
L39.9561 11.4825
"/>
        </g>
        <text x="44.3554" y="24.9725"
              transform="scale(-1 1) translate(-88.710714 0)"
              textLength="1.6893" font-size="1.0000" lengthAdjust="spacingAndGlyphs"
              text-anchor="middle" opacity="0">C3
        </text>
        <g class="stroked-text">
            <desc>C3</desc>
            <path d="M44.4804 24.8730
L44.5161 24.9087
"/>
            <path d="M44.5161 24.9087
L44.6232 24.9445
"/>
            <path d="M44.6232 24.9445
L44.6946 24.9445
"/>
            <path d="M44.6946 24.9445
L44.8018 24.9087
"/>
            <path d="M44.8018 24.9087
L44.8732 24.8373
"/>
            <path d="M44.8732 24.8373
L44.9089 24.7659
"/>
            <path d="M44.9089 24.7659
L44.9446 24.6230
"/>
            <path d="M44.9446 24.6230
L44.9446 24.5159
"/>
            <path d="M44.9446 24.5159
L44.9089 24.3730
"/>
            <path d="M44.9089 24.3730
L44.8732 24.3016
"/>
            <path d="M44.8732 24.3016
L44.8018 24.2302
"/>
            <path d="M44.8018 24.2302
L44.6946 24.1945
"/>
            <path d="M44.6946 24.1945
L44.6232 24.1945
"/>
            <path d="M44.6232 24.1945
L44.5161 24.2302
"/>
            <path d="M44.5161 24.2302
L44.4804 24.2659
"/>
            <path d="M44.2304 24.1945
L43.7661 24.1945
"/>
            <path d="M43.7661 24.1945
L44.0161 24.4802
"/>
            <path d="M44.0161 24.4802
L43.9089 24.4802
"/>
            <path d="M43.9089 24.4802
L43.8375 24.5159
"/>
            <path d="M43.8375 24.5159
L43.8018 24.5516
"/>
            <path d="M43.8018 24.5516
L43.7661 24.6230
"/>
            <path d="M43.7661 24.6230
L43.7661 24.8016
"/>
            <path d="M43.7661 24.8016
L43.8018 24.8730
"/>
            <path d="M43.8018 24.8730
L43.8375 24.9087
"/>
            <path d="M43.8375 24.9087
L43.9089 24.9445
"/>
            <path d="M43.9089 24.9445
L44.1232 24.9445
"/>
            <path d="M44.1232 24.9445
L44.1946 24.9087
"/>
            <path d="M44.1946 24.9087
L44.2304 24.8730
"/>
        </g>
        <g transform="rotate(-90.000000 19.5904 21.2955)">
            <text x="19.5904" y="21.6705"
                  transform="scale(-1 1) translate(-39.180714 0)"
                  textLength="2.4036" font-size="1.0000" lengthAdjust="spacingAndGlyphs"
                  text-anchor="middle" opacity="0">R21
            </text>
        </g>
        <g class="stroked-text">
            <desc>R21</desc>
            <path d="M19.9373 20.8134
L19.5802 20.5634
"/>
            <path d="M19.9373 20.3848
L19.1873 20.3848
"/>
            <path d="M19.1873 20.3848
L19.1873 20.6705
"/>
            <path d="M19.1873 20.6705
L19.2230 20.7419
"/>
            <path d="M19.2230 20.7419
L19.2587 20.7776
"/>
            <path d="M19.2587 20.7776
L19.3302 20.8134
"/>
            <path d="M19.3302 20.8134
L19.4373 20.8134
"/>
            <path d="M19.4373 20.8134
L19.5087 20.7776
"/>
            <path d="M19.5087 20.7776
L19.5445 20.7419
"/>
            <path d="M19.5445 20.7419
L19.5802 20.6705
"/>
            <path d="M19.5802 20.6705
L19.5802 20.3848
"/>
            <path d="M19.2587 21.0991
L19.2230 21.1348
"/>
            <path d="M19.2230 21.1348
L19.1873 21.2062
"/>
            <path d="M19.1873 21.2062
L19.1873 21.3848
"/>
            <path d="M19.1873 21.3848
L19.2230 21.4562
"/>
            <path d="M19.2230 21.4562
L19.2587 21.4919
"/>
            <path d="M19.2587 21.4919
L19.3302 21.5276
"/>
            <path d="M19.3302 21.5276
L19.4016 21.5276
"/>
            <path d="M19.4016 21.5276
L19.5087 21.4919
"/>
            <path d="M19.5087 21.4919
L19.9373 21.0634
"/>
            <path d="M19.9373 21.0634
L19.9373 21.5276
"/>
            <path d="M19.9373 22.2419
L19.9373 21.8134
"/>
            <path d="M19.9373 22.0276
L19.1873 22.0276
"/>
            <path d="M19.1873 22.0276
L19.2945 21.9562
"/>
            <path d="M19.2945 21.9562
L19.3659 21.8848
"/>
            <path d="M19.3659 21.8848
L19.4016 21.8134
"/>
        </g>
        <text x="33.1794" y="39.8315"
              transform="scale(-1 1) translate(-66.358714 0)"
              textLength="2.4036" font-size="1.0000" lengthAdjust="spacingAndGlyphs"
              text-anchor="middle" opacity="0">R17
        </text>
        <g class="stroked-text">
            <desc>R17</desc>
            <path d="M33.6615 39.8035
L33.9115 39.4463
"/>
            <path d="M34.0901 39.8035
L34.0901 39.0535
"/>
            <path d="M34.0901 39.0535
L33.8044 39.0535
"/>
            <path d="M33.8044 39.0535
L33.7329 39.0892
"/>
            <path d="M33.7329 39.0892
L33.6972 39.1249
"/>
            <path d="M33.6972 39.1249
L33.6615 39.1963
"/>
            <path d="M33.6615 39.1963
L33.6615 39.3035
"/>
            <path d="M33.6615 39.3035
L33.6972 39.3749
"/>
            <path d="M33.6972 39.3749
L33.7329 39.4106
"/>
            <path d="M33.7329 39.4106
L33.8044 39.4463
"/>
            <path d="M33.8044 39.4463
L34.0901 39.4463
"/>
            <path d="M32.9472 39.8035
L33.3758 39.8035
"/>
            <path d="M33.1615 39.8035
L33.1615 39.0535
"/>
            <path d="M33.1615 39.0535
L33.2329 39.1606
"/>
            <path d="M33.2329 39.1606
L33.3044 39.2320
"/>
            <path d="M33.3044 39.2320
L33.3758 39.2677
"/>
            <path d="M32.6972 39.0535
L32.1972 39.0535
"/>
            <path d="M32.1972 39.0535
L32.5186 39.8035
"/>
        </g>
        <text x="27.8454" y="18.8775"
              transform="scale(-1 1) translate(-55.690714 0)"
              textLength="2.4036" font-size="1.0000" lengthAdjust="spacingAndGlyphs"
              text-anchor="middle" opacity="0">R14
        </text>
        <g class="stroked-text">
            <desc>R14</desc>
            <path d="M28.3275 18.8495
L28.5775 18.4923
"/>
            <path d="M28.7561 18.8495
L28.7561 18.0995
"/>
            <path d="M28.7561 18.0995
L28.4704 18.0995
"/>
            <path d="M28.4704 18.0995
L28.3989 18.1352
"/>
            <path d="M28.3989 18.1352
L28.3632 18.1709
"/>
            <path d="M28.3632 18.1709
L28.3275 18.2423
"/>
            <path d="M28.3275 18.2423
L28.3275 18.3495
"/>
            <path d="M28.3275 18.3495
L28.3632 18.4209
"/>
            <path d="M28.3632 18.4209
L28.3989 18.4566
"/>
            <path d="M28.3989 18.4566
L28.4704 18.4923
"/>
            <path d="M28.4704 18.4923
L28.7561 18.4923
"/>
            <path d="M27.6132 18.8495
L28.0418 18.8495
"/>
            <path d="M27.8275 18.8495
L27.8275 18.0995
"/>
            <path d="M27.8275 18.0995
L27.8989 18.2066
"/>
            <path d="M27.8989 18.2066
L27.9704 18.2780
"/>
            <path d="M27.9704 18.2780
L28.0418 18.3137
"/>
            <path d="M26.9704 18.3495
L26.9704 18.8495
"/>
            <path d="M27.1489 18.0637
L27.3275 18.5995
"/>
            <path d="M27.3275 18.5995
L26.8632 18.5995
"/>
        </g>
        <text x="26.5754" y="38.6885"
              transform="scale(-1 1) translate(-53.150714 0)"
              textLength="2.4036" font-size="1.0000" lengthAdjust="spacingAndGlyphs"
              text-anchor="middle" opacity="0">R11
        </text>
        <g class="stroked-text">
            <desc>R11</desc>
            <path d="M27.0575 38.6605
L27.3075 38.3033
"/>
            <path d="M27.4861 38.6605
L27.4861 37.9105
"/>
            <path d="M27.4861 37.9105
L27.2004 37.9105
"/>
            <path d="M27.2004 37.9105
L27.1289 37.9462
"/>
            <path d="M27.1289 37.9462
L27.0932 37.9819
"/>
            <path d="M27.0932 37.9819
L27.0575 38.0533
"/>
            <path d="M27.0575 38.0533
L27.0575 38.1605
"/>
            <path d="M27.0575 38.1605
L27.0932 38.2319
"/>
            <path d="M27.0932 38.2319
L27.1289 38.2676
"/>
            <path d="M27.1289 38.2676
L27.2004 38.3033
"/>
            <path d="M27.2004 38.3033
L27.4861 38.3033
"/>
            <path d="M26.3432 38.6605
L26.7718 38.6605
"/>
            <path d="M26.5575 38.6605
L26.5575 37.9105
"/>
            <path d="M26.5575 37.9105
L26.6289 38.0176
"/>
            <path d="M26.6289 38.0176
L26.7004 38.0890
"/>
            <path d="M26.7004 38.0890
L26.7718 38.1247
"/>
            <path d="M25.6289 38.6605
L26.0575 38.6605
"/>
            <path d="M25.8432 38.6605
L25.8432 37.9105
"/>
            <path d="M25.8432 37.9105
L25.9146 38.0176
"/>
            <path d="M25.9146 38.0176
L25.9861 38.0890
"/>
            <path d="M25.9861 38.0890
L26.0575 38.1247
"/>
        </g>
        <text x="20.1804" y="40.3835"
              transform="scale(-1 1) translate(-40.360714 0)"
              textLength="1.5107" font-size="1.0000" lengthAdjust="spacingAndGlyphs"
              text-anchor="middle" opacity="0">J3
        </text>
        <g class="stroked-text">
            <desc>J3</desc>
            <path d="M20.4304 39.6055
L20.4304 40.1412
"/>
            <path d="M20.4304 40.1412
L20.4661 40.2483
"/>
            <path d="M20.4661 40.2483
L20.5375 40.3197
"/>
            <path d="M20.5375 40.3197
L20.6446 40.3555
"/>
            <path d="M20.6446 40.3555
L20.7161 40.3555
"/>
            <path d="M20.1446 39.6055
L19.6804 39.6055
"/>
            <path d="M19.6804 39.6055
L19.9304 39.8912
"/>
            <path d="M19.9304 39.8912
L19.8232 39.8912
"/>
            <path d="M19.8232 39.8912
L19.7518 39.9269
"/>
            <path d="M19.7518 39.9269
L19.7161 39.9626
"/>
            <path d="M19.7161 39.9626
L19.6804 40.0340
"/>
            <path d="M19.6804 40.0340
L19.6804 40.2126
"/>
            <path d="M19.6804 40.2126
L19.7161 40.2840
"/>
            <path d="M19.7161 40.2840
L19.7518 40.3197
"/>
            <path d="M19.7518 40.3197
L19.8232 40.3555
"/>
            <path d="M19.8232 40.3555
L20.0375 40.3555
"/>
            <path d="M20.0375 40.3555
L20.1089 40.3197
"/>
            <path d="M20.1089 40.3197
L20.1446 40.2840
"/>
        </g>
        <text x="12.2244" y="18.2415"
              transform="scale(-1 1) translate(-24.448714 0)"
              textLength="2.4036" font-size="1.0000" lengthAdjust="spacingAndGlyphs"
              text-anchor="middle" opacity="0">C15
        </text>
        <g class="stroked-text">
            <desc>C15</desc>
            <path d="M12.7065 18.1420
L12.7422 18.1777
"/>
            <path d="M12.7422 18.1777
L12.8494 18.2135
"/>
            <path d="M12.8494 18.2135
L12.9208 18.2135
"/>
            <path d="M12.9208 18.2135
L13.0279 18.1777
"/>
            <path d="M13.0279 18.1777
L13.0994 18.1063
"/>
            <path d="M13.0994 18.1063
L13.1351 18.0349
"/>
            <path d="M13.1351 18.0349
L13.1708 17.8920
"/>
            <path d="M13.1708 17.8920
L13.1708 17.7849
"/>
            <path d="M13.1708 17.7849
L13.1351 17.6420
"/>
            <path d="M13.1351 17.6420
L13.0994 17.5706
"/>
            <path d="M13.0994 17.5706
L13.0279 17.4992
"/>
            <path d="M13.0279 17.4992
L12.9208 17.4635
"/>
            <path d="M12.9208 17.4635
L12.8494 17.4635
"/>
            <path d="M12.8494 17.4635
L12.7422 17.4992
"/>
            <path d="M12.7422 17.4992
L12.7065 17.5349
"/>
            <path d="M11.9922 18.2135
L12.4208 18.2135
"/>
            <path d="M12.2065 18.2135
L12.2065 17.4635
"/>
            <path d="M12.2065 17.4635
L12.2779 17.5706
"/>
            <path d="M12.2779 17.5706
L12.3494 17.6420
"/>
            <path d="M12.3494 17.6420
L12.4208 17.6777
"/>
            <path d="M11.3136 17.4635
L11.6708 17.4635
"/>
            <path d="M11.6708 17.4635
L11.7065 17.8206
"/>
            <path d="M11.7065 17.8206
L11.6708 17.7849
"/>
            <path d="M11.6708 17.7849
L11.5994 17.7492
"/>
            <path d="M11.5994 17.7492
L11.4208 17.7492
"/>
            <path d="M11.4208 17.7492
L11.3494 17.7849
"/>
            <path d="M11.3494 17.7849
L11.3136 17.8206
"/>
            <path d="M11.3136 17.8206
L11.2779 17.8920
"/>
            <path d="M11.2779 17.8920
L11.2779 18.0706
"/>
            <path d="M11.2779 18.0706
L11.3136 18.1420
"/>
            <path d="M11.3136 18.1420
L11.3494 18.1777
"/>
            <path d="M11.3494 18.1777
L11.4208 18.2135
"/>
            <path d="M11.4208 18.2135
L11.5994 18.2135
"/>
            <path d="M11.5994 18.2135
L11.6708 18.1777
"/>
            <path d="M11.6708 18.1777
L11.7065 18.1420
"/>
        </g>
        <text x="40.5454" y="17.2255"
              transform="scale(-1 1) translate(-81.090714 0)"
              textLength="1.6893" font-size="1.0000" lengthAdjust="spacingAndGlyphs"
              text-anchor="middle" opacity="0">R1
        </text>
        <g class="stroked-text">
            <desc>R1</desc>
            <path d="M40.6704 17.1975
L40.9204 16.8403
"/>
            <path d="M41.0989 17.1975
L41.0989 16.4475
"/>
            <path d="M41.0989 16.4475
L40.8132 16.4475
"/>
            <path d="M40.8132 16.4475
L40.7418 16.4832
"/>
            <path d="M40.7418 16.4832
L40.7061 16.5189
"/>
            <path d="M40.7061 16.5189
L40.6704 16.5903
"/>
            <path d="M40.6704 16.5903
L40.6704 16.6975
"/>
            <path d="M40.6704 16.6975
L40.7061 16.7689
"/>
            <path d="M40.7061 16.7689
L40.7418 16.8046
"/>
            <path d="M40.7418 16.8046
L40.8132 16.8403
"/>
            <path d="M40.8132 16.8403
L41.0989 16.8403
"/>
            <path d="M39.9561 17.1975
L40.3846 17.1975
"/>
            <path d="M40.1704 17.1975
L40.1704 16.4475
"/>
            <path d="M40.1704 16.4475
L40.2418 16.5546
"/>
            <path d="M40.2418 16.5546
L40.3132 16.6260
"/>
            <path d="M40.3132 16.6260
L40.3846 16.6617
"/>
        </g>
        <g transform="rotate(-90.000000 21.4954 22.0575)">
            <text x="21.4954" y="22.4325"
                  transform="scale(-1 1) translate(-42.990714 0)"
                  textLength="2.4036" font-size="1.0000" lengthAdjust="spacingAndGlyphs"
                  text-anchor="middle" opacity="0">R20
            </text>
        </g>
        <g class="stroked-text">
            <desc>R20</desc>
            <path d="M21.8423 21.5754
L21.4852 21.3254
"/>
            <path d="M21.8423 21.1468
L21.0923 21.1468
"/>
            <path d="M21.0923 21.1468
L21.0923 21.4325
"/>
            <path d="M21.0923 21.4325
L21.1280 21.5039
"/>
            <path d="M21.1280 21.5039
L21.1637 21.5396
"/>
            <path d="M21.1637 21.5396
L21.2352 21.5754
"/>
            <path d="M21.2352 21.5754
L21.3423 21.5754
"/>
            <path d="M21.3423 21.5754
L21.4137 21.5396
"/>
            <path d="M21.4137 21.5396
L21.4495 21.5039
"/>
            <path d="M21.4495 21.5039
L21.4852 21.4325
"/>
            <path d="M21.4852 21.4325
L21.4852 21.1468
"/>
            <path d="M21.1637 21.8611
L21.1280 21.8968
"/>
            <path d="M21.1280 21.8968
L21.0923 21.9682
"/>
            <path d="M21.0923 21.9682
L21.0923 22.1468
"/>
            <path d="M21.0923 22.1468
L21.1280 22.2182
"/>
            <path d="M21.1280 22.2182
L21.1637 22.2539
"/>
            <path d="M21.1637 22.2539
L21.2352 22.2896
"/>
            <path d="M21.2352 22.2896
L21.3066 22.2896
"/>
            <path d="M21.3066 22.2896
L21.4137 22.2539
"/>
            <path d="M21.4137 22.2539
L21.8423 21.8254
"/>
            <path d="M21.8423 21.8254
L21.8423 22.2896
"/>
            <path d="M21.0923 22.7539
L21.0923 22.8254
"/>
            <path d="M21.0923 22.8254
L21.1280 22.8968
"/>
            <path d="M21.1280 22.8968
L21.1637 22.9325
"/>
            <path d="M21.1637 22.9325
L21.2352 22.9682
"/>
            <path d="M21.2352 22.9682
L21.3780 23.0039
"/>
            <path d="M21.3780 23.0039
L21.5566 23.0039
"/>
            <path d="M21.5566 23.0039
L21.6995 22.9682
"/>
            <path d="M21.6995 22.9682
L21.7709 22.9325
"/>
            <path d="M21.7709 22.9325
L21.8066 22.8968
"/>
            <path d="M21.8066 22.8968
L21.8423 22.8254
"/>
            <path d="M21.8423 22.8254
L21.8423 22.7539
"/>
            <path d="M21.8423 22.7539
L21.8066 22.6825
"/>
            <path d="M21.8066 22.6825
L21.7709 22.6468
"/>
            <path d="M21.7709 22.6468
L21.6995 22.6111
"/>
            <path d="M21.6995 22.6111
L21.5566 22.5754
"/>
            <path d="M21.5566 22.5754
L21.3780 22.5754
"/>
            <path d="M21.3780 22.5754
L21.2352 22.6111
"/>
            <path d="M21.2352 22.6111
L21.1637 22.6468
"/>
            <path d="M21.1637 22.6468
L21.1280 22.6825
"/>
            <path d="M21.1280 22.6825
L21.0923 22.7539
"/>
        </g>
        <text x="39.7834" y="38.6885"
              transform="scale(-1 1) translate(-79.566714 0)"
              textLength="2.4036" font-size="1.0000" lengthAdjust="spacingAndGlyphs"
              text-anchor="middle" opacity="0">R12
        </text>
        <g class="stroked-text">
            <desc>R12</desc>
            <path d="M40.2655 38.6605
L40.5155 38.3033
"/>
            <path d="M40.6941 38.6605
L40.6941 37.9105
"/>
            <path d="M40.6941 37.9105
L40.4084 37.9105
"/>
            <path d="M40.4084 37.9105
L40.3369 37.9462
"/>
            <path d="M40.3369 37.9462
L40.3012 37.9819
"/>
            <path d="M40.3012 37.9819
L40.2655 38.0533
"/>
            <path d="M40.2655 38.0533
L40.2655 38.1605
"/>
            <path d="M40.2655 38.1605
L40.3012 38.2319
"/>
            <path d="M40.3012 38.2319
L40.3369 38.2676
"/>
            <path d="M40.3369 38.2676
L40.4084 38.3033
"/>
            <path d="M40.4084 38.3033
L40.6941 38.3033
"/>
            <path d="M39.5512 38.6605
L39.9798 38.6605
"/>
            <path d="M39.7655 38.6605
L39.7655 37.9105
"/>
            <path d="M39.7655 37.9105
L39.8369 38.0176
"/>
            <path d="M39.8369 38.0176
L39.9084 38.0890
"/>
            <path d="M39.9084 38.0890
L39.9798 38.1247
"/>
            <path d="M39.2655 37.9819
L39.2298 37.9462
"/>
            <path d="M39.2298 37.9462
L39.1584 37.9105
"/>
            <path d="M39.1584 37.9105
L38.9798 37.9105
"/>
            <path d="M38.9798 37.9105
L38.9084 37.9462
"/>
            <path d="M38.9084 37.9462
L38.8726 37.9819
"/>
            <path d="M38.8726 37.9819
L38.8369 38.0533
"/>
            <path d="M38.8369 38.0533
L38.8369 38.1247
"/>
            <path d="M38.8369 38.1247
L38.8726 38.2319
"/>
            <path d="M38.8726 38.2319
L39.3012 38.6605
"/>
            <path d="M39.3012 38.6605
L38.8369 38.6605
"/>
        </g>
        <g transform="rotate(-90.000000 23.4004 22.8035)">
            <text x="23.4004" y="23.1785"
                  transform="scale(-1 1) translate(-46.800714 0)"
                  textLength="2.4036" font-size="1.0000" lengthAdjust="spacingAndGlyphs"
                  text-anchor="middle" opacity="0">R19
            </text>
        </g>
        <g class="stroked-text">
            <desc>R19</desc>
            <path d="M23.7473 22.3214
L23.3902 22.0714
"/>
            <path d="M23.7473 21.8928
L22.9973 21.8928
"/>
            <path d="M22.9973 21.8928
L22.9973 22.1785
"/>
            <path d="M22.9973 22.1785
L23.0330 22.2499
"/>
            <path d="M23.0330 22.2499
L23.0687 22.2856
"/>
            <path d="M23.0687 22.2856
L23.1402 22.3214
"/>
            <path d="M23.1402 22.3214
L23.2473 22.3214
"/>
            <path d="M23.2473 22.3214
L23.3187 22.2856
"/>
            <path d="M23.3187 22.2856
L23.3545 22.2499
"/>
            <path d="M23.3545 22.2499
L23.3902 22.1785
"/>
            <path d="M23.3902 22.1785
L23.3902 21.8928
"/>
            <path d="M23.7473 23.0356
L23.7473 22.6071
"/>
            <path d="M23.7473 22.8214
L22.9973 22.8214
"/>
            <path d="M22.9973 22.8214
L23.1045 22.7499
"/>
            <path d="M23.1045 22.7499
L23.1759 22.6785
"/>
            <path d="M23.1759 22.6785
L23.2116 22.6071
"/>
            <path d="M23.7473 23.3928
L23.7473 23.5356
"/>
            <path d="M23.7473 23.5356
L23.7116 23.6071
"/>
            <path d="M23.7116 23.6071
L23.6759 23.6428
"/>
            <path d="M23.6759 23.6428
L23.5687 23.7142
"/>
            <path d="M23.5687 23.7142
L23.4259 23.7499
"/>
            <path d="M23.4259 23.7499
L23.1402 23.7499
"/>
            <path d="M23.1402 23.7499
L23.0687 23.7142
"/>
            <path d="M23.0687 23.7142
L23.0330 23.6785
"/>
            <path d="M23.0330 23.6785
L22.9973 23.6071
"/>
            <path d="M22.9973 23.6071
L22.9973 23.4642
"/>
            <path d="M22.9973 23.4642
L23.0330 23.3928
"/>
            <path d="M23.0330 23.3928
L23.0687 23.3571
"/>
            <path d="M23.0687 23.3571
L23.1402 23.3214
"/>
            <path d="M23.1402 23.3214
L23.3187 23.3214
"/>
            <path d="M23.3187 23.3214
L23.3902 23.3571
"/>
            <path d="M23.3902 23.3571
L23.4259 23.3928
"/>
            <path d="M23.4259 23.3928
L23.4616 23.4642
"/>
            <path d="M23.4616 23.4642
L23.4616 23.6071
"/>
            <path d="M23.4616 23.6071
L23.4259 23.6785
"/>
            <path d="M23.4259 23.6785
L23.3902 23.7142
"/>
            <path d="M23.3902 23.7142
L23.3187 23.7499
"/>
        </g>
        <text x="36.4814" y="22.6875"
              transform="scale(-1 1) translate(-72.962714 0)"
              textLength="1.6893" font-size="1.0000" lengthAdjust="spacingAndGlyphs"
              text-anchor="middle" opacity="0">R7
        </text>
        <g class="stroked-text">
            <desc>R7</desc>
            <path d="M36.6064 22.6595
L36.8564 22.3023
"/>
            <path d="M37.0349 22.6595
L37.0349 21.9095
"/>
            <path d="M37.0349 21.9095
L36.7492 21.9095
"/>
            <path d="M36.7492 21.9095
L36.6778 21.9452
"/>
            <path d="M36.6778 21.9452
L36.6421 21.9809
"/>
            <path d="M36.6421 21.9809
L36.6064 22.0523
"/>
            <path d="M36.6064 22.0523
L36.6064 22.1595
"/>
            <path d="M36.6064 22.1595
L36.6421 22.2309
"/>
            <path d="M36.6421 22.2309
L36.6778 22.2666
"/>
            <path d="M36.6778 22.2666
L36.7492 22.3023
"/>
            <path d="M36.7492 22.3023
L37.0349 22.3023
"/>
            <path d="M36.3564 21.9095
L35.8564 21.9095
"/>
            <path d="M35.8564 21.9095
L36.1778 22.6595
"/>
        </g>
        <text x="40.6724" y="18.8765"
              transform="scale(-1 1) translate(-81.344714 0)"
              textLength="1.6893" font-size="1.0000" lengthAdjust="spacingAndGlyphs"
              text-anchor="middle" opacity="0">R4
        </text>
        <g class="stroked-text">
            <desc>R4</desc>
            <path d="M40.7974 18.8485
L41.0474 18.4913
"/>
            <path d="M41.2259 18.8485
L41.2259 18.0985
"/>
            <path d="M41.2259 18.0985
L40.9402 18.0985
"/>
            <path d="M40.9402 18.0985
L40.8688 18.1342
"/>
            <path d="M40.8688 18.1342
L40.8331 18.1699
"/>
            <path d="M40.8331 18.1699
L40.7974 18.2413
"/>
            <path d="M40.7974 18.2413
L40.7974 18.3485
"/>
            <path d="M40.7974 18.3485
L40.8331 18.4199
"/>
            <path d="M40.8331 18.4199
L40.8688 18.4556
"/>
            <path d="M40.8688 18.4556
L40.9402 18.4913
"/>
            <path d="M40.9402 18.4913
L41.2259 18.4913
"/>
            <path d="M40.1545 18.3485
L40.1545 18.8485
"/>
            <path d="M40.3331 18.0627
L40.5116 18.5985
"/>
            <path d="M40.5116 18.5985
L40.0474 18.5985
"/>
        </g>
        <text x="44.3554" y="18.8765"
              transform="scale(-1 1) translate(-88.710714 0)"
              textLength="1.6893" font-size="1.0000" lengthAdjust="spacingAndGlyphs"
              text-anchor="middle" opacity="0">C4
        </text>
        <g class="stroked-text">
            <desc>C4</desc>
            <path d="M44.4804 18.7770
L44.5161 18.8127
"/>
            <path d="M44.5161 18.8127
L44.6232 18.8485
"/>
            <path d="M44.6232 18.8485
L44.6946 18.8485
"/>
            <path d="M44.6946 18.8485
L44.8018 18.8127
"/>
            <path d="M44.8018 18.8127
L44.8732 18.7413
"/>
            <path d="M44.8732 18.7413
L44.9089 18.6699
"/>
            <path d="M44.9089 18.6699
L44.9446 18.5270
"/>
            <path d="M44.9446 18.5270
L44.9446 18.4199
"/>
            <path d="M44.9446 18.4199
L44.9089 18.2770
"/>
            <path d="M44.9089 18.2770
L44.8732 18.2056
"/>
            <path d="M44.8732 18.2056
L44.8018 18.1342
"/>
            <path d="M44.8018 18.1342
L44.6946 18.0985
"/>
            <path d="M44.6946 18.0985
L44.6232 18.0985
"/>
            <path d="M44.6232 18.0985
L44.5161 18.1342
"/>
            <path d="M44.5161 18.1342
L44.4804 18.1699
"/>
            <path d="M43.8375 18.3485
L43.8375 18.8485
"/>
            <path d="M44.0161 18.0627
L44.1946 18.5985
"/>
            <path d="M44.1946 18.5985
L43.7304 18.5985
"/>
        </g>
        <text x="28.8614" y="9.6055"
              transform="scale(-1 1) translate(-57.722714 0)"
              textLength="1.6893" font-size="1.0000" lengthAdjust="spacingAndGlyphs"
              text-anchor="middle" opacity="0">C5
        </text>
        <g class="stroked-text">
            <desc>C5</desc>
            <path d="M28.9864 9.5060
L29.0221 9.5418
"/>
            <path d="M29.0221 9.5418
L29.1292 9.5775
"/>
            <path d="M29.1292 9.5775
L29.2006 9.5775
"/>
            <path d="M29.2006 9.5775
L29.3078 9.5418
"/>
            <path d="M29.3078 9.5418
L29.3792 9.4703
"/>
            <path d="M29.3792 9.4703
L29.4149 9.3989
"/>
            <path d="M29.4149 9.3989
L29.4506 9.2560
"/>
            <path d="M29.4506 9.2560
L29.4506 9.1489
"/>
            <path d="M29.4506 9.1489
L29.4149 9.0060
"/>
            <path d="M29.4149 9.0060
L29.3792 8.9346
"/>
            <path d="M29.3792 8.9346
L29.3078 8.8632
"/>
            <path d="M29.3078 8.8632
L29.2006 8.8275
"/>
            <path d="M29.2006 8.8275
L29.1292 8.8275
"/>
            <path d="M29.1292 8.8275
L29.0221 8.8632
"/>
            <path d="M29.0221 8.8632
L28.9864 8.8989
"/>
            <path d="M28.3078 8.8275
L28.6649 8.8275
"/>
            <path d="M28.6649 8.8275
L28.7006 9.1846
"/>
            <path d="M28.7006 9.1846
L28.6649 9.1489
"/>
            <path d="M28.6649 9.1489
L28.5935 9.1132
"/>
            <path d="M28.5935 9.1132
L28.4149 9.1132
"/>
            <path d="M28.4149 9.1132
L28.3435 9.1489
"/>
            <path d="M28.3435 9.1489
L28.3078 9.1846
"/>
            <path d="M28.3078 9.1846
L28.2721 9.2560
"/>
            <path d="M28.2721 9.2560
L28.2721 9.4346
"/>
            <path d="M28.2721 9.4346
L28.3078 9.5060
"/>
            <path d="M28.3078 9.5060
L28.3435 9.5418
"/>
            <path d="M28.3435 9.5418
L28.4149 9.5775
"/>
            <path d="M28.4149 9.5775
L28.5935 9.5775
"/>
            <path d="M28.5935 9.5775
L28.6649 9.5418
"/>
            <path d="M28.6649 9.5418
L28.7006 9.5060
"/>
        </g>
        <text x="27.8454" y="17.2255"
              transform="scale(-1 1) translate(-55.690714 0)"
              textLength="2.4036" font-size="1.0000" lengthAdjust="spacingAndGlyphs"
              text-anchor="middle" opacity="0">R16
        </text>
        <g class="stroked-text">
            <desc>R16</desc>
            <path d="M28.3275 17.1975
L28.5775 16.8403
"/>
            <path d="M28.7561 17.1975
L28.7561 16.4475
"/>
            <path d="M28.7561 16.4475
L28.4704 16.4475
"/>
            <path d="M28.4704 16.4475
L28.3989 16.4832
"/>
            <path d="M28.3989 16.4832
L28.3632 16.5189
"/>
            <path d="M28.3632 16.5189
L28.3275 16.5903
"/>
            <path d="M28.3275 16.5903
L28.3275 16.6975
"/>
            <path d="M28.3275 16.6975
L28.3632 16.7689
"/>
            <path d="M28.3632 16.7689
L28.3989 16.8046
"/>
            <path d="M28.3989 16.8046
L28.4704 16.8403
"/>
            <path d="M28.4704 16.8403
L28.7561 16.8403
"/>
            <path d="M27.6132 17.1975
L28.0418 17.1975
"/>
            <path d="M27.8275 17.1975
L27.8275 16.4475
"/>
            <path d="M27.8275 16.4475
L27.8989 16.5546
"/>
            <path d="M27.8989 16.5546
L27.9704 16.6260
"/>
            <path d="M27.9704 16.6260
L28.0418 16.6617
"/>
            <path d="M26.9704 16.4475
L27.1132 16.4475
"/>
            <path d="M27.1132 16.4475
L27.1846 16.4832
"/>
            <path d="M27.1846 16.4832
L27.2204 16.5189
"/>
            <path d="M27.2204 16.5189
L27.2918 16.6260
"/>
            <path d="M27.2918 16.6260
L27.3275 16.7689
"/>
            <path d="M27.3275 16.7689
L27.3275 17.0546
"/>
            <path d="M27.3275 17.0546
L27.2918 17.1260
"/>
            <path d="M27.2918 17.1260
L27.2561 17.1617
"/>
            <path d="M27.2561 17.1617
L27.1846 17.1975
"/>
            <path d="M27.1846 17.1975
L27.0418 17.1975
"/>
            <path d="M27.0418 17.1975
L26.9704 17.1617
"/>
            <path d="M26.9704 17.1617
L26.9346 17.1260
"/>
            <path d="M26.9346 17.1260
L26.8989 17.0546
"/>
            <path d="M26.8989 17.0546
L26.8989 16.8760
"/>
            <path d="M26.8989 16.8760
L26.9346 16.8046
"/>
            <path d="M26.9346 16.8046
L26.9704 16.7689
"/>
            <path d="M26.9704 16.7689
L27.0418 16.7332
"/>
            <path d="M27.0418 16.7332
L27.1846 16.7332
"/>
            <path d="M27.1846 16.7332
L27.2561 16.7689
"/>
            <path d="M27.2561 16.7689
L27.2918 16.8046
"/>
            <path d="M27.2918 16.8046
L27.3275 16.8760
"/>
        </g>
        <text x="31.9094" y="22.6865"
              transform="scale(-1 1) translate(-63.818714 0)"
              textLength="1.6893" font-size="1.0000" lengthAdjust="spacingAndGlyphs"
              text-anchor="middle" opacity="0">R8
        </text>
        <g class="stroked-text">
            <desc>R8</desc>
            <path d="M32.0344 22.6585
L32.2844 22.3013
"/>
            <path d="M32.4629 22.6585
L32.4629 21.9085
"/>
            <path d="M32.4629 21.9085
L32.1772 21.9085
"/>
            <path d="M32.1772 21.9085
L32.1058 21.9442
"/>
            <path d="M32.1058 21.9442
L32.0701 21.9799
"/>
            <path d="M32.0701 21.9799
L32.0344 22.0513
"/>
            <path d="M32.0344 22.0513
L32.0344 22.1585
"/>
            <path d="M32.0344 22.1585
L32.0701 22.2299
"/>
            <path d="M32.0701 22.2299
L32.1058 22.2656
"/>
            <path d="M32.1058 22.2656
L32.1772 22.3013
"/>
            <path d="M32.1772 22.3013
L32.4629 22.3013
"/>
            <path d="M31.6058 22.2299
L31.6772 22.1942
"/>
            <path d="M31.6772 22.1942
L31.7129 22.1585
"/>
            <path d="M31.7129 22.1585
L31.7486 22.0870
"/>
            <path d="M31.7486 22.0870
L31.7486 22.0513
"/>
            <path d="M31.7486 22.0513
L31.7129 21.9799
"/>
            <path d="M31.7129 21.9799
L31.6772 21.9442
"/>
            <path d="M31.6772 21.9442
L31.6058 21.9085
"/>
            <path d="M31.6058 21.9085
L31.4629 21.9085
"/>
            <path d="M31.4629 21.9085
L31.3915 21.9442
"/>
            <path d="M31.3915 21.9442
L31.3558 21.9799
"/>
            <path d="M31.3558 21.9799
L31.3201 22.0513
"/>
            <path d="M31.3201 22.0513
L31.3201 22.0870
"/>
            <path d="M31.3201 22.0870
L31.3558 22.1585
"/>
            <path d="M31.3558 22.1585
L31.3915 22.1942
"/>
            <path d="M31.3915 22.1942
L31.4629 22.2299
"/>
            <path d="M31.4629 22.2299
L31.6058 22.2299
"/>
            <path d="M31.6058 22.2299
L31.6772 22.2656
"/>
            <path d="M31.6772 22.2656
L31.7129 22.3013
"/>
            <path d="M31.7129 22.3013
L31.7486 22.3727
"/>
            <path d="M31.7486 22.3727
L31.7486 22.5156
"/>
            <path d="M31.7486 22.5156
L31.7129 22.5870
"/>
            <path d="M31.7129 22.5870
L31.6772 22.6227
"/>
            <path d="M31.6772 22.6227
L31.6058 22.6585
"/>
            <path d="M31.6058 22.6585
L31.4629 22.6585
"/>
            <path d="M31.4629 22.6585
L31.3915 22.6227
"/>
            <path d="M31.3915 22.6227
L31.3558 22.5870
"/>
            <path d="M31.3558 22.5870
L31.3201 22.5156
"/>
            <path d="M31.3201 22.5156
L31.3201 22.3727
"/>
            <path d="M31.3201 22.3727
L31.3558 22.3013
"/>
            <path d="M31.3558 22.3013
L31.3915 22.2656
"/>
            <path d="M31.3915 22.2656
L31.4629 22.2299
"/>
        </g>
        <text x="40.5454" y="24.8455"
              transform="scale(-1 1) translate(-81.090714 0)"
              textLength="1.6893" font-size="1.0000" lengthAdjust="spacingAndGlyphs"
              text-anchor="middle" opacity="0">R3
        </text>
        <g class="stroked-text">
            <desc>R3</desc>
            <path d="M40.6704 24.8175
L40.9204 24.4603
"/>
            <path d="M41.0989 24.8175
L41.0989 24.0675
"/>
            <path d="M41.0989 24.0675
L40.8132 24.0675
"/>
            <path d="M40.8132 24.0675
L40.7418 24.1032
"/>
            <path d="M40.7418 24.1032
L40.7061 24.1389
"/>
            <path d="M40.7061 24.1389
L40.6704 24.2103
"/>
            <path d="M40.6704 24.2103
L40.6704 24.3175
"/>
            <path d="M40.6704 24.3175
L40.7061 24.3889
"/>
            <path d="M40.7061 24.3889
L40.7418 24.4246
"/>
            <path d="M40.7418 24.4246
L40.8132 24.4603
"/>
            <path d="M40.8132 24.4603
L41.0989 24.4603
"/>
            <path d="M40.4204 24.0675
L39.9561 24.0675
"/>
            <path d="M39.9561 24.0675
L40.2061 24.3532
"/>
            <path d="M40.2061 24.3532
L40.0989 24.3532
"/>
            <path d="M40.0989 24.3532
L40.0275 24.3889
"/>
            <path d="M40.0275 24.3889
L39.9918 24.4246
"/>
            <path d="M39.9918 24.4246
L39.9561 24.4960
"/>
            <path d="M39.9561 24.4960
L39.9561 24.6746
"/>
            <path d="M39.9561 24.6746
L39.9918 24.7460
"/>
            <path d="M39.9918 24.7460
L40.0275 24.7817
"/>
            <path d="M40.0275 24.7817
L40.0989 24.8175
"/>
            <path d="M40.0989 24.8175
L40.3132 24.8175
"/>
            <path d="M40.3132 24.8175
L40.3846 24.7817
"/>
            <path d="M40.3846 24.7817
L40.4204 24.7460
"/>
        </g>
        <text x="39.1484" y="9.6055"
              transform="scale(-1 1) translate(-78.296714 0)"
              textLength="1.6893" font-size="1.0000" lengthAdjust="spacingAndGlyphs"
              text-anchor="middle" opacity="0">C6
        </text>
        <g class="stroked-text">
            <desc>C6</desc>
            <path d="M39.2734 9.5060
L39.3091 9.5418
"/>
            <path d="M39.3091 9.5418
L39.4162 9.5775
"/>
            <path d="M39.4162 9.5775
L39.4876 9.5775
"/>
            <path d="M39.4876 9.5775
L39.5948 9.5418
"/>
            <path d="M39.5948 9.5418
L39.6662 9.4703
"/>
            <path d="M39.6662 9.4703
L39.7019 9.3989
"/>
            <path d="M39.7019 9.3989
L39.7376 9.2560
"/>
            <path d="M39.7376 9.2560
L39.7376 9.1489
"/>
            <path d="M39.7376 9.1489
L39.7019 9.0060
"/>
            <path d="M39.7019 9.0060
L39.6662 8.9346
"/>
            <path d="M39.6662 8.9346
L39.5948 8.8632
"/>
            <path d="M39.5948 8.8632
L39.4876 8.8275
"/>
            <path d="M39.4876 8.8275
L39.4162 8.8275
"/>
            <path d="M39.4162 8.8275
L39.3091 8.8632
"/>
            <path d="M39.3091 8.8632
L39.2734 8.8989
"/>
            <path d="M38.6305 8.8275
L38.7734 8.8275
"/>
            <path d="M38.7734 8.8275
L38.8448 8.8632
"/>
            <path d="M38.8448 8.8632
L38.8805 8.8989
"/>
            <path d="M38.8805 8.8989
L38.9519 9.0060
"/>
            <path d="M38.9519 9.0060
L38.9876 9.1489
"/>
            <path d="M38.9876 9.1489
L38.9876 9.4346
"/>
            <path d="M38.9876 9.4346
L38.9519 9.5060
"/>
            <path d="M38.9519 9.5060
L38.9162 9.5418
"/>
            <path d="M38.9162 9.5418
L38.8448 9.5775
"/>
            <path d="M38.8448 9.5775
L38.7019 9.5775
"/>
            <path d="M38.7019 9.5775
L38.6305 9.5418
"/>
            <path d="M38.6305 9.5418
L38.5948 9.5060
"/>
            <path d="M38.5948 9.5060
L38.5591 9.4346
"/>
            <path d="M38.5591 9.4346
L38.5591 9.2560
"/>
            <path d="M38.5591 9.2560
L38.5948 9.1846
"/>
            <path d="M38.5948 9.1846
L38.6305 9.1489
"/>
            <path d="M38.6305 9.1489
L38.7019 9.1132
"/>
            <path d="M38.7019 9.1132
L38.8448 9.1132
"/>
            <path d="M38.8448 9.1132
L38.9162 9.1489
"/>
            <path d="M38.9162 9.1489
L38.9519 9.1846
"/>
            <path d="M38.9519 9.1846
L38.9876 9.2560
"/>
        </g>
        <text x="31.9094" y="28.0495"
              transform="scale(-1 1) translate(-63.818714 0)"
              textLength="1.6893" font-size="1.0000" lengthAdjust="spacingAndGlyphs"
              text-anchor="middle" opacity="0">C8
        </text>
        <g class="stroked-text">
            <desc>C8</desc>
            <path d="M32.0344 27.9500
L32.0701 27.9857
"/>
            <path d="M32.0701 27.9857
L32.1772 28.0215
"/>
            <path d="M32.1772 28.0215
L32.2486 28.0215
"/>
            <path d="M32.2486 28.0215
L32.3558 27.9857
"/>
            <path d="M32.3558 27.9857
L32.4272 27.9143
"/>
            <path d="M32.4272 27.9143
L32.4629 27.8429
"/>
            <path d="M32.4629 27.8429
L32.4986 27.7000
"/>
            <path d="M32.4986 27.7000
L32.4986 27.5929
"/>
            <path d="M32.4986 27.5929
L32.4629 27.4500
"/>
            <path d="M32.4629 27.4500
L32.4272 27.3786
"/>
            <path d="M32.4272 27.3786
L32.3558 27.3072
"/>
            <path d="M32.3558 27.3072
L32.2486 27.2715
"/>
            <path d="M32.2486 27.2715
L32.1772 27.2715
"/>
            <path d="M32.1772 27.2715
L32.0701 27.3072
"/>
            <path d="M32.0701 27.3072
L32.0344 27.3429
"/>
            <path d="M31.6058 27.5929
L31.6772 27.5572
"/>
            <path d="M31.6772 27.5572
L31.7129 27.5215
"/>
            <path d="M31.7129 27.5215
L31.7486 27.4500
"/>
            <path d="M31.7486 27.4500
L31.7486 27.4143
"/>
            <path d="M31.7486 27.4143
L31.7129 27.3429
"/>
            <path d="M31.7129 27.3429
L31.6772 27.3072
"/>
            <path d="M31.6772 27.3072
L31.6058 27.2715
"/>
            <path d="M31.6058 27.2715
L31.4629 27.2715
"/>
            <path d="M31.4629 27.2715
L31.3915 27.3072
"/>
            <path d="M31.3915 27.3072
L31.3558 27.3429
"/>
            <path d="M31.3558 27.3429
L31.3201 27.4143
"/>
            <path d="M31.3201 27.4143
L31.3201 27.4500
"/>
            <path d="M31.3201 27.4500
L31.3558 27.5215
"/>
            <path d="M31.3558 27.5215
L31.3915 27.5572
"/>
            <path d="M31.3915 27.5572
L31.4629 27.5929
"/>
            <path d="M31.4629 27.5929
L31.6058 27.5929
"/>
            <path d="M31.6058 27.5929
L31.6772 27.6286
"/>
            <path d="M31.6772 27.6286
L31.7129 27.6643
"/>
            <path d="M31.7129 27.6643
L31.7486 27.7357
"/>
            <path d="M31.7486 27.7357
L31.7486 27.8786
"/>
            <path d="M31.7486 27.8786
L31.7129 27.9500
"/>
            <path d="M31.7129 27.9500
L31.6772 27.9857
"/>
            <path d="M31.6772 27.9857
L31.6058 28.0215
"/>
            <path d="M31.6058 28.0215
L31.4629 28.0215
"/>
            <path d="M31.4629 28.0215
L31.3915 27.9857
"/>
            <path d="M31.3915 27.9857
L31.3558 27.9500
"/>
            <path d="M31.3558 27.9500
L31.3201 27.8786
"/>
            <path d="M31.3201 27.8786
L31.3201 27.7357
"/>
            <path d="M31.3201 27.7357
L31.3558 27.6643
"/>
            <path d="M31.3558 27.6643
L31.3915 27.6286
"/>
            <path d="M31.3915 27.6286
L31.4629 27.5929
"/>
        </g>
        <text x="27.8454" y="24.8455"
              transform="scale(-1 1) translate(-55.690714 0)"
              textLength="2.4036" font-size="1.0000" lengthAdjust="spacingAndGlyphs"
              text-anchor="middle" opacity="0">R15
        </text>
        <g class="stroked-text">
            <desc>R15</desc>
            <path d="M28.3275 24.8175
L28.5775 24.4603
"/>
            <path d="M28.7561 24.8175
L28.7561 24.0675
"/>
            <path d="M28.7561 24.0675
L28.4704 24.0675
"/>
            <path d="M28.4704 24.0675
L28.3989 24.1032
"/>
            <path d="M28.3989 24.1032
L28.3632 24.1389
"/>
            <path d="M28.3632 24.1389
L28.3275 24.2103
"/>
            <path d="M28.3275 24.2103
L28.3275 24.3175
"/>
            <path d="M28.3275 24.3175
L28.3632 24.3889
"/>
            <path d="M28.3632 24.3889
L28.3989 24.4246
"/>
            <path d="M28.3989 24.4246
L28.4704 24.4603
"/>
            <path d="M28.4704 24.4603
L28.7561 24.4603
"/>
            <path d="M27.6132 24.8175
L28.0418 24.8175
"/>
            <path d="M27.8275 24.8175
L27.8275 24.0675
"/>
            <path d="M27.8275 24.0675
L27.8989 24.1746
"/>
            <path d="M27.8989 24.1746
L27.9704 24.2460
"/>
            <path d="M27.9704 24.2460
L28.0418 24.2817
"/>
            <path d="M26.9346 24.0675
L27.2918 24.0675
"/>
            <path d="M27.2918 24.0675
L27.3275 24.4246
"/>
            <path d="M27.3275 24.4246
L27.2918 24.3889
"/>
            <path d="M27.2918 24.3889
L27.2204 24.3532
"/>
            <path d="M27.2204 24.3532
L27.0418 24.3532
"/>
            <path d="M27.0418 24.3532
L26.9704 24.3889
"/>
            <path d="M26.9704 24.3889
L26.9346 24.4246
"/>
            <path d="M26.9346 24.4246
L26.8989 24.4960
"/>
            <path d="M26.8989 24.4960
L26.8989 24.6746
"/>
            <path d="M26.8989 24.6746
L26.9346 24.7460
"/>
            <path d="M26.9346 24.7460
L26.9704 24.7817
"/>
            <path d="M26.9704 24.7817
L27.0418 24.8175
"/>
            <path d="M27.0418 24.8175
L27.2204 24.8175
"/>
            <path d="M27.2204 24.8175
L27.2918 24.7817
"/>
            <path d="M27.2918 24.7817
L27.3275 24.7460
"/>
        </g>
        <text x="48.1404" y="10.6215"
              transform="scale(-1 1) translate(-96.280714 0)"
              textLength="1.5107" font-size="1.0000" lengthAdjust="spacingAndGlyphs"
              text-anchor="middle" opacity="0">J2
        </text>
        <g class="stroked-text">
            <desc>J2</desc>
            <path d="M48.3904 9.8435
L48.3904 10.3792
"/>
            <path d="M48.3904 10.3792
L48.4261 10.4863
"/>
            <path d="M48.4261 10.4863
L48.4975 10.5577
"/>
            <path d="M48.4975 10.5577
L48.6046 10.5935
"/>
            <path d="M48.6046 10.5935
L48.6761 10.5935
"/>
            <path d="M48.0689 9.9149
L48.0332 9.8792
"/>
            <path d="M48.0332 9.8792
L47.9618 9.8435
"/>
            <path d="M47.9618 9.8435
L47.7832 9.8435
"/>
            <path d="M47.7832 9.8435
L47.7118 9.8792
"/>
            <path d="M47.7118 9.8792
L47.6761 9.9149
"/>
            <path d="M47.6761 9.9149
L47.6404 9.9863
"/>
            <path d="M47.6404 9.9863
L47.6404 10.0578
"/>
            <path d="M47.6404 10.0578
L47.6761 10.1649
"/>
            <path d="M47.6761 10.1649
L48.1046 10.5935
"/>
            <path d="M48.1046 10.5935
L47.6404 10.5935
"/>
        </g>
        <text x="31.9094" y="13.2875"
              transform="scale(-1 1) translate(-63.818714 0)"
              textLength="1.6893" font-size="1.0000" lengthAdjust="spacingAndGlyphs"
              text-anchor="middle" opacity="0">R5
        </text>
        <g class="stroked-text">
            <desc>R5</desc>
            <path d="M32.0344 13.2595
L32.2844 12.9023
"/>
            <path d="M32.4629 13.2595
L32.4629 12.5095
"/>
            <path d="M32.4629 12.5095
L32.1772 12.5095
"/>
            <path d="M32.1772 12.5095
L32.1058 12.5452
"/>
            <path d="M32.1058 12.5452
L32.0701 12.5809
"/>
            <path d="M32.0701 12.5809
L32.0344 12.6523
"/>
            <path d="M32.0344 12.6523
L32.0344 12.7595
"/>
            <path d="M32.0344 12.7595
L32.0701 12.8309
"/>
            <path d="M32.0701 12.8309
L32.1058 12.8666
"/>
            <path d="M32.1058 12.8666
L32.1772 12.9023
"/>
            <path d="M32.1772 12.9023
L32.4629 12.9023
"/>
            <path d="M31.3558 12.5095
L31.7129 12.5095
"/>
            <path d="M31.7129 12.5095
L31.7486 12.8666
"/>
            <path d="M31.7486 12.8666
L31.7129 12.8309
"/>
            <path d="M31.7129 12.8309
L31.6415 12.7952
"/>
            <path d="M31.6415 12.7952
L31.4629 12.7952
"/>
            <path d="M31.4629 12.7952
L31.3915 12.8309
"/>
            <path d="M31.3915 12.8309
L31.3558 12.8666
"/>
            <path d="M31.3558 12.8666
L31.3201 12.9380
"/>
            <path d="M31.3201 12.9380
L31.3201 13.1166
"/>
            <path d="M31.3201 13.1166
L31.3558 13.1880
"/>
            <path d="M31.3558 13.1880
L31.3915 13.2237
"/>
            <path d="M31.3915 13.2237
L31.4629 13.2595
"/>
            <path d="M31.4629 13.2595
L31.6415 13.2595
"/>
            <path d="M31.6415 13.2595
L31.7129 13.2237
"/>
            <path d="M31.7129 13.2237
L31.7486 13.1880
"/>
        </g>
        <text x="15.8804" y="14.1775"
              transform="scale(-1 1) translate(-31.760714 0)"
              textLength="1.5107" font-size="1.0000" lengthAdjust="spacingAndGlyphs"
              text-anchor="middle" opacity="0">J1
        </text>
        <g class="stroked-text">
            <desc>J1</desc>
            <path d="M16.1304 13.3995
L16.1304 13.9352
"/>
            <path d="M16.1304 13.9352
L16.1661 14.0423
"/>
            <path d="M16.1661 14.0423
L16.2375 14.1137
"/>
            <path d="M16.2375 14.1137
L16.3446 14.1495
"/>
            <path d="M16.3446 14.1495
L16.4161 14.1495
"/>
            <path d="M15.3804 14.1495
L15.8089 14.1495
"/>
            <path d="M15.5946 14.1495
L15.5946 13.3995
"/>
            <path d="M15.5946 13.3995
L15.6661 13.5066
"/>
            <path d="M15.6661 13.5066
L15.7375 13.5780
"/>
            <path d="M15.7375 13.5780
L15.8089 13.6137
"/>
        </g>
        <text x="27.8454" y="11.2575"
              transform="scale(-1 1) translate(-55.690714 0)"
              textLength="2.4036" font-size="1.0000" lengthAdjust="spacingAndGlyphs"
              text-anchor="middle" opacity="0">R13
        </text>
        <g class="stroked-text">
            <desc>R13</desc>
            <path d="M28.3275 11.2295
L28.5775 10.8723
"/>
            <path d="M28.7561 11.2295
L28.7561 10.4795
"/>
            <path d="M28.7561 10.4795
L28.4704 10.4795
"/>
            <path d="M28.4704 10.4795
L28.3989 10.5152
"/>
            <path d="M28.3989 10.5152
L28.3632 10.5509
"/>
            <path d="M28.3632 10.5509
L28.3275 10.6223
"/>
            <path d="M28.3275 10.6223
L28.3275 10.7295
"/>
            <path d="M28.3275 10.7295
L28.3632 10.8009
"/>
            <path d="M28.3632 10.8009
L28.3989 10.8366
"/>
            <path d="M28.3989 10.8366
L28.4704 10.8723
"/>
            <path d="M28.4704 10.8723
L28.7561 10.8723
"/>
            <path d="M27.6132 11.2295
L28.0418 11.2295
"/>
            <path d="M27.8275 11.2295
L27.8275 10.4795
"/>
            <path d="M27.8275 10.4795
L27.8989 10.5866
"/>
            <path d="M27.8989 10.5866
L27.9704 10.6580
"/>
            <path d="M27.9704 10.6580
L28.0418 10.6937
"/>
            <path d="M27.3632 10.4795
L26.8989 10.4795
"/>
            <path d="M26.8989 10.4795
L27.1489 10.7652
"/>
            <path d="M27.1489 10.7652
L27.0418 10.7652
"/>
            <path d="M27.0418 10.7652
L26.9704 10.8009
"/>
            <path d="M26.9704 10.8009
L26.9346 10.8366
"/>
            <path d="M26.9346 10.8366
L26.8989 10.9080
"/>
            <path d="M26.8989 10.9080
L26.8989 11.0866
"/>
            <path d="M26.8989 11.0866
L26.9346 11.1580
"/>
            <path d="M26.9346 11.1580
L26.9704 11.1937
"/>
            <path d="M26.9704 11.1937
L27.0418 11.2295
"/>
            <path d="M27.0418 11.2295
L27.2561 11.2295
"/>
            <path d="M27.2561 11.2295
L27.3275 11.1937
"/>
            <path d="M27.3275 11.1937
L27.3632 11.1580
"/>
        </g>
        <text x="36.4814" y="28.1475"
              transform="scale(-1 1) translate(-72.962714 0)"
              textLength="1.6893" font-size="1.0000" lengthAdjust="spacingAndGlyphs"
              text-anchor="middle" opacity="0">C7
        </text>
        <g class="stroked-text">
            <desc>C7</desc>
            <path d="M36.6064 28.0480
L36.6421 28.0837
"/>
            <path d="M36.6421 28.0837
L36.7492 28.1195
"/>
            <path d="M36.7492 28.1195
L36.8206 28.1195
"/>
            <path d="M36.8206 28.1195
L36.9278 28.0837
"/>
            <path d="M36.9278 28.0837
L36.9992 28.0123
"/>
            <path d="M36.9992 28.0123
L37.0349 27.9409
"/>
            <path d="M37.0349 27.9409
L37.0706 27.7980
"/>
            <path d="M37.0706 27.7980
L37.0706 27.6909
"/>
            <path d="M37.0706 27.6909
L37.0349 27.5480
"/>
            <path d="M37.0349 27.5480
L36.9992 27.4766
"/>
            <path d="M36.9992 27.4766
L36.9278 27.4052
"/>
            <path d="M36.9278 27.4052
L36.8206 27.3695
"/>
            <path d="M36.8206 27.3695
L36.7492 27.3695
"/>
            <path d="M36.7492 27.3695
L36.6421 27.4052
"/>
            <path d="M36.6421 27.4052
L36.6064 27.4409
"/>
            <path d="M36.3564 27.3695
L35.8564 27.3695
"/>
            <path d="M35.8564 27.3695
L36.1778 28.1195
"/>
        </g>
        <text x="44.3554" y="11.3835"
              transform="scale(-1 1) translate(-88.710714 0)"
              textLength="1.6893" font-size="1.0000" lengthAdjust="spacingAndGlyphs"
              text-anchor="middle" opacity="0">C2
        </text>
        <g class="stroked-text">
            <desc>C2</desc>
            <path d="M44.4804 11.2840
L44.5161 11.3197
"/>
            <path d="M44.5161 11.3197
L44.6232 11.3555
"/>
            <path d="M44.6232 11.3555
L44.6946 11.3555
"/>
            <path d="M44.6946 11.3555
L44.8018 11.3197
"/>
            <path d="M44.8018 11.3197
L44.8732 11.2483
"/>
            <path d="M44.8732 11.2483
L44.9089 11.1769
"/>
            <path d="M44.9089 11.1769
L44.9446 11.0340
"/>
            <path d="M44.9446 11.0340
L44.9446 10.9269
"/>
            <path d="M44.9446 10.9269
L44.9089 10.7840
"/>
            <path d="M44.9089 10.7840
L44.8732 10.7126
"/>
            <path d="M44.8732 10.7126
L44.8018 10.6412
"/>
            <path d="M44.8018 10.6412
L44.6946 10.6055
"/>
            <path d="M44.6946 10.6055
L44.6232 10.6055
"/>
            <path d="M44.6232 10.6055
L44.5161 10.6412
"/>
            <path d="M44.5161 10.6412
L44.4804 10.6769
"/>
            <path d="M44.1946 10.6769
L44.1589 10.6412
"/>
            <path d="M44.1589 10.6412
L44.0875 10.6055
"/>
            <path d="M44.0875 10.6055
L43.9089 10.6055
"/>
            <path d="M43.9089 10.6055
L43.8375 10.6412
"/>
            <path d="M43.8375 10.6412
L43.8018 10.6769
"/>
            <path d="M43.8018 10.6769
L43.7661 10.7483
"/>
            <path d="M43.7661 10.7483
L43.7661 10.8197
"/>
            <path d="M43.7661 10.8197
L43.8018 10.9269
"/>
            <path d="M43.8018 10.9269
L44.2304 11.3555
"/>
            <path d="M44.2304 11.3555
L43.7661 11.3555
"/>
        </g>
    </g>
    <g style="fill:#000000; fill-opacity:0.0;
stroke:#000000; stroke-width:0.1200; stroke-opacity:1;
stroke-linecap:round; stroke-linejoin:round;">
        <path d="M36.7084 11.9975
L36.2543 11.9975
"/>
        <path d="M36.7084 10.5275
L36.2543 10.5275
"/>
        <path d="M36.8054 17.6125
L36.8054 15.4125
"/>
        <path d="M36.8054 17.6125
L36.8054 19.8125
"/>
        <path d="M31.5854 17.6125
L31.5854 19.8125
"/>
        <path d="M31.5854 19.8025
L31.5854 16.4525
"/>
        <path d="M44.6166 13.2675
L44.0941 13.2675
"/>
        <path d="M44.6166 11.7975
L44.0941 11.7975
"/>
        <path d="M40.7724 15.8075
L40.3183 15.8075
"/>
        <path d="M40.7724 14.3375
L40.3183 14.3375
"/>
        <path d="M44.6166 20.8875
L44.0941 20.8875
"/>
        <path d="M44.6166 19.4175
L44.0941 19.4175
"/>
        <path d="M18.8554 18.4746
L18.8554 18.0204
"/>
        <path d="M20.3254 18.4746
L20.3254 18.0204
"/>
        <path d="M33.4064 38.4135
L32.9523 38.4135
"/>
        <path d="M33.4064 36.9435
L32.9523 36.9435
"/>
        <path d="M28.0724 20.8875
L27.6183 20.8875
"/>
        <path d="M28.0724 19.4175
L27.6183 19.4175
"/>
        <path d="M27.3104 35.4194
L27.3104 35.8736
"/>
        <path d="M25.8404 35.4194
L25.8404 35.8736
"/>
        <path d="M45.7874 36.9965
L44.4574 36.9965
"/>
        <path d="M44.4574 36.9965
L44.4574 34.2965
"/>
        <path d="M44.4574 34.2965
L45.7874 34.2965
"/>
        <path d="M45.7874 34.2965
L45.7874 36.9965
"/>
        <path d="M18.4154 32.5385
L21.9454 32.5385
"/>
        <path d="M18.4154 39.0085
L21.9454 39.0085
"/>
        <path d="M11.4894 20.6678
L11.4894 20.1452
"/>
        <path d="M12.9594 20.6678
L12.9594 20.1452
"/>
        <path d="M40.7724 13.2675
L40.3183 13.2675
"/>
        <path d="M40.7724 11.7975
L40.3183 11.7975
"/>
        <path d="M20.7604 19.2366
L20.7604 18.7824
"/>
        <path d="M22.2304 19.2366
L22.2304 18.7824
"/>
        <path d="M39.0484 35.8736
L39.0484 35.4194
"/>
        <path d="M40.5184 35.8736
L40.5184 35.4194
"/>
        <path d="M22.6654 19.9826
L22.6654 19.5284
"/>
        <path d="M24.1354 19.9826
L24.1354 19.5284
"/>
        <path d="M36.7084 24.6975
L36.2543 24.6975
"/>
        <path d="M36.7084 23.2275
L36.2543 23.2275
"/>
        <path d="M40.7724 23.4275
L40.3183 23.4275
"/>
        <path d="M40.7724 21.9575
L40.3183 21.9575
"/>
        <path d="M44.6166 23.4275
L44.0941 23.4275
"/>
        <path d="M44.6166 21.9575
L44.0941 21.9575
"/>
        <path d="M31.6481 8.4955
L32.1706 8.4955
"/>
        <path d="M31.6481 9.9655
L32.1706 9.9655
"/>
        <path d="M28.0724 15.8075
L27.6183 15.8075
"/>
        <path d="M28.0724 14.3375
L27.6183 14.3375
"/>
        <path d="M31.6823 23.2275
L32.1364 23.2275
"/>
        <path d="M31.6823 24.6975
L32.1364 24.6975
"/>
        <path d="M40.7724 20.8875
L40.3183 20.8875
"/>
        <path d="M40.7724 19.4175
L40.3183 19.4175
"/>
        <path d="M36.7426 9.9655
L36.2201 9.9655
"/>
        <path d="M36.7426 8.4955
L36.2201 8.4955
"/>
        <path d="M31.6481 25.2595
L32.1706 25.2595
"/>
        <path d="M31.6481 26.7295
L32.1706 26.7295
"/>
        <path d="M28.0724 23.4275
L27.6183 23.4275
"/>
        <path d="M28.0724 21.9575
L27.6183 21.9575
"/>
        <path d="M49.4804 26.5725
L46.8104 26.5725
"/>
        <path d="M46.8104 26.5725
L46.8104 11.2125
"/>
        <path d="M46.8104 11.2125
L49.4804 11.2125
"/>
        <path d="M49.4804 11.2125
L49.4804 26.5725
"/>
        <path d="M31.6823 10.5275
L32.1364 10.5275
"/>
        <path d="M31.6823 11.9975
L32.1364 11.9975
"/>
        <path d="M22.1573 10.7815
L22.6114 10.7815
"/>
        <path d="M22.1573 12.2515
L22.6114 12.2515
"/>
        <path d="M17.2304 22.7625
L14.5404 22.7625
"/>
        <path d="M14.5404 22.7625
L14.5404 14.9925
"/>
        <path d="M14.5404 14.9925
L17.2304 14.9925
"/>
        <path d="M17.2304 14.9925
L17.2304 22.7625
"/>
        <path d="M28.0724 13.2675
L27.6183 13.2675
"/>
        <path d="M28.0724 11.7975
L27.6183 11.7975
"/>
        <path d="M36.7426 26.7295
L36.2201 26.7295
"/>
        <path d="M36.7426 25.2595
L36.2201 25.2595
"/>
        <path d="M44.6166 15.8075
L44.0941 15.8075
"/>
        <path d="M44.6166 14.3375
L44.0941 14.3375
"/>
        <g>
        </g>
        <g>
        </g>
        <g>
        </g>
        <g>
        </g>
        <g>
        </g>
        <g>
        </g>
        <g>
        </g>
        <g>
        </g>
        <g>
        </g>
        <g>
        </g>
        <g>
        </g>
        <g>
        </g>
        <g>
        </g>
        <g>
        </g>
        <g>
        </g>
        <g>
        </g>
        <g>
        </g>
        <g>
        </g>
        <g>
        </g>
        <g>
        </g>
        <g>
        </g>
        <g>
        </g>
        <g>
        </g>
        <g>
        </g>
        <g>
        </g>
        <g>
        </g>
        <g>
        </g>
        <g>
        </g>
        <g>
        </g>
        <g>
        </g>
        <g>
        </g>
        <g>
        </g>
        <g>
        </g>
        <g>
        </g>
        <g>
        </g>
        <g>
        </g>
        <g>
        </g>
        <g>
        </g>
        <g>
        </g>
        <g>
        </g>
        <g>
        </g>
        <g>
        </g>
        <g>
        </g>
        <g>
        </g>
        <g>
        </g>
        <g>
        </g>
        <g>
        </g>
        <g>
        </g>
        <g>
        </g>
        <g>
        </g>
        <g>
        </g>
        <g>
        </g>
        <g>
        </g>
        <g>
        </g>
        <g>
        </g>
    </g>
    <g style="fill:#000000; fill-opacity:0.0;
stroke:#000000; stroke-width:0.1200; stroke-opacity:1;
stroke-linecap:round; stroke-linejoin:round;">
    </g>
    <g style="fill:#000000; fill-opacity:0.0;
stroke:#000000; stroke-width:0.1000; stroke-opacity:1;
stroke-linecap:round; stroke-linejoin:round;">
        <path d="M9.4304 37.5515 A3.3020 3.3020 0.0 0 0 12.7324 40.8535"/>
        <path d="M52.2294 40.8535 A3.3020 3.3020 0.0 0 0 55.5314 37.5515"/>
        <path d="M12.7324 1.3565
L52.2294 1.3565
"/>
        <path d="M55.5314 4.6585 A3.3020 3.3020 0.0 0 0 52.2294 1.3565"/>
        <path d="M9.4304 4.6585
L9.4304 37.5515
"/>
        <path d="M52.2294 40.8535
L12.7324 40.8535
"/>
        <path d="M12.7324 1.3565 A3.3020 3.3020 0.0 0 0 9.4304 4.6585"/>
        <path d="M55.5314 4.6585
L55.5314 37.5515
"/>
        <g>
        </g>
        <g>
        </g>
        <g>
        </g>
        <g>
        </g>
        <g>
        </g>
        <g>
        </g>
        <g>
        </g>
        <g>
        </g>
        <g>
        </g>
        <g>
        </g>
        <g>
        </g>
        <g>
        </g>
        <g>
        </g>
        <g>
        </g>
        <g>
        </g>
        <g>
        </g>
        <g>
        </g>
        <g>
        </g>
        <g>
        </g>
        <g>
        </g>
        <g>
        </g>
        <g>
        </g>
        <g>
        </g>
        <g>
        </g>
        <g>
        </g>
        <g>
        </g>
        <g>
        </g>
        <g>
        </g>
        <g>
        </g>
        <g>
        </g>
        <g>
        </g>
        <g>
        </g>
        <g>
        </g>
        <g>
        </g>
        <g>
        </g>
        <g>
        </g>
        <g>
        </g>
        <g>
        </g>
        <g>
        </g>
        <g>
        </g>
        <g>
        </g>
        <g>
        </g>
        <g>
        </g>
        <g>
        </g>
        <g>
        </g>
        <g>
        </g>
        <g>
        </g>
        <g>
        </g>
        <g>
        </g>
        <g>
        </g>
        <g>
        </g>
        <g>
        </g>
        <g>
        </g>
        <g>
        </g>
        <g>
        </g>
    </g>
</svg>
