<?xml version="1.0" standalone="no"?>
<!DOCTYPE svg PUBLIC "-//W3C//DTD SVG 1.1//EN"
        "http://www.w3.org/Graphics/SVG/1.1/DTD/svg11.dtd">
<svg
        xmlns="http://www.w3.org/2000/svg"
        version="1.1"
        width="64.9478mm" height="45.7708mm" viewBox="0.0000 0.0000 64.9478 45.7708">
    <title>SVG Image created as radarMk2-F_Silkscreen.svg date 2023/05/09 18:06:40</title>
    <desc>Image generated by PCBNEW</desc>
    <g style="fill:#000000; fill-opacity:1.0000;stroke:#000000; stroke-opacity:1.0000;
stroke-linecap:round; stroke-linejoin:round;"
       transform="translate(0 0) scale(1 1)">
    </g>
    <g style="fill:#000000; fill-opacity:0.0;
stroke:#000000; stroke-width:0.0000; stroke-opacity:1; 
stroke-linecap:round; stroke-linejoin:round;">
    </g>
    <g style="fill:#000000; fill-opacity:0.0;
stroke:#000000; stroke-width:0.1500; stroke-opacity:1; 
stroke-linecap:round; stroke-linejoin:round;">
        <text x="14.1294" y="27.0105"
              textLength="2.7250" font-size="1.0000" lengthAdjust="spacingAndGlyphs"
              text-anchor="start" opacity="0">LINK
        </text>
        <g class="stroked-text">
            <desc>LINK</desc>
            <path d="M14.6651 26.9187
L14.3079 26.9187
"/>
            <path d="M14.3079 26.9187
L14.3079 26.1687
"/>
            <path d="M14.9151 26.9187
L14.9151 26.1687
"/>
            <path d="M15.2722 26.9187
L15.2722 26.1687
"/>
            <path d="M15.2722 26.1687
L15.7008 26.9187
"/>
            <path d="M15.7008 26.9187
L15.7008 26.1687
"/>
            <path d="M16.0579 26.9187
L16.0579 26.1687
"/>
            <path d="M16.4865 26.9187
L16.1651 26.4901
"/>
            <path d="M16.4865 26.1687
L16.0579 26.5973
"/>
        </g>
        <text x="14.1294" y="25.2325"
              textLength="4.0464" font-size="1.0000" lengthAdjust="spacingAndGlyphs"
              text-anchor="start" opacity="0">POWER
        </text>
        <g class="stroked-text">
            <desc>POWER</desc>
            <path d="M14.3079 25.1407
L14.3079 24.3907
"/>
            <path d="M14.3079 24.3907
L14.5936 24.3907
"/>
            <path d="M14.5936 24.3907
L14.6651 24.4264
"/>
            <path d="M14.6651 24.4264
L14.7008 24.4621
"/>
            <path d="M14.7008 24.4621
L14.7365 24.5336
"/>
            <path d="M14.7365 24.5336
L14.7365 24.6407
"/>
            <path d="M14.7365 24.6407
L14.7008 24.7121
"/>
            <path d="M14.7008 24.7121
L14.6651 24.7479
"/>
            <path d="M14.6651 24.7479
L14.5936 24.7836
"/>
            <path d="M14.5936 24.7836
L14.3079 24.7836
"/>
            <path d="M15.2008 24.3907
L15.3436 24.3907
"/>
            <path d="M15.3436 24.3907
L15.4151 24.4264
"/>
            <path d="M15.4151 24.4264
L15.4865 24.4979
"/>
            <path d="M15.4865 24.4979
L15.5222 24.6407
"/>
            <path d="M15.5222 24.6407
L15.5222 24.8907
"/>
            <path d="M15.5222 24.8907
L15.4865 25.0336
"/>
            <path d="M15.4865 25.0336
L15.4151 25.1050
"/>
            <path d="M15.4151 25.1050
L15.3436 25.1407
"/>
            <path d="M15.3436 25.1407
L15.2008 25.1407
"/>
            <path d="M15.2008 25.1407
L15.1294 25.1050
"/>
            <path d="M15.1294 25.1050
L15.0579 25.0336
"/>
            <path d="M15.0579 25.0336
L15.0222 24.8907
"/>
            <path d="M15.0222 24.8907
L15.0222 24.6407
"/>
            <path d="M15.0222 24.6407
L15.0579 24.4979
"/>
            <path d="M15.0579 24.4979
L15.1294 24.4264
"/>
            <path d="M15.1294 24.4264
L15.2008 24.3907
"/>
            <path d="M15.7722 24.3907
L15.9508 25.1407
"/>
            <path d="M15.9508 25.1407
L16.0936 24.6050
"/>
            <path d="M16.0936 24.6050
L16.2365 25.1407
"/>
            <path d="M16.2365 25.1407
L16.4151 24.3907
"/>
            <path d="M16.7008 24.7479
L16.9508 24.7479
"/>
            <path d="M17.0579 25.1407
L16.7008 25.1407
"/>
            <path d="M16.7008 25.1407
L16.7008 24.3907
"/>
            <path d="M16.7008 24.3907
L17.0579 24.3907
"/>
            <path d="M17.8079 25.1407
L17.5579 24.7836
"/>
            <path d="M17.3794 25.1407
L17.3794 24.3907
"/>
            <path d="M17.3794 24.3907
L17.6651 24.3907
"/>
            <path d="M17.6651 24.3907
L17.7365 24.4264
"/>
            <path d="M17.7365 24.4264
L17.7722 24.4621
"/>
            <path d="M17.7722 24.4621
L17.8079 24.5336
"/>
            <path d="M17.8079 24.5336
L17.8079 24.6407
"/>
            <path d="M17.8079 24.6407
L17.7722 24.7121
"/>
            <path d="M17.7722 24.7121
L17.7365 24.7479
"/>
            <path d="M17.7365 24.7479
L17.6651 24.7836
"/>
            <path d="M17.6651 24.7836
L17.3794 24.7836
"/>
        </g>
        <text x="12.7324" y="11.5105"
              textLength="3.8321" font-size="1.0000" lengthAdjust="spacingAndGlyphs"
              text-anchor="middle" opacity="0">Rev. 2
        </text>
        <g class="stroked-text">
            <desc>Rev. 2</desc>
            <path d="M11.5359 11.4825
L11.2859 11.1253
"/>
            <path d="M11.1074 11.4825
L11.1074 10.7325
"/>
            <path d="M11.1074 10.7325
L11.3931 10.7325
"/>
            <path d="M11.3931 10.7325
L11.4645 10.7682
"/>
            <path d="M11.4645 10.7682
L11.5002 10.8039
"/>
            <path d="M11.5002 10.8039
L11.5359 10.8753
"/>
            <path d="M11.5359 10.8753
L11.5359 10.9825
"/>
            <path d="M11.5359 10.9825
L11.5002 11.0539
"/>
            <path d="M11.5002 11.0539
L11.4645 11.0896
"/>
            <path d="M11.4645 11.0896
L11.3931 11.1253
"/>
            <path d="M11.3931 11.1253
L11.1074 11.1253
"/>
            <path d="M12.1431 11.4467
L12.0716 11.4825
"/>
            <path d="M12.0716 11.4825
L11.9288 11.4825
"/>
            <path d="M11.9288 11.4825
L11.8574 11.4467
"/>
            <path d="M11.8574 11.4467
L11.8216 11.3753
"/>
            <path d="M11.8216 11.3753
L11.8216 11.0896
"/>
            <path d="M11.8216 11.0896
L11.8574 11.0182
"/>
            <path d="M11.8574 11.0182
L11.9288 10.9825
"/>
            <path d="M11.9288 10.9825
L12.0716 10.9825
"/>
            <path d="M12.0716 10.9825
L12.1431 11.0182
"/>
            <path d="M12.1431 11.0182
L12.1788 11.0896
"/>
            <path d="M12.1788 11.0896
L12.1788 11.1610
"/>
            <path d="M12.1788 11.1610
L11.8216 11.2325
"/>
            <path d="M12.4288 10.9825
L12.6074 11.4825
"/>
            <path d="M12.6074 11.4825
L12.7859 10.9825
"/>
            <path d="M13.0716 11.4110
L13.1074 11.4467
"/>
            <path d="M13.1074 11.4467
L13.0716 11.4825
"/>
            <path d="M13.0716 11.4825
L13.0359 11.4467
"/>
            <path d="M13.0359 11.4467
L13.0716 11.4110
"/>
            <path d="M13.0716 11.4110
L13.0716 11.4825
"/>
            <path d="M13.9645 10.8039
L14.0002 10.7682
"/>
            <path d="M14.0002 10.7682
L14.0716 10.7325
"/>
            <path d="M14.0716 10.7325
L14.2502 10.7325
"/>
            <path d="M14.2502 10.7325
L14.3216 10.7682
"/>
            <path d="M14.3216 10.7682
L14.3574 10.8039
"/>
            <path d="M14.3574 10.8039
L14.3931 10.8753
"/>
            <path d="M14.3931 10.8753
L14.3931 10.9467
"/>
            <path d="M14.3931 10.9467
L14.3574 11.0539
"/>
            <path d="M14.3574 11.0539
L13.9288 11.4825
"/>
            <path d="M13.9288 11.4825
L14.3931 11.4825
"/>
        </g>
        <text x="14.1294" y="28.7885"
              textLength="3.4750" font-size="1.0000" lengthAdjust="spacingAndGlyphs"
              text-anchor="start" opacity="0">FAULT
        </text>
        <g class="stroked-text">
            <desc>FAULT</desc>
            <path d="M14.5579 28.3039
L14.3079 28.3039
"/>
            <path d="M14.3079 28.6967
L14.3079 27.9467
"/>
            <path d="M14.3079 27.9467
L14.6651 27.9467
"/>
            <path d="M14.9151 28.4824
L15.2722 28.4824
"/>
            <path d="M14.8436 28.6967
L15.0936 27.9467
"/>
            <path d="M15.0936 27.9467
L15.3436 28.6967
"/>
            <path d="M15.5936 27.9467
L15.5936 28.5539
"/>
            <path d="M15.5936 28.5539
L15.6294 28.6253
"/>
            <path d="M15.6294 28.6253
L15.6651 28.6610
"/>
            <path d="M15.6651 28.6610
L15.7365 28.6967
"/>
            <path d="M15.7365 28.6967
L15.8794 28.6967
"/>
            <path d="M15.8794 28.6967
L15.9508 28.6610
"/>
            <path d="M15.9508 28.6610
L15.9865 28.6253
"/>
            <path d="M15.9865 28.6253
L16.0222 28.5539
"/>
            <path d="M16.0222 28.5539
L16.0222 27.9467
"/>
            <path d="M16.7365 28.6967
L16.3794 28.6967
"/>
            <path d="M16.3794 28.6967
L16.3794 27.9467
"/>
            <path d="M16.8794 27.9467
L17.3079 27.9467
"/>
            <path d="M17.0936 28.6967
L17.0936 27.9467
"/>
        </g>
    </g>
    <g style="fill:#000000; fill-opacity:0.0;
stroke:#000000; stroke-width:0.3000; stroke-opacity:1; 
stroke-linecap:round; stroke-linejoin:round;">
        <text x="45.1174" y="10.5005"
              textLength="6.7500" font-size="1.6667" lengthAdjust="spacingAndGlyphs"
              text-anchor="start" opacity="0">K-LC7
        </text>
        <g class="stroked-text">
            <desc>K-LC7</desc>
            <path d="M45.4150 10.3475
L45.4150 9.0975
"/>
            <path d="M46.1293 10.3475
L45.5935 9.6332
"/>
            <path d="M46.1293 9.0975
L45.4150 9.8118
"/>
            <path d="M46.6650 9.8713
L47.6174 9.8713
"/>
            <path d="M48.8078 10.3475
L48.2126 10.3475
"/>
            <path d="M48.2126 10.3475
L48.2126 9.0975
"/>
            <path d="M49.9388 10.2285
L49.8793 10.2880
"/>
            <path d="M49.8793 10.2880
L49.7007 10.3475
"/>
            <path d="M49.7007 10.3475
L49.5816 10.3475
"/>
            <path d="M49.5816 10.3475
L49.4031 10.2880
"/>
            <path d="M49.4031 10.2880
L49.2840 10.1690
"/>
            <path d="M49.2840 10.1690
L49.2245 10.0499
"/>
            <path d="M49.2245 10.0499
L49.1650 9.8118
"/>
            <path d="M49.1650 9.8118
L49.1650 9.6332
"/>
            <path d="M49.1650 9.6332
L49.2245 9.3951
"/>
            <path d="M49.2245 9.3951
L49.2840 9.2761
"/>
            <path d="M49.2840 9.2761
L49.4031 9.1570
"/>
            <path d="M49.4031 9.1570
L49.5816 9.0975
"/>
            <path d="M49.5816 9.0975
L49.7007 9.0975
"/>
            <path d="M49.7007 9.0975
L49.8793 9.1570
"/>
            <path d="M49.8793 9.1570
L49.9388 9.2166
"/>
            <path d="M50.3555 9.0975
L51.1888 9.0975
"/>
            <path d="M51.1888 9.0975
L50.6531 10.3475
"/>
        </g>
    </g>
    <g style="fill:#000000; fill-opacity:0.0;
stroke:#000000; stroke-width:0.1500; stroke-opacity:1; 
stroke-linecap:round; stroke-linejoin:round;">
        <text x="13.3674" y="12.7805"
              textLength="5.1893" font-size="1.0000" lengthAdjust="spacingAndGlyphs"
              text-anchor="middle" opacity="0">BN 2023
        </text>
        <g class="stroked-text">
            <desc>BN 2023</desc>
            <path d="M11.3138 12.3596
L11.4209 12.3953
"/>
            <path d="M11.4209 12.3953
L11.4566 12.4310
"/>
            <path d="M11.4566 12.4310
L11.4924 12.5025
"/>
            <path d="M11.4924 12.5025
L11.4924 12.6096
"/>
            <path d="M11.4924 12.6096
L11.4566 12.6810
"/>
            <path d="M11.4566 12.6810
L11.4209 12.7167
"/>
            <path d="M11.4209 12.7167
L11.3495 12.7525
"/>
            <path d="M11.3495 12.7525
L11.0638 12.7525
"/>
            <path d="M11.0638 12.7525
L11.0638 12.0025
"/>
            <path d="M11.0638 12.0025
L11.3138 12.0025
"/>
            <path d="M11.3138 12.0025
L11.3852 12.0382
"/>
            <path d="M11.3852 12.0382
L11.4209 12.0739
"/>
            <path d="M11.4209 12.0739
L11.4566 12.1453
"/>
            <path d="M11.4566 12.1453
L11.4566 12.2167
"/>
            <path d="M11.4566 12.2167
L11.4209 12.2882
"/>
            <path d="M11.4209 12.2882
L11.3852 12.3239
"/>
            <path d="M11.3852 12.3239
L11.3138 12.3596
"/>
            <path d="M11.3138 12.3596
L11.0638 12.3596
"/>
            <path d="M11.8138 12.7525
L11.8138 12.0025
"/>
            <path d="M11.8138 12.0025
L12.2424 12.7525
"/>
            <path d="M12.2424 12.7525
L12.2424 12.0025
"/>
            <path d="M13.1352 12.0739
L13.1709 12.0382
"/>
            <path d="M13.1709 12.0382
L13.2424 12.0025
"/>
            <path d="M13.2424 12.0025
L13.4209 12.0025
"/>
            <path d="M13.4209 12.0025
L13.4924 12.0382
"/>
            <path d="M13.4924 12.0382
L13.5281 12.0739
"/>
            <path d="M13.5281 12.0739
L13.5638 12.1453
"/>
            <path d="M13.5638 12.1453
L13.5638 12.2167
"/>
            <path d="M13.5638 12.2167
L13.5281 12.3239
"/>
            <path d="M13.5281 12.3239
L13.0995 12.7525
"/>
            <path d="M13.0995 12.7525
L13.5638 12.7525
"/>
            <path d="M14.0281 12.0025
L14.0995 12.0025
"/>
            <path d="M14.0995 12.0025
L14.1709 12.0382
"/>
            <path d="M14.1709 12.0382
L14.2066 12.0739
"/>
            <path d="M14.2066 12.0739
L14.2424 12.1453
"/>
            <path d="M14.2424 12.1453
L14.2781 12.2882
"/>
            <path d="M14.2781 12.2882
L14.2781 12.4667
"/>
            <path d="M14.2781 12.4667
L14.2424 12.6096
"/>
            <path d="M14.2424 12.6096
L14.2066 12.6810
"/>
            <path d="M14.2066 12.6810
L14.1709 12.7167
"/>
            <path d="M14.1709 12.7167
L14.0995 12.7525
"/>
            <path d="M14.0995 12.7525
L14.0281 12.7525
"/>
            <path d="M14.0281 12.7525
L13.9566 12.7167
"/>
            <path d="M13.9566 12.7167
L13.9209 12.6810
"/>
            <path d="M13.9209 12.6810
L13.8852 12.6096
"/>
            <path d="M13.8852 12.6096
L13.8495 12.4667
"/>
            <path d="M13.8495 12.4667
L13.8495 12.2882
"/>
            <path d="M13.8495 12.2882
L13.8852 12.1453
"/>
            <path d="M13.8852 12.1453
L13.9209 12.0739
"/>
            <path d="M13.9209 12.0739
L13.9566 12.0382
"/>
            <path d="M13.9566 12.0382
L14.0281 12.0025
"/>
            <path d="M14.5638 12.0739
L14.5995 12.0382
"/>
            <path d="M14.5995 12.0382
L14.6709 12.0025
"/>
            <path d="M14.6709 12.0025
L14.8495 12.0025
"/>
            <path d="M14.8495 12.0025
L14.9209 12.0382
"/>
            <path d="M14.9209 12.0382
L14.9566 12.0739
"/>
            <path d="M14.9566 12.0739
L14.9924 12.1453
"/>
            <path d="M14.9924 12.1453
L14.9924 12.2167
"/>
            <path d="M14.9924 12.2167
L14.9566 12.3239
"/>
            <path d="M14.9566 12.3239
L14.5281 12.7525
"/>
            <path d="M14.5281 12.7525
L14.9924 12.7525
"/>
            <path d="M15.2424 12.0025
L15.7066 12.0025
"/>
            <path d="M15.7066 12.0025
L15.4566 12.2882
"/>
            <path d="M15.4566 12.2882
L15.5638 12.2882
"/>
            <path d="M15.5638 12.2882
L15.6352 12.3239
"/>
            <path d="M15.6352 12.3239
L15.6709 12.3596
"/>
            <path d="M15.6709 12.3596
L15.7066 12.4310
"/>
            <path d="M15.7066 12.4310
L15.7066 12.6096
"/>
            <path d="M15.7066 12.6096
L15.6709 12.6810
"/>
            <path d="M15.6709 12.6810
L15.6352 12.7167
"/>
            <path d="M15.6352 12.7167
L15.5638 12.7525
"/>
            <path d="M15.5638 12.7525
L15.3495 12.7525
"/>
            <path d="M15.3495 12.7525
L15.2781 12.7167
"/>
            <path d="M15.2781 12.7167
L15.2424 12.6810
"/>
        </g>
        <text x="45.7524" y="20.5275"
              textLength="1.7250" font-size="1.0000" lengthAdjust="spacingAndGlyphs"
              text-anchor="middle" opacity="0">Q2
        </text>
        <g class="stroked-text">
            <desc>Q2</desc>
            <path d="M45.6809 20.5709
L45.6095 20.5352
"/>
            <path d="M45.6095 20.5352
L45.5381 20.4637
"/>
            <path d="M45.5381 20.4637
L45.4309 20.3566
"/>
            <path d="M45.4309 20.3566
L45.3595 20.3209
"/>
            <path d="M45.3595 20.3209
L45.2881 20.3209
"/>
            <path d="M45.3238 20.4995
L45.2524 20.4637
"/>
            <path d="M45.2524 20.4637
L45.1809 20.3923
"/>
            <path d="M45.1809 20.3923
L45.1452 20.2495
"/>
            <path d="M45.1452 20.2495
L45.1452 19.9995
"/>
            <path d="M45.1452 19.9995
L45.1809 19.8566
"/>
            <path d="M45.1809 19.8566
L45.2524 19.7852
"/>
            <path d="M45.2524 19.7852
L45.3238 19.7495
"/>
            <path d="M45.3238 19.7495
L45.4666 19.7495
"/>
            <path d="M45.4666 19.7495
L45.5381 19.7852
"/>
            <path d="M45.5381 19.7852
L45.6095 19.8566
"/>
            <path d="M45.6095 19.8566
L45.6452 19.9995
"/>
            <path d="M45.6452 19.9995
L45.6452 20.2495
"/>
            <path d="M45.6452 20.2495
L45.6095 20.3923
"/>
            <path d="M45.6095 20.3923
L45.5381 20.4637
"/>
            <path d="M45.5381 20.4637
L45.4666 20.4995
"/>
            <path d="M45.4666 20.4995
L45.3238 20.4995
"/>
            <path d="M45.9309 19.8209
L45.9666 19.7852
"/>
            <path d="M45.9666 19.7852
L46.0381 19.7495
"/>
            <path d="M46.0381 19.7495
L46.2166 19.7495
"/>
            <path d="M46.2166 19.7495
L46.2881 19.7852
"/>
            <path d="M46.2881 19.7852
L46.3238 19.8209
"/>
            <path d="M46.3238 19.8209
L46.3595 19.8923
"/>
            <path d="M46.3595 19.8923
L46.3595 19.9637
"/>
            <path d="M46.3595 19.9637
L46.3238 20.0709
"/>
            <path d="M46.3238 20.0709
L45.8952 20.4995
"/>
            <path d="M45.8952 20.4995
L46.3595 20.4995
"/>
        </g>
        <text x="18.5744" y="21.7975"
              textLength="1.5821" font-size="1.0000" lengthAdjust="spacingAndGlyphs"
              text-anchor="middle" opacity="0">5V
        </text>
        <g class="stroked-text">
            <desc>5V</desc>
            <path d="M18.4315 21.0195
L18.0744 21.0195
"/>
            <path d="M18.0744 21.0195
L18.0386 21.3766
"/>
            <path d="M18.0386 21.3766
L18.0744 21.3409
"/>
            <path d="M18.0744 21.3409
L18.1458 21.3052
"/>
            <path d="M18.1458 21.3052
L18.3244 21.3052
"/>
            <path d="M18.3244 21.3052
L18.3958 21.3409
"/>
            <path d="M18.3958 21.3409
L18.4315 21.3766
"/>
            <path d="M18.4315 21.3766
L18.4672 21.4480
"/>
            <path d="M18.4672 21.4480
L18.4672 21.6266
"/>
            <path d="M18.4672 21.6266
L18.4315 21.6980
"/>
            <path d="M18.4315 21.6980
L18.3958 21.7338
"/>
            <path d="M18.3958 21.7338
L18.3244 21.7695
"/>
            <path d="M18.3244 21.7695
L18.1458 21.7695
"/>
            <path d="M18.1458 21.7695
L18.0744 21.7338
"/>
            <path d="M18.0744 21.7338
L18.0386 21.6980
"/>
            <path d="M18.6815 21.0195
L18.9315 21.7695
"/>
            <path d="M18.9315 21.7695
L19.1815 21.0195
"/>
        </g>
        <text x="18.9554" y="16.7175"
              textLength="2.4036" font-size="1.0000" lengthAdjust="spacingAndGlyphs"
              text-anchor="middle" opacity="0">FDO
        </text>
        <g class="stroked-text">
            <desc>FDO</desc>
            <path d="M18.2946 16.2966
L18.0446 16.2966
"/>
            <path d="M18.0446 16.6895
L18.0446 15.9395
"/>
            <path d="M18.0446 15.9395
L18.4018 15.9395
"/>
            <path d="M18.6875 16.6895
L18.6875 15.9395
"/>
            <path d="M18.6875 15.9395
L18.8661 15.9395
"/>
            <path d="M18.8661 15.9395
L18.9732 15.9752
"/>
            <path d="M18.9732 15.9752
L19.0446 16.0466
"/>
            <path d="M19.0446 16.0466
L19.0804 16.1180
"/>
            <path d="M19.0804 16.1180
L19.1161 16.2609
"/>
            <path d="M19.1161 16.2609
L19.1161 16.3680
"/>
            <path d="M19.1161 16.3680
L19.0804 16.5109
"/>
            <path d="M19.0804 16.5109
L19.0446 16.5823
"/>
            <path d="M19.0446 16.5823
L18.9732 16.6537
"/>
            <path d="M18.9732 16.6537
L18.8661 16.6895
"/>
            <path d="M18.8661 16.6895
L18.6875 16.6895
"/>
            <path d="M19.5804 15.9395
L19.7232 15.9395
"/>
            <path d="M19.7232 15.9395
L19.7946 15.9752
"/>
            <path d="M19.7946 15.9752
L19.8661 16.0466
"/>
            <path d="M19.8661 16.0466
L19.9018 16.1895
"/>
            <path d="M19.9018 16.1895
L19.9018 16.4395
"/>
            <path d="M19.9018 16.4395
L19.8661 16.5823
"/>
            <path d="M19.8661 16.5823
L19.7946 16.6537
"/>
            <path d="M19.7946 16.6537
L19.7232 16.6895
"/>
            <path d="M19.7232 16.6895
L19.5804 16.6895
"/>
            <path d="M19.5804 16.6895
L19.5089 16.6537
"/>
            <path d="M19.5089 16.6537
L19.4375 16.5823
"/>
            <path d="M19.4375 16.5823
L19.4018 16.4395
"/>
            <path d="M19.4018 16.4395
L19.4018 16.1895
"/>
            <path d="M19.4018 16.1895
L19.4375 16.0466
"/>
            <path d="M19.4375 16.0466
L19.5089 15.9752
"/>
            <path d="M19.5089 15.9752
L19.5804 15.9395
"/>
        </g>
        <text x="18.9554" y="19.3845"
              textLength="2.5107" font-size="1.0000" lengthAdjust="spacingAndGlyphs"
              text-anchor="middle" opacity="0">GND
        </text>
        <g class="stroked-text">
            <desc>GND</desc>
            <path d="M18.3839 18.6422
L18.3125 18.6065
"/>
            <path d="M18.3125 18.6065
L18.2054 18.6065
"/>
            <path d="M18.2054 18.6065
L18.0982 18.6422
"/>
            <path d="M18.0982 18.6422
L18.0268 18.7136
"/>
            <path d="M18.0268 18.7136
L17.9911 18.7850
"/>
            <path d="M17.9911 18.7850
L17.9554 18.9279
"/>
            <path d="M17.9554 18.9279
L17.9554 19.0350
"/>
            <path d="M17.9554 19.0350
L17.9911 19.1779
"/>
            <path d="M17.9911 19.1779
L18.0268 19.2493
"/>
            <path d="M18.0268 19.2493
L18.0982 19.3208
"/>
            <path d="M18.0982 19.3208
L18.2054 19.3565
"/>
            <path d="M18.2054 19.3565
L18.2768 19.3565
"/>
            <path d="M18.2768 19.3565
L18.3839 19.3208
"/>
            <path d="M18.3839 19.3208
L18.4196 19.2850
"/>
            <path d="M18.4196 19.2850
L18.4196 19.0350
"/>
            <path d="M18.4196 19.0350
L18.2768 19.0350
"/>
            <path d="M18.7411 19.3565
L18.7411 18.6065
"/>
            <path d="M18.7411 18.6065
L19.1696 19.3565
"/>
            <path d="M19.1696 19.3565
L19.1696 18.6065
"/>
            <path d="M19.5268 19.3565
L19.5268 18.6065
"/>
            <path d="M19.5268 18.6065
L19.7054 18.6065
"/>
            <path d="M19.7054 18.6065
L19.8125 18.6422
"/>
            <path d="M19.8125 18.6422
L19.8839 18.7136
"/>
            <path d="M19.8839 18.7136
L19.9196 18.7850
"/>
            <path d="M19.9196 18.7850
L19.9554 18.9279
"/>
            <path d="M19.9554 18.9279
L19.9554 19.0350
"/>
            <path d="M19.9554 19.0350
L19.9196 19.1779
"/>
            <path d="M19.9196 19.1779
L19.8839 19.2493
"/>
            <path d="M19.8839 19.2493
L19.8125 19.3208
"/>
            <path d="M19.8125 19.3208
L19.7054 19.3565
"/>
            <path d="M19.7054 19.3565
L19.5268 19.3565
"/>
        </g>
        <text x="46.0064" y="15.4475"
              textLength="1.2964" font-size="1.0000" lengthAdjust="spacingAndGlyphs"
              text-anchor="middle" opacity="0">I1
        </text>
        <g class="stroked-text">
            <desc>I1</desc>
            <path d="M45.6492 15.4195
L45.6492 14.6695
"/>
            <path d="M46.3992 15.4195
L45.9706 15.4195
"/>
            <path d="M46.1849 15.4195
L46.1849 14.6695
"/>
            <path d="M46.1849 14.6695
L46.1135 14.7766
"/>
            <path d="M46.1135 14.7766
L46.0421 14.8480
"/>
            <path d="M46.0421 14.8480
L45.9706 14.8837
"/>
        </g>
        <text x="45.7524" y="12.9075"
              textLength="1.7250" font-size="1.0000" lengthAdjust="spacingAndGlyphs"
              text-anchor="middle" opacity="0">Q1
        </text>
        <g class="stroked-text">
            <desc>Q1</desc>
            <path d="M45.6809 12.9509
L45.6095 12.9152
"/>
            <path d="M45.6095 12.9152
L45.5381 12.8438
"/>
            <path d="M45.5381 12.8438
L45.4309 12.7366
"/>
            <path d="M45.4309 12.7366
L45.3595 12.7009
"/>
            <path d="M45.3595 12.7009
L45.2881 12.7009
"/>
            <path d="M45.3238 12.8795
L45.2524 12.8438
"/>
            <path d="M45.2524 12.8438
L45.1809 12.7723
"/>
            <path d="M45.1809 12.7723
L45.1452 12.6295
"/>
            <path d="M45.1452 12.6295
L45.1452 12.3795
"/>
            <path d="M45.1452 12.3795
L45.1809 12.2366
"/>
            <path d="M45.1809 12.2366
L45.2524 12.1652
"/>
            <path d="M45.2524 12.1652
L45.3238 12.1295
"/>
            <path d="M45.3238 12.1295
L45.4666 12.1295
"/>
            <path d="M45.4666 12.1295
L45.5381 12.1652
"/>
            <path d="M45.5381 12.1652
L45.6095 12.2366
"/>
            <path d="M45.6095 12.2366
L45.6452 12.3795
"/>
            <path d="M45.6452 12.3795
L45.6452 12.6295
"/>
            <path d="M45.6452 12.6295
L45.6095 12.7723
"/>
            <path d="M45.6095 12.7723
L45.5381 12.8438
"/>
            <path d="M45.5381 12.8438
L45.4666 12.8795
"/>
            <path d="M45.4666 12.8795
L45.3238 12.8795
"/>
            <path d="M46.3595 12.8795
L45.9309 12.8795
"/>
            <path d="M46.1452 12.8795
L46.1452 12.1295
"/>
            <path d="M46.1452 12.1295
L46.0738 12.2366
"/>
            <path d="M46.0738 12.2366
L46.0024 12.3080
"/>
            <path d="M46.0024 12.3080
L45.9309 12.3438
"/>
        </g>
    </g>
    <g style="fill:#000000; fill-opacity:0.0;
stroke:#000000; stroke-width:0.3000; stroke-opacity:1; 
stroke-linecap:round; stroke-linejoin:round;">
        <text x="14.6374" y="10.3615"
              textLength="8.0929" font-size="2.0000" lengthAdjust="spacingAndGlyphs"
              text-anchor="middle" opacity="0">vRadar
        </text>
        <g class="stroked-text">
            <desc>vRadar</desc>
            <path d="M11.0302 9.3054
L11.3874 10.3054
"/>
            <path d="M11.3874 10.3054
L11.7445 9.3054
"/>
            <path d="M13.1731 10.3054
L12.6731 9.5911
"/>
            <path d="M12.3159 10.3054
L12.3159 8.8054
"/>
            <path d="M12.3159 8.8054
L12.8874 8.8054
"/>
            <path d="M12.8874 8.8054
L13.0302 8.8769
"/>
            <path d="M13.0302 8.8769
L13.1016 8.9483
"/>
            <path d="M13.1016 8.9483
L13.1731 9.0911
"/>
            <path d="M13.1731 9.0911
L13.1731 9.3054
"/>
            <path d="M13.1731 9.3054
L13.1016 9.4483
"/>
            <path d="M13.1016 9.4483
L13.0302 9.5197
"/>
            <path d="M13.0302 9.5197
L12.8874 9.5911
"/>
            <path d="M12.8874 9.5911
L12.3159 9.5911
"/>
            <path d="M14.4588 10.3054
L14.4588 9.5197
"/>
            <path d="M14.4588 9.5197
L14.3874 9.3769
"/>
            <path d="M14.3874 9.3769
L14.2445 9.3054
"/>
            <path d="M14.2445 9.3054
L13.9588 9.3054
"/>
            <path d="M13.9588 9.3054
L13.8159 9.3769
"/>
            <path d="M14.4588 10.2340
L14.3159 10.3054
"/>
            <path d="M14.3159 10.3054
L13.9588 10.3054
"/>
            <path d="M13.9588 10.3054
L13.8159 10.2340
"/>
            <path d="M13.8159 10.2340
L13.7445 10.0911
"/>
            <path d="M13.7445 10.0911
L13.7445 9.9483
"/>
            <path d="M13.7445 9.9483
L13.8159 9.8054
"/>
            <path d="M13.8159 9.8054
L13.9588 9.7340
"/>
            <path d="M13.9588 9.7340
L14.3159 9.7340
"/>
            <path d="M14.3159 9.7340
L14.4588 9.6626
"/>
            <path d="M15.8159 10.3054
L15.8159 8.8054
"/>
            <path d="M15.8159 10.2340
L15.6731 10.3054
"/>
            <path d="M15.6731 10.3054
L15.3874 10.3054
"/>
            <path d="M15.3874 10.3054
L15.2445 10.2340
"/>
            <path d="M15.2445 10.2340
L15.1731 10.1626
"/>
            <path d="M15.1731 10.1626
L15.1016 10.0197
"/>
            <path d="M15.1016 10.0197
L15.1016 9.5911
"/>
            <path d="M15.1016 9.5911
L15.1731 9.4483
"/>
            <path d="M15.1731 9.4483
L15.2445 9.3769
"/>
            <path d="M15.2445 9.3769
L15.3874 9.3054
"/>
            <path d="M15.3874 9.3054
L15.6731 9.3054
"/>
            <path d="M15.6731 9.3054
L15.8159 9.3769
"/>
            <path d="M17.1731 10.3054
L17.1731 9.5197
"/>
            <path d="M17.1731 9.5197
L17.1016 9.3769
"/>
            <path d="M17.1016 9.3769
L16.9588 9.3054
"/>
            <path d="M16.9588 9.3054
L16.6731 9.3054
"/>
            <path d="M16.6731 9.3054
L16.5302 9.3769
"/>
            <path d="M17.1731 10.2340
L17.0302 10.3054
"/>
            <path d="M17.0302 10.3054
L16.6731 10.3054
"/>
            <path d="M16.6731 10.3054
L16.5302 10.2340
"/>
            <path d="M16.5302 10.2340
L16.4588 10.0911
"/>
            <path d="M16.4588 10.0911
L16.4588 9.9483
"/>
            <path d="M16.4588 9.9483
L16.5302 9.8054
"/>
            <path d="M16.5302 9.8054
L16.6731 9.7340
"/>
            <path d="M16.6731 9.7340
L17.0302 9.7340
"/>
            <path d="M17.0302 9.7340
L17.1731 9.6626
"/>
            <path d="M17.8874 10.3054
L17.8874 9.3054
"/>
            <path d="M17.8874 9.5911
L17.9588 9.4483
"/>
            <path d="M17.9588 9.4483
L18.0302 9.3769
"/>
            <path d="M18.0302 9.3769
L18.1731 9.3054
"/>
            <path d="M18.1731 9.3054
L18.3159 9.3054
"/>
        </g>
    </g>
    <g style="fill:#000000; fill-opacity:0.0;
stroke:#000000; stroke-width:0.1500; stroke-opacity:1; 
stroke-linecap:round; stroke-linejoin:round;">
        <text x="46.0064" y="23.0675"
              textLength="1.2964" font-size="1.0000" lengthAdjust="spacingAndGlyphs"
              text-anchor="middle" opacity="0">I2
        </text>
        <g class="stroked-text">
            <desc>I2</desc>
            <path d="M45.6492 23.0395
L45.6492 22.2895
"/>
            <path d="M45.9706 22.3609
L46.0064 22.3252
"/>
            <path d="M46.0064 22.3252
L46.0778 22.2895
"/>
            <path d="M46.0778 22.2895
L46.2564 22.2895
"/>
            <path d="M46.2564 22.2895
L46.3278 22.3252
"/>
            <path d="M46.3278 22.3252
L46.3635 22.3609
"/>
            <path d="M46.3635 22.3609
L46.3992 22.4323
"/>
            <path d="M46.3992 22.4323
L46.3992 22.5038
"/>
            <path d="M46.3992 22.5038
L46.3635 22.6109
"/>
            <path d="M46.3635 22.6109
L45.9349 23.0395
"/>
            <path d="M45.9349 23.0395
L46.3992 23.0395
"/>
        </g>
        <text x="45.3714" y="17.9875"
              textLength="2.5107" font-size="1.0000" lengthAdjust="spacingAndGlyphs"
              text-anchor="middle" opacity="0">GND
        </text>
        <g class="stroked-text">
            <desc>GND</desc>
            <path d="M44.7999 17.2452
L44.7285 17.2095
"/>
            <path d="M44.7285 17.2095
L44.6214 17.2095
"/>
            <path d="M44.6214 17.2095
L44.5142 17.2452
"/>
            <path d="M44.5142 17.2452
L44.4428 17.3166
"/>
            <path d="M44.4428 17.3166
L44.4071 17.3880
"/>
            <path d="M44.4071 17.3880
L44.3714 17.5309
"/>
            <path d="M44.3714 17.5309
L44.3714 17.6380
"/>
            <path d="M44.3714 17.6380
L44.4071 17.7809
"/>
            <path d="M44.4071 17.7809
L44.4428 17.8523
"/>
            <path d="M44.4428 17.8523
L44.5142 17.9237
"/>
            <path d="M44.5142 17.9237
L44.6214 17.9595
"/>
            <path d="M44.6214 17.9595
L44.6928 17.9595
"/>
            <path d="M44.6928 17.9595
L44.7999 17.9237
"/>
            <path d="M44.7999 17.9237
L44.8356 17.8880
"/>
            <path d="M44.8356 17.8880
L44.8356 17.6380
"/>
            <path d="M44.8356 17.6380
L44.6928 17.6380
"/>
            <path d="M45.1571 17.9595
L45.1571 17.2095
"/>
            <path d="M45.1571 17.2095
L45.5856 17.9595
"/>
            <path d="M45.5856 17.9595
L45.5856 17.2095
"/>
            <path d="M45.9428 17.9595
L45.9428 17.2095
"/>
            <path d="M45.9428 17.2095
L46.1214 17.2095
"/>
            <path d="M46.1214 17.2095
L46.2285 17.2452
"/>
            <path d="M46.2285 17.2452
L46.2999 17.3166
"/>
            <path d="M46.2999 17.3166
L46.3356 17.3880
"/>
            <path d="M46.3356 17.3880
L46.3714 17.5309
"/>
            <path d="M46.3714 17.5309
L46.3714 17.6380
"/>
            <path d="M46.3714 17.6380
L46.3356 17.7809
"/>
            <path d="M46.3356 17.7809
L46.2999 17.8523
"/>
            <path d="M46.2999 17.8523
L46.2285 17.9237
"/>
            <path d="M46.2285 17.9237
L46.1214 17.9595
"/>
            <path d="M46.1214 17.9595
L45.9428 17.9595
"/>
        </g>
        <text x="45.3714" y="25.8615"
              textLength="2.4036" font-size="1.0000" lengthAdjust="spacingAndGlyphs"
              text-anchor="middle" opacity="0">VCO
        </text>
        <g class="stroked-text">
            <desc>VCO</desc>
            <path d="M44.3535 25.0835
L44.6035 25.8335
"/>
            <path d="M44.6035 25.8335
L44.8535 25.0835
"/>
            <path d="M45.5321 25.7620
L45.4964 25.7977
"/>
            <path d="M45.4964 25.7977
L45.3892 25.8335
"/>
            <path d="M45.3892 25.8335
L45.3178 25.8335
"/>
            <path d="M45.3178 25.8335
L45.2106 25.7977
"/>
            <path d="M45.2106 25.7977
L45.1392 25.7263
"/>
            <path d="M45.1392 25.7263
L45.1035 25.6549
"/>
            <path d="M45.1035 25.6549
L45.0678 25.5120
"/>
            <path d="M45.0678 25.5120
L45.0678 25.4049
"/>
            <path d="M45.0678 25.4049
L45.1035 25.2620
"/>
            <path d="M45.1035 25.2620
L45.1392 25.1906
"/>
            <path d="M45.1392 25.1906
L45.2106 25.1192
"/>
            <path d="M45.2106 25.1192
L45.3178 25.0835
"/>
            <path d="M45.3178 25.0835
L45.3892 25.0835
"/>
            <path d="M45.3892 25.0835
L45.4964 25.1192
"/>
            <path d="M45.4964 25.1192
L45.5321 25.1549
"/>
            <path d="M45.9964 25.0835
L46.1392 25.0835
"/>
            <path d="M46.1392 25.0835
L46.2106 25.1192
"/>
            <path d="M46.2106 25.1192
L46.2821 25.1906
"/>
            <path d="M46.2821 25.1906
L46.3178 25.3335
"/>
            <path d="M46.3178 25.3335
L46.3178 25.5835
"/>
            <path d="M46.3178 25.5835
L46.2821 25.7263
"/>
            <path d="M46.2821 25.7263
L46.2106 25.7977
"/>
            <path d="M46.2106 25.7977
L46.1392 25.8335
"/>
            <path d="M46.1392 25.8335
L45.9964 25.8335
"/>
            <path d="M45.9964 25.8335
L45.9249 25.7977
"/>
            <path d="M45.9249 25.7977
L45.8535 25.7263
"/>
            <path d="M45.8535 25.7263
L45.8178 25.5835
"/>
            <path d="M45.8178 25.5835
L45.8178 25.3335
"/>
            <path d="M45.8178 25.3335
L45.8535 25.1906
"/>
            <path d="M45.8535 25.1906
L45.9249 25.1192
"/>
            <path d="M45.9249 25.1192
L45.9964 25.0835
"/>
        </g>
        <g transform="rotate(-90.000000 28.3721 31.4555)">
            <text x="28.3721" y="31.8305"
                  textLength="2.4036" font-size="1.0000" lengthAdjust="spacingAndGlyphs"
                  text-anchor="middle" opacity="0">C12
            </text>
        </g>
        <g class="stroked-text">
            <desc>C12</desc>
            <path d="M28.6476 31.9376
L28.6834 31.9734
"/>
            <path d="M28.6834 31.9734
L28.7191 32.0805
"/>
            <path d="M28.7191 32.0805
L28.7191 32.1519
"/>
            <path d="M28.7191 32.1519
L28.6834 32.2591
"/>
            <path d="M28.6834 32.2591
L28.6119 32.3305
"/>
            <path d="M28.6119 32.3305
L28.5405 32.3662
"/>
            <path d="M28.5405 32.3662
L28.3976 32.4019
"/>
            <path d="M28.3976 32.4019
L28.2905 32.4019
"/>
            <path d="M28.2905 32.4019
L28.1476 32.3662
"/>
            <path d="M28.1476 32.3662
L28.0762 32.3305
"/>
            <path d="M28.0762 32.3305
L28.0048 32.2591
"/>
            <path d="M28.0048 32.2591
L27.9691 32.1519
"/>
            <path d="M27.9691 32.1519
L27.9691 32.0805
"/>
            <path d="M27.9691 32.0805
L28.0048 31.9734
"/>
            <path d="M28.0048 31.9734
L28.0405 31.9376
"/>
            <path d="M28.7191 31.2234
L28.7191 31.6519
"/>
            <path d="M28.7191 31.4376
L27.9691 31.4376
"/>
            <path d="M27.9691 31.4376
L28.0762 31.5091
"/>
            <path d="M28.0762 31.5091
L28.1476 31.5805
"/>
            <path d="M28.1476 31.5805
L28.1834 31.6519
"/>
            <path d="M28.0405 30.9376
L28.0048 30.9019
"/>
            <path d="M28.0048 30.9019
L27.9691 30.8305
"/>
            <path d="M27.9691 30.8305
L27.9691 30.6519
"/>
            <path d="M27.9691 30.6519
L28.0048 30.5805
"/>
            <path d="M28.0048 30.5805
L28.0405 30.5448
"/>
            <path d="M28.0405 30.5448
L28.1119 30.5091
"/>
            <path d="M28.1119 30.5091
L28.1834 30.5091
"/>
            <path d="M28.1834 30.5091
L28.2905 30.5448
"/>
            <path d="M28.2905 30.5448
L28.7191 30.9734
"/>
            <path d="M28.7191 30.9734
L28.7191 30.5091
"/>
        </g>
        <text x="51.3404" y="31.9575"
              textLength="2.4036" font-size="1.0000" lengthAdjust="spacingAndGlyphs"
              text-anchor="middle" opacity="0">C11
        </text>
        <g class="stroked-text">
            <desc>C11</desc>
            <path d="M50.8582 31.8580
L50.8225 31.8937
"/>
            <path d="M50.8225 31.8937
L50.7154 31.9295
"/>
            <path d="M50.7154 31.9295
L50.6439 31.9295
"/>
            <path d="M50.6439 31.9295
L50.5368 31.8937
"/>
            <path d="M50.5368 31.8937
L50.4654 31.8223
"/>
            <path d="M50.4654 31.8223
L50.4296 31.7509
"/>
            <path d="M50.4296 31.7509
L50.3939 31.6080
"/>
            <path d="M50.3939 31.6080
L50.3939 31.5009
"/>
            <path d="M50.3939 31.5009
L50.4296 31.3580
"/>
            <path d="M50.4296 31.3580
L50.4654 31.2866
"/>
            <path d="M50.4654 31.2866
L50.5368 31.2152
"/>
            <path d="M50.5368 31.2152
L50.6439 31.1795
"/>
            <path d="M50.6439 31.1795
L50.7154 31.1795
"/>
            <path d="M50.7154 31.1795
L50.8225 31.2152
"/>
            <path d="M50.8225 31.2152
L50.8582 31.2509
"/>
            <path d="M51.5725 31.9295
L51.1439 31.9295
"/>
            <path d="M51.3582 31.9295
L51.3582 31.1795
"/>
            <path d="M51.3582 31.1795
L51.2868 31.2866
"/>
            <path d="M51.2868 31.2866
L51.2154 31.3580
"/>
            <path d="M51.2154 31.3580
L51.1439 31.3937
"/>
            <path d="M52.2868 31.9295
L51.8582 31.9295
"/>
            <path d="M52.0725 31.9295
L52.0725 31.1795
"/>
            <path d="M52.0725 31.1795
L52.0011 31.2866
"/>
            <path d="M52.0011 31.2866
L51.9296 31.3580
"/>
            <path d="M51.9296 31.3580
L51.8582 31.3937
"/>
        </g>
        <g transform="rotate(-90.000000 38.0241 31.4555)">
            <text x="38.0241" y="31.8305"
                  textLength="2.4036" font-size="1.0000" lengthAdjust="spacingAndGlyphs"
                  text-anchor="middle" opacity="0">R10
            </text>
        </g>
        <g class="stroked-text">
            <desc>R10</desc>
            <path d="M38.3711 31.9376
L38.0139 32.1876
"/>
            <path d="M38.3711 32.3662
L37.6211 32.3662
"/>
            <path d="M37.6211 32.3662
L37.6211 32.0805
"/>
            <path d="M37.6211 32.0805
L37.6568 32.0091
"/>
            <path d="M37.6568 32.0091
L37.6925 31.9734
"/>
            <path d="M37.6925 31.9734
L37.7639 31.9376
"/>
            <path d="M37.7639 31.9376
L37.8711 31.9376
"/>
            <path d="M37.8711 31.9376
L37.9425 31.9734
"/>
            <path d="M37.9425 31.9734
L37.9782 32.0091
"/>
            <path d="M37.9782 32.0091
L38.0139 32.0805
"/>
            <path d="M38.0139 32.0805
L38.0139 32.3662
"/>
            <path d="M38.3711 31.2234
L38.3711 31.6519
"/>
            <path d="M38.3711 31.4376
L37.6211 31.4376
"/>
            <path d="M37.6211 31.4376
L37.7282 31.5091
"/>
            <path d="M37.7282 31.5091
L37.7996 31.5805
"/>
            <path d="M37.7996 31.5805
L37.8354 31.6519
"/>
            <path d="M37.6211 30.7591
L37.6211 30.6876
"/>
            <path d="M37.6211 30.6876
L37.6568 30.6162
"/>
            <path d="M37.6568 30.6162
L37.6925 30.5805
"/>
            <path d="M37.6925 30.5805
L37.7639 30.5448
"/>
            <path d="M37.7639 30.5448
L37.9068 30.5091
"/>
            <path d="M37.9068 30.5091
L38.0854 30.5091
"/>
            <path d="M38.0854 30.5091
L38.2282 30.5448
"/>
            <path d="M38.2282 30.5448
L38.2996 30.5805
"/>
            <path d="M38.2996 30.5805
L38.3354 30.6162
"/>
            <path d="M38.3354 30.6162
L38.3711 30.6876
"/>
            <path d="M38.3711 30.6876
L38.3711 30.7591
"/>
            <path d="M38.3711 30.7591
L38.3354 30.8305
"/>
            <path d="M38.3354 30.8305
L38.2996 30.8662
"/>
            <path d="M38.2996 30.8662
L38.2282 30.9019
"/>
            <path d="M38.2282 30.9019
L38.0854 30.9376
"/>
            <path d="M38.0854 30.9376
L37.9068 30.9376
"/>
            <path d="M37.9068 30.9376
L37.7639 30.9019
"/>
            <path d="M37.7639 30.9019
L37.6925 30.8662
"/>
            <path d="M37.6925 30.8662
L37.6568 30.8305
"/>
            <path d="M37.6568 30.8305
L37.6211 30.7591
"/>
        </g>
        <text x="39.7834" y="34.8785"
              textLength="2.4036" font-size="1.0000" lengthAdjust="spacingAndGlyphs"
              text-anchor="middle" opacity="0">C14
        </text>
        <g class="stroked-text">
            <desc>C14</desc>
            <path d="M39.3012 34.7790
L39.2655 34.8147
"/>
            <path d="M39.2655 34.8147
L39.1584 34.8505
"/>
            <path d="M39.1584 34.8505
L39.0869 34.8505
"/>
            <path d="M39.0869 34.8505
L38.9798 34.8147
"/>
            <path d="M38.9798 34.8147
L38.9084 34.7433
"/>
            <path d="M38.9084 34.7433
L38.8726 34.6719
"/>
            <path d="M38.8726 34.6719
L38.8369 34.5290
"/>
            <path d="M38.8369 34.5290
L38.8369 34.4219
"/>
            <path d="M38.8369 34.4219
L38.8726 34.2790
"/>
            <path d="M38.8726 34.2790
L38.9084 34.2076
"/>
            <path d="M38.9084 34.2076
L38.9798 34.1362
"/>
            <path d="M38.9798 34.1362
L39.0869 34.1005
"/>
            <path d="M39.0869 34.1005
L39.1584 34.1005
"/>
            <path d="M39.1584 34.1005
L39.2655 34.1362
"/>
            <path d="M39.2655 34.1362
L39.3012 34.1719
"/>
            <path d="M40.0155 34.8505
L39.5869 34.8505
"/>
            <path d="M39.8012 34.8505
L39.8012 34.1005
"/>
            <path d="M39.8012 34.1005
L39.7298 34.2076
"/>
            <path d="M39.7298 34.2076
L39.6584 34.2790
"/>
            <path d="M39.6584 34.2790
L39.5869 34.3147
"/>
            <path d="M40.6584 34.3505
L40.6584 34.8505
"/>
            <path d="M40.4798 34.0647
L40.3012 34.6005
"/>
            <path d="M40.3012 34.6005
L40.7655 34.6005
"/>
        </g>
        <text x="26.5754" y="34.7515"
              textLength="1.6893" font-size="1.0000" lengthAdjust="spacingAndGlyphs"
              text-anchor="middle" opacity="0">C9
        </text>
        <g class="stroked-text">
            <desc>C9</desc>
            <path d="M26.4504 34.6520
L26.4146 34.6878
"/>
            <path d="M26.4146 34.6878
L26.3075 34.7235
"/>
            <path d="M26.3075 34.7235
L26.2361 34.7235
"/>
            <path d="M26.2361 34.7235
L26.1289 34.6878
"/>
            <path d="M26.1289 34.6878
L26.0575 34.6163
"/>
            <path d="M26.0575 34.6163
L26.0218 34.5449
"/>
            <path d="M26.0218 34.5449
L25.9861 34.4020
"/>
            <path d="M25.9861 34.4020
L25.9861 34.2949
"/>
            <path d="M25.9861 34.2949
L26.0218 34.1520
"/>
            <path d="M26.0218 34.1520
L26.0575 34.0806
"/>
            <path d="M26.0575 34.0806
L26.1289 34.0092
"/>
            <path d="M26.1289 34.0092
L26.2361 33.9735
"/>
            <path d="M26.2361 33.9735
L26.3075 33.9735
"/>
            <path d="M26.3075 33.9735
L26.4146 34.0092
"/>
            <path d="M26.4146 34.0092
L26.4504 34.0449
"/>
            <path d="M26.8075 34.7235
L26.9504 34.7235
"/>
            <path d="M26.9504 34.7235
L27.0218 34.6878
"/>
            <path d="M27.0218 34.6878
L27.0575 34.6520
"/>
            <path d="M27.0575 34.6520
L27.1289 34.5449
"/>
            <path d="M27.1289 34.5449
L27.1646 34.4020
"/>
            <path d="M27.1646 34.4020
L27.1646 34.1163
"/>
            <path d="M27.1646 34.1163
L27.1289 34.0449
"/>
            <path d="M27.1289 34.0449
L27.0932 34.0092
"/>
            <path d="M27.0932 34.0092
L27.0218 33.9735
"/>
            <path d="M27.0218 33.9735
L26.8789 33.9735
"/>
            <path d="M26.8789 33.9735
L26.8075 34.0092
"/>
            <path d="M26.8075 34.0092
L26.7718 34.0449
"/>
            <path d="M26.7718 34.0449
L26.7361 34.1163
"/>
            <path d="M26.7361 34.1163
L26.7361 34.2949
"/>
            <path d="M26.7361 34.2949
L26.7718 34.3663
"/>
            <path d="M26.7718 34.3663
L26.8075 34.4020
"/>
            <path d="M26.8075 34.4020
L26.8789 34.4378
"/>
            <path d="M26.8789 34.4378
L27.0218 34.4378
"/>
            <path d="M27.0218 34.4378
L27.0932 34.4020
"/>
            <path d="M27.0932 34.4020
L27.1289 34.3663
"/>
            <path d="M27.1289 34.3663
L27.1646 34.2949
"/>
        </g>
        <text x="44.4824" y="34.4975"
              textLength="1.7250" font-size="1.0000" lengthAdjust="spacingAndGlyphs"
              text-anchor="middle" opacity="0">U4
        </text>
        <g class="stroked-text">
            <desc>U4</desc>
            <path d="M43.9109 33.7195
L43.9109 34.3266
"/>
            <path d="M43.9109 34.3266
L43.9466 34.3980
"/>
            <path d="M43.9466 34.3980
L43.9824 34.4337
"/>
            <path d="M43.9824 34.4337
L44.0538 34.4695
"/>
            <path d="M44.0538 34.4695
L44.1966 34.4695
"/>
            <path d="M44.1966 34.4695
L44.2681 34.4337
"/>
            <path d="M44.2681 34.4337
L44.3038 34.3980
"/>
            <path d="M44.3038 34.3980
L44.3395 34.3266
"/>
            <path d="M44.3395 34.3266
L44.3395 33.7195
"/>
            <path d="M45.0181 33.9695
L45.0181 34.4695
"/>
            <path d="M44.8395 33.6837
L44.6609 34.2195
"/>
            <path d="M44.6609 34.2195
L45.1252 34.2195
"/>
        </g>
        <text x="15.0184" y="31.9575"
              textLength="2.4036" font-size="1.0000" lengthAdjust="spacingAndGlyphs"
              text-anchor="middle" opacity="0">C10
        </text>
        <g class="stroked-text">
            <desc>C10</desc>
            <path d="M14.5362 31.8580
L14.5005 31.8937
"/>
            <path d="M14.5005 31.8937
L14.3934 31.9295
"/>
            <path d="M14.3934 31.9295
L14.3219 31.9295
"/>
            <path d="M14.3219 31.9295
L14.2148 31.8937
"/>
            <path d="M14.2148 31.8937
L14.1434 31.8223
"/>
            <path d="M14.1434 31.8223
L14.1076 31.7509
"/>
            <path d="M14.1076 31.7509
L14.0719 31.6080
"/>
            <path d="M14.0719 31.6080
L14.0719 31.5009
"/>
            <path d="M14.0719 31.5009
L14.1076 31.3580
"/>
            <path d="M14.1076 31.3580
L14.1434 31.2866
"/>
            <path d="M14.1434 31.2866
L14.2148 31.2152
"/>
            <path d="M14.2148 31.2152
L14.3219 31.1795
"/>
            <path d="M14.3219 31.1795
L14.3934 31.1795
"/>
            <path d="M14.3934 31.1795
L14.5005 31.2152
"/>
            <path d="M14.5005 31.2152
L14.5362 31.2509
"/>
            <path d="M15.2505 31.9295
L14.8219 31.9295
"/>
            <path d="M15.0362 31.9295
L15.0362 31.1795
"/>
            <path d="M15.0362 31.1795
L14.9648 31.2866
"/>
            <path d="M14.9648 31.2866
L14.8934 31.3580
"/>
            <path d="M14.8934 31.3580
L14.8219 31.3937
"/>
            <path d="M15.7148 31.1795
L15.7862 31.1795
"/>
            <path d="M15.7862 31.1795
L15.8576 31.2152
"/>
            <path d="M15.8576 31.2152
L15.8934 31.2509
"/>
            <path d="M15.8934 31.2509
L15.9291 31.3223
"/>
            <path d="M15.9291 31.3223
L15.9648 31.4652
"/>
            <path d="M15.9648 31.4652
L15.9648 31.6437
"/>
            <path d="M15.9648 31.6437
L15.9291 31.7866
"/>
            <path d="M15.9291 31.7866
L15.8934 31.8580
"/>
            <path d="M15.8934 31.8580
L15.8576 31.8937
"/>
            <path d="M15.8576 31.8937
L15.7862 31.9295
"/>
            <path d="M15.7862 31.9295
L15.7148 31.9295
"/>
            <path d="M15.7148 31.9295
L15.6434 31.8937
"/>
            <path d="M15.6434 31.8937
L15.6076 31.8580
"/>
            <path d="M15.6076 31.8580
L15.5719 31.7866
"/>
            <path d="M15.5719 31.7866
L15.5362 31.6437
"/>
            <path d="M15.5362 31.6437
L15.5362 31.4652
"/>
            <path d="M15.5362 31.4652
L15.5719 31.3223
"/>
            <path d="M15.5719 31.3223
L15.6076 31.2509
"/>
            <path d="M15.6076 31.2509
L15.6434 31.2152
"/>
            <path d="M15.6434 31.2152
L15.7148 31.1795
"/>
        </g>
        <text x="34.4681" y="29.4175"
              textLength="2.4036" font-size="1.0000" lengthAdjust="spacingAndGlyphs"
              text-anchor="middle" opacity="0">C13
        </text>
        <g class="stroked-text">
            <desc>C13</desc>
            <path d="M33.9860 29.3180
L33.9502 29.3537
"/>
            <path d="M33.9502 29.3537
L33.8431 29.3895
"/>
            <path d="M33.8431 29.3895
L33.7717 29.3895
"/>
            <path d="M33.7717 29.3895
L33.6645 29.3537
"/>
            <path d="M33.6645 29.3537
L33.5931 29.2823
"/>
            <path d="M33.5931 29.2823
L33.5574 29.2109
"/>
            <path d="M33.5574 29.2109
L33.5217 29.0680
"/>
            <path d="M33.5217 29.0680
L33.5217 28.9609
"/>
            <path d="M33.5217 28.9609
L33.5574 28.8180
"/>
            <path d="M33.5574 28.8180
L33.5931 28.7466
"/>
            <path d="M33.5931 28.7466
L33.6645 28.6752
"/>
            <path d="M33.6645 28.6752
L33.7717 28.6395
"/>
            <path d="M33.7717 28.6395
L33.8431 28.6395
"/>
            <path d="M33.8431 28.6395
L33.9502 28.6752
"/>
            <path d="M33.9502 28.6752
L33.9860 28.7109
"/>
            <path d="M34.7002 29.3895
L34.2717 29.3895
"/>
            <path d="M34.4860 29.3895
L34.4860 28.6395
"/>
            <path d="M34.4860 28.6395
L34.4145 28.7466
"/>
            <path d="M34.4145 28.7466
L34.3431 28.8180
"/>
            <path d="M34.3431 28.8180
L34.2717 28.8537
"/>
            <path d="M34.9502 28.6395
L35.4145 28.6395
"/>
            <path d="M35.4145 28.6395
L35.1645 28.9252
"/>
            <path d="M35.1645 28.9252
L35.2717 28.9252
"/>
            <path d="M35.2717 28.9252
L35.3431 28.9609
"/>
            <path d="M35.3431 28.9609
L35.3788 28.9966
"/>
            <path d="M35.3788 28.9966
L35.4145 29.0680
"/>
            <path d="M35.4145 29.0680
L35.4145 29.2466
"/>
            <path d="M35.4145 29.2466
L35.3788 29.3180
"/>
            <path d="M35.3788 29.3180
L35.3431 29.3537
"/>
            <path d="M35.3431 29.3537
L35.2717 29.3895
"/>
            <path d="M35.2717 29.3895
L35.0574 29.3895
"/>
            <path d="M35.0574 29.3895
L34.9860 29.3537
"/>
            <path d="M34.9860 29.3537
L34.9502 29.3180
"/>
        </g>
        <text x="21.8764" y="34.4975"
              textLength="1.7250" font-size="1.0000" lengthAdjust="spacingAndGlyphs"
              text-anchor="middle" opacity="0">U3
        </text>
        <g class="stroked-text">
            <desc>U3</desc>
            <path d="M21.3049 33.7195
L21.3049 34.3266
"/>
            <path d="M21.3049 34.3266
L21.3406 34.3980
"/>
            <path d="M21.3406 34.3980
L21.3764 34.4337
"/>
            <path d="M21.3764 34.4337
L21.4478 34.4695
"/>
            <path d="M21.4478 34.4695
L21.5906 34.4695
"/>
            <path d="M21.5906 34.4695
L21.6621 34.4337
"/>
            <path d="M21.6621 34.4337
L21.6978 34.3980
"/>
            <path d="M21.6978 34.3980
L21.7335 34.3266
"/>
            <path d="M21.7335 34.3266
L21.7335 33.7195
"/>
            <path d="M22.0192 33.7195
L22.4835 33.7195
"/>
            <path d="M22.4835 33.7195
L22.2335 34.0052
"/>
            <path d="M22.2335 34.0052
L22.3406 34.0052
"/>
            <path d="M22.3406 34.0052
L22.4121 34.0409
"/>
            <path d="M22.4121 34.0409
L22.4478 34.0766
"/>
            <path d="M22.4478 34.0766
L22.4835 34.1480
"/>
            <path d="M22.4835 34.1480
L22.4835 34.3266
"/>
            <path d="M22.4835 34.3266
L22.4478 34.3980
"/>
            <path d="M22.4478 34.3980
L22.4121 34.4337
"/>
            <path d="M22.4121 34.4337
L22.3406 34.4695
"/>
            <path d="M22.3406 34.4695
L22.1264 34.4695
"/>
            <path d="M22.1264 34.4695
L22.0549 34.4337
"/>
            <path d="M22.0549 34.4337
L22.0192 34.3980
"/>
        </g>
        <text x="31.9281" y="29.4175"
              textLength="1.6893" font-size="1.0000" lengthAdjust="spacingAndGlyphs"
              text-anchor="middle" opacity="0">R9
        </text>
        <g class="stroked-text">
            <desc>R9</desc>
            <path d="M31.8031 29.3895
L31.5531 29.0323
"/>
            <path d="M31.3745 29.3895
L31.3745 28.6395
"/>
            <path d="M31.3745 28.6395
L31.6602 28.6395
"/>
            <path d="M31.6602 28.6395
L31.7317 28.6752
"/>
            <path d="M31.7317 28.6752
L31.7674 28.7109
"/>
            <path d="M31.7674 28.7109
L31.8031 28.7823
"/>
            <path d="M31.8031 28.7823
L31.8031 28.8895
"/>
            <path d="M31.8031 28.8895
L31.7674 28.9609
"/>
            <path d="M31.7674 28.9609
L31.7317 28.9966
"/>
            <path d="M31.7317 28.9966
L31.6602 29.0323
"/>
            <path d="M31.6602 29.0323
L31.3745 29.0323
"/>
            <path d="M32.1602 29.3895
L32.3031 29.3895
"/>
            <path d="M32.3031 29.3895
L32.3745 29.3537
"/>
            <path d="M32.3745 29.3537
L32.4102 29.3180
"/>
            <path d="M32.4102 29.3180
L32.4817 29.2109
"/>
            <path d="M32.4817 29.2109
L32.5174 29.0680
"/>
            <path d="M32.5174 29.0680
L32.5174 28.7823
"/>
            <path d="M32.5174 28.7823
L32.4817 28.7109
"/>
            <path d="M32.4817 28.7109
L32.4460 28.6752
"/>
            <path d="M32.4460 28.6752
L32.3745 28.6395
"/>
            <path d="M32.3745 28.6395
L32.2317 28.6395
"/>
            <path d="M32.2317 28.6395
L32.1602 28.6752
"/>
            <path d="M32.1602 28.6752
L32.1245 28.7109
"/>
            <path d="M32.1245 28.7109
L32.0888 28.7823
"/>
            <path d="M32.0888 28.7823
L32.0888 28.9609
"/>
            <path d="M32.0888 28.9609
L32.1245 29.0323
"/>
            <path d="M32.1245 29.0323
L32.1602 29.0680
"/>
            <path d="M32.1602 29.0680
L32.2317 29.1037
"/>
            <path d="M32.2317 29.1037
L32.3745 29.1037
"/>
            <path d="M32.3745 29.1037
L32.4460 29.0680
"/>
            <path d="M32.4460 29.0680
L32.4817 29.0323
"/>
            <path d="M32.4817 29.0323
L32.5174 28.9609
"/>
        </g>
        <text x="32.1634" y="0.9375"
              textLength="1.7250" font-size="1.0000" lengthAdjust="spacingAndGlyphs"
              text-anchor="middle" opacity="0">U2
        </text>
        <g class="stroked-text">
            <desc>U2</desc>
            <path d="M31.5919 0.1595
L31.5919 0.7666
"/>
            <path d="M31.5919 0.7666
L31.6276 0.8380
"/>
            <path d="M31.6276 0.8380
L31.6634 0.8737
"/>
            <path d="M31.6634 0.8737
L31.7348 0.9095
"/>
            <path d="M31.7348 0.9095
L31.8776 0.9095
"/>
            <path d="M31.8776 0.9095
L31.9491 0.8737
"/>
            <path d="M31.9491 0.8737
L31.9848 0.8380
"/>
            <path d="M31.9848 0.8380
L32.0205 0.7666
"/>
            <path d="M32.0205 0.7666
L32.0205 0.1595
"/>
            <path d="M32.3419 0.2309
L32.3776 0.1952
"/>
            <path d="M32.3776 0.1952
L32.4491 0.1595
"/>
            <path d="M32.4491 0.1595
L32.6276 0.1595
"/>
            <path d="M32.6276 0.1595
L32.6991 0.1952
"/>
            <path d="M32.6991 0.1952
L32.7348 0.2309
"/>
            <path d="M32.7348 0.2309
L32.7705 0.3023
"/>
            <path d="M32.7705 0.3023
L32.7705 0.3737
"/>
            <path d="M32.7705 0.3737
L32.7348 0.4809
"/>
            <path d="M32.7348 0.4809
L32.3062 0.9095
"/>
            <path d="M32.3062 0.9095
L32.7705 0.9095
"/>
        </g>
        <text x="32.1634" y="5.3625"
              textLength="10.0798" font-size="1.3333" lengthAdjust="spacingAndGlyphs"
              text-anchor="middle" opacity="0">Antenna Area
        </text>
        <g class="stroked-text">
            <desc>Antenna Area</desc>
            <path d="M27.4015 5.0394
L27.8776 5.0394
"/>
            <path d="M27.3062 5.3251
L27.6395 4.3251
"/>
            <path d="M27.6395 4.3251
L27.9729 5.3251
"/>
            <path d="M28.3062 4.6585
L28.3062 5.3251
"/>
            <path d="M28.3062 4.7537
L28.3538 4.7061
"/>
            <path d="M28.3538 4.7061
L28.4491 4.6585
"/>
            <path d="M28.4491 4.6585
L28.5919 4.6585
"/>
            <path d="M28.5919 4.6585
L28.6872 4.7061
"/>
            <path d="M28.6872 4.7061
L28.7348 4.8013
"/>
            <path d="M28.7348 4.8013
L28.7348 5.3251
"/>
            <path d="M29.0681 4.6585
L29.4491 4.6585
"/>
            <path d="M29.2110 4.3251
L29.2110 5.1823
"/>
            <path d="M29.2110 5.1823
L29.2586 5.2775
"/>
            <path d="M29.2586 5.2775
L29.3538 5.3251
"/>
            <path d="M29.3538 5.3251
L29.4491 5.3251
"/>
            <path d="M30.1634 5.2775
L30.0681 5.3251
"/>
            <path d="M30.0681 5.3251
L29.8776 5.3251
"/>
            <path d="M29.8776 5.3251
L29.7824 5.2775
"/>
            <path d="M29.7824 5.2775
L29.7348 5.1823
"/>
            <path d="M29.7348 5.1823
L29.7348 4.8013
"/>
            <path d="M29.7348 4.8013
L29.7824 4.7061
"/>
            <path d="M29.7824 4.7061
L29.8776 4.6585
"/>
            <path d="M29.8776 4.6585
L30.0681 4.6585
"/>
            <path d="M30.0681 4.6585
L30.1634 4.7061
"/>
            <path d="M30.1634 4.7061
L30.2110 4.8013
"/>
            <path d="M30.2110 4.8013
L30.2110 4.8965
"/>
            <path d="M30.2110 4.8965
L29.7348 4.9918
"/>
            <path d="M30.6395 4.6585
L30.6395 5.3251
"/>
            <path d="M30.6395 4.7537
L30.6872 4.7061
"/>
            <path d="M30.6872 4.7061
L30.7824 4.6585
"/>
            <path d="M30.7824 4.6585
L30.9253 4.6585
"/>
            <path d="M30.9253 4.6585
L31.0205 4.7061
"/>
            <path d="M31.0205 4.7061
L31.0681 4.8013
"/>
            <path d="M31.0681 4.8013
L31.0681 5.3251
"/>
            <path d="M31.5443 4.6585
L31.5443 5.3251
"/>
            <path d="M31.5443 4.7537
L31.5919 4.7061
"/>
            <path d="M31.5919 4.7061
L31.6872 4.6585
"/>
            <path d="M31.6872 4.6585
L31.8300 4.6585
"/>
            <path d="M31.8300 4.6585
L31.9253 4.7061
"/>
            <path d="M31.9253 4.7061
L31.9729 4.8013
"/>
            <path d="M31.9729 4.8013
L31.9729 5.3251
"/>
            <path d="M32.8776 5.3251
L32.8776 4.8013
"/>
            <path d="M32.8776 4.8013
L32.8300 4.7061
"/>
            <path d="M32.8300 4.7061
L32.7348 4.6585
"/>
            <path d="M32.7348 4.6585
L32.5443 4.6585
"/>
            <path d="M32.5443 4.6585
L32.4491 4.7061
"/>
            <path d="M32.8776 5.2775
L32.7824 5.3251
"/>
            <path d="M32.7824 5.3251
L32.5443 5.3251
"/>
            <path d="M32.5443 5.3251
L32.4491 5.2775
"/>
            <path d="M32.4491 5.2775
L32.4015 5.1823
"/>
            <path d="M32.4015 5.1823
L32.4015 5.0870
"/>
            <path d="M32.4015 5.0870
L32.4491 4.9918
"/>
            <path d="M32.4491 4.9918
L32.5443 4.9442
"/>
            <path d="M32.5443 4.9442
L32.7824 4.9442
"/>
            <path d="M32.7824 4.9442
L32.8776 4.8965
"/>
            <path d="M34.0681 5.0394
L34.5443 5.0394
"/>
            <path d="M33.9729 5.3251
L34.3062 4.3251
"/>
            <path d="M34.3062 4.3251
L34.6395 5.3251
"/>
            <path d="M34.9729 5.3251
L34.9729 4.6585
"/>
            <path d="M34.9729 4.8489
L35.0205 4.7537
"/>
            <path d="M35.0205 4.7537
L35.0681 4.7061
"/>
            <path d="M35.0681 4.7061
L35.1634 4.6585
"/>
            <path d="M35.1634 4.6585
L35.2586 4.6585
"/>
            <path d="M35.9729 5.2775
L35.8776 5.3251
"/>
            <path d="M35.8776 5.3251
L35.6872 5.3251
"/>
            <path d="M35.6872 5.3251
L35.5919 5.2775
"/>
            <path d="M35.5919 5.2775
L35.5443 5.1823
"/>
            <path d="M35.5443 5.1823
L35.5443 4.8013
"/>
            <path d="M35.5443 4.8013
L35.5919 4.7061
"/>
            <path d="M35.5919 4.7061
L35.6872 4.6585
"/>
            <path d="M35.6872 4.6585
L35.8776 4.6585
"/>
            <path d="M35.8776 4.6585
L35.9729 4.7061
"/>
            <path d="M35.9729 4.7061
L36.0205 4.8013
"/>
            <path d="M36.0205 4.8013
L36.0205 4.8965
"/>
            <path d="M36.0205 4.8965
L35.5443 4.9918
"/>
            <path d="M36.8776 5.3251
L36.8776 4.8013
"/>
            <path d="M36.8776 4.8013
L36.8300 4.7061
"/>
            <path d="M36.8300 4.7061
L36.7348 4.6585
"/>
            <path d="M36.7348 4.6585
L36.5443 4.6585
"/>
            <path d="M36.5443 4.6585
L36.4491 4.7061
"/>
            <path d="M36.8776 5.2775
L36.7824 5.3251
"/>
            <path d="M36.7824 5.3251
L36.5443 5.3251
"/>
            <path d="M36.5443 5.3251
L36.4491 5.2775
"/>
            <path d="M36.4491 5.2775
L36.4015 5.1823
"/>
            <path d="M36.4015 5.1823
L36.4015 5.0870
"/>
            <path d="M36.4015 5.0870
L36.4491 4.9918
"/>
            <path d="M36.4491 4.9918
L36.5443 4.9442
"/>
            <path d="M36.5443 4.9442
L36.7824 4.9442
"/>
            <path d="M36.7824 4.9442
L36.8776 4.8965
"/>
        </g>
        <text x="33.1794" y="39.0695"
              textLength="1.5107" font-size="1.0000" lengthAdjust="spacingAndGlyphs"
              text-anchor="middle" opacity="0">J4
        </text>
        <g class="stroked-text">
            <desc>J4</desc>
            <path d="M32.9294 38.2915
L32.9294 38.8272
"/>
            <path d="M32.9294 38.8272
L32.8936 38.9343
"/>
            <path d="M32.8936 38.9343
L32.8222 39.0057
"/>
            <path d="M32.8222 39.0057
L32.7151 39.0415
"/>
            <path d="M32.7151 39.0415
L32.6436 39.0415
"/>
            <path d="M33.6079 38.5415
L33.6079 39.0415
"/>
            <path d="M33.4294 38.2557
L33.2508 38.7915
"/>
            <path d="M33.2508 38.7915
L33.7151 38.7915
"/>
        </g>
    </g>
    <g style="fill:#000000; fill-opacity:0.0;
stroke:#000000; stroke-width:0.1200; stroke-opacity:1; 
stroke-linecap:round; stroke-linejoin:round;">
        <path d="M30.6311 31.2102
L30.6311 31.7328
"/>
        <path d="M29.1611 31.2102
L29.1611 31.7328
"/>
        <path d="M49.9164 31.3212
L49.9164 31.8438
"/>
        <path d="M48.4464 31.3212
L48.4464 31.8438
"/>
        <path d="M37.2164 31.2444
L37.2164 31.6986
"/>
        <path d="M35.7464 31.2444
L35.7464 31.6986
"/>
        <path d="M39.0484 31.8438
L39.0484 31.3212
"/>
        <path d="M40.5184 31.8438
L40.5184 31.3212
"/>
        <path d="M27.3104 31.3212
L27.3104 31.8438
"/>
        <path d="M25.8404 31.3212
L25.8404 31.8438
"/>
        <path d="M16.4424 31.8438
L16.4424 31.3212
"/>
        <path d="M17.9124 31.8438
L17.9124 31.3212
"/>
        <path d="M35.1844 31.2102
L35.1844 31.7328
"/>
        <path d="M33.7144 31.2102
L33.7144 31.7328
"/>
        <path d="M31.1931 31.6986
L31.1931 31.2444
"/>
        <path d="M32.6631 31.6986
L32.6631 31.2444
"/>
        <path d="M23.1634 1.8625
L23.1634 8.6125
"/>
        <path d="M23.1634 1.8625
L41.1634 1.8625
"/>
        <path d="M23.1634 26.6125
L23.1634 27.3625
"/>
        <path d="M23.1634 27.3625
L24.1634 27.3625
"/>
        <path d="M41.1634 1.8625
L41.1634 8.6125
"/>
        <path d="M41.1634 7.8025
L23.1634 7.8025
"/>
        <path d="M41.1634 26.6125
L41.1634 27.3625
"/>
        <path d="M41.1634 27.3625
L40.1634 27.3625
"/>
        <path d="M28.5844 37.1340
L28.5844 38.0340
"/>
        <path d="M28.5844 40.7340
L28.5844 43.4640
"/>
        <path d="M28.5844 43.4640
L37.7744 43.4640
"/>
        <path d="M28.7044 34.0540
L37.6544 34.0540
"/>
        <path d="M37.7744 37.1340
L37.7744 38.0340
"/>
        <path d="M37.7744 40.7340
L37.7744 43.4640
"/>
        <g>
        </g>
        <g>
        </g>
        <g>
        </g>
        <g>
        </g>
        <g>
        </g>
        <g>
        </g>
        <g>
        </g>
        <g>
        </g>
        <g>
        </g>
        <g>
        </g>
        <g>
        </g>
        <g>
        </g>
        <g>
        </g>
        <g>
        </g>
        <g>
        </g>
        <g>
        </g>
        <g>
        </g>
        <g>
        </g>
        <g>
        </g>
        <g>
        </g>
        <g>
        </g>
        <g>
        </g>
        <g>
        </g>
        <g>
        </g>
        <g>
        </g>
        <g>
        </g>
        <g>
        </g>
        <g>
        </g>
        <g>
        </g>
        <g>
        </g>
        <g>
        </g>
        <g>
        </g>
        <g>
        </g>
        <g>
        </g>
        <g>
        </g>
        <g>
        </g>
        <g>
        </g>
        <g>
        </g>
        <g>
        </g>
        <g>
        </g>
        <g>
        </g>
        <g>
        </g>
        <g>
        </g>
        <g>
        </g>
        <g>
        </g>
        <g>
        </g>
        <g>
        </g>
        <g>
        </g>
        <g>
        </g>
        <g>
        </g>
        <g>
        </g>
        <g>
        </g>
        <g>
        </g>
        <g>
        </g>
        <g>
        </g>
    </g>
    <g style="fill:#000000; fill-opacity:0.0;
stroke:#000000; stroke-width:0.1200; stroke-opacity:1; 
stroke-linecap:round; stroke-linejoin:round;">
    </g>
    <g style="fill:#000000; fill-opacity:0.0;
stroke:#000000; stroke-width:0.1000; stroke-opacity:1; 
stroke-linecap:round; stroke-linejoin:round;">
        <path d="M9.4304 37.5515 A3.3020 3.3020 0.0 0 0 12.7324 40.8535"/>
        <path d="M52.2294 40.8535 A3.3020 3.3020 0.0 0 0 55.5314 37.5515"/>
        <path d="M12.7324 1.3565
L52.2294 1.3565
"/>
        <path d="M55.5314 4.6585 A3.3020 3.3020 0.0 0 0 52.2294 1.3565"/>
        <path d="M9.4304 4.6585
L9.4304 37.5515
"/>
        <path d="M52.2294 40.8535
L12.7324 40.8535
"/>
        <path d="M12.7324 1.3565 A3.3020 3.3020 0.0 0 0 9.4304 4.6585"/>
        <path d="M55.5314 4.6585
L55.5314 37.5515
"/>
        <g>
        </g>
        <g>
        </g>
        <g>
        </g>
        <g>
        </g>
        <g>
        </g>
        <g>
        </g>
        <g>
        </g>
        <g>
        </g>
        <g>
        </g>
        <g>
        </g>
        <g>
        </g>
        <g>
        </g>
        <g>
        </g>
        <g>
        </g>
        <g>
        </g>
        <g>
        </g>
        <g>
        </g>
        <g>
        </g>
        <g>
        </g>
        <g>
        </g>
        <g>
        </g>
        <g>
        </g>
        <g>
        </g>
        <g>
        </g>
        <g>
        </g>
        <g>
        </g>
        <g>
        </g>
        <g>
        </g>
        <g>
        </g>
        <g>
        </g>
        <g>
        </g>
        <g>
        </g>
        <g>
        </g>
        <g>
        </g>
        <g>
        </g>
        <g>
        </g>
        <g>
        </g>
        <g>
        </g>
        <g>
        </g>
        <g>
        </g>
        <g>
        </g>
        <g>
        </g>
        <g>
        </g>
        <g>
        </g>
        <g>
        </g>
        <g>
        </g>
        <g>
        </g>
        <g>
        </g>
        <g>
        </g>
        <g>
        </g>
        <g>
        </g>
        <g>
        </g>
        <g>
        </g>
        <g>
        </g>
        <g>
        </g>
    </g>
</svg>
